<svg id="Layer_1" data-name="Layer 1" xmlns="http://www.w3.org/2000/svg" viewBox="0 0 455.62 644.38"><defs><style>.cls-1{fill:none;}.cls-1,.cls-11,.cls-12,.cls-13,.cls-14,.cls-2,.cls-4{stroke:#000;stroke-miterlimit:10;}.cls-2{fill:#ff664d;stroke-width:8.41px;}.cls-3,.cls-6{fill:#fff;}.cls-3{stroke:#fff;}.cls-11,.cls-3,.cls-4{stroke-width:2px;}.cls-4{font-size:58.82px;}.cls-10,.cls-14,.cls-4,.cls-7,.cls-8,.cls-9{font-family:BradleyHandITC, Bradley Hand ITC;}.cls-5{fill:#202020;}.cls-5,.cls-6{stroke:#202020;stroke-width:0.5px;}.cls-7{font-size:27.84px;}.cls-8{font-size:35.06px;}.cls-9{font-size:47.15px;}.cls-10{font-size:34.71px;}.cls-12{stroke-width:0.75px;letter-spacing:0em;}.cls-13{stroke-width:1.25px;letter-spacing:0em;}.cls-14{font-size:112.15px;stroke-width:4px;}</style></defs><title>120</title><path class="cls-1" d="M568.5,431.5" transform="translate(-476.85 -35.31)"/><path class="cls-2" d="M863.84,480.41a690.38,690.38,0,0,0,30,179q-11.45,1.58-23,3a1758.29,1758.29,0,0,1-382.5,5c19.8-14.35,45.62-39,52-78,11.66-71.25-54.35-112.6-52-205,1.92-75.26,45.83-82.43,45-160.25-1-93.52-66.76-124.06-48-158.8,37.38-69.22,313.53,24.14,414.5,7,2.67-.45,9.69-1.74,16,2,29.08,17.26,2.44,117.44-32,216A690.41,690.41,0,0,0,863.84,480.41Z" transform="translate(-476.85 -35.31)"/><path class="cls-3" d="M720.59,153.11c-40.44-.25-80.91,10.27-111.84,31.8.89,14.28,11.13,7.55,11.38,23.27C604,220,582.81,220,562.62,222.44c-3.6-7.07,9.14-25.35,12.92-34.78-5-12.75-12.34-20.15-17.72-32,17.31-4.14,35.36-6.58,51.13-14.28q.06-14.51.13-29c30.83-22.08,71.68-33.23,111.85-33.17" transform="translate(-476.85 -35.31)"/><path class="cls-3" d="M721.23,79.17c40.2.06,80.33,11.36,110.92,34.19L832,139.49c14.11,11.4,31.45,15.55,51,14.74-3.19,16.13-11.65,20.13-16.75,31.86,1.57,16.65,13.13,26,12.6,37.8-20.17-5.46-46.43,2.76-58.64-20.59l12.85-17.36c-30.76-21.55-71.76-32.57-112.2-32.83" transform="translate(-476.85 -35.31)"/><text class="cls-4" transform="translate(137.21 102.7) scale(1.13 1)">Popular</text><path class="cls-5" d="M600.32,291.5l-.72,0c.46.73-.54,3.41-2.7,3.09.31,1.44-.91,2.35-2.32,2a7.58,7.58,0,0,0-4,0c-2.61.54-5.6,1.4-8.73-.35a.49.49,0,0,0-.66.19c-.14.34,0,1.34-.86,1.38l-10.12.18H570l-9.74.18c-1.12,0-2.06-1.61-2.14-6.84-.08-5.44-.06-7.57,2.19-7.63l9.42-.18h.21l10.1-.19c.71,0,.82.47.94.78a.41.41,0,0,0,.52.16,21.65,21.65,0,0,1,5.46-1.69c2.23-.28,3.09-1,4.61-.77,1.78.24,7.55-.06,9.28-.11s4.41.44,8,.29c3.43-.14,3.52,3.84.43,3.71-2.44-.1-2.52.21-3.36.11a23.22,23.22,0,0,0-4.27.15,20.27,20.27,0,0,0-2.64.09,11,11,0,0,1,2.11,1C602.91,288,602,291.36,600.32,291.5Z" transform="translate(-476.85 -35.31)"/><path class="cls-6" d="M579.51,290.47a38.9,38.9,0,0,0,.6,6.27c.12.32-.11.52-.59.49l-9.34.16H570l-9.39.17c-.75,0-1.67-.73-1.77-6.52-.07-6,.16-6.76,1.92-6.79l9-.16.21,0,9.89-.18a.44.44,0,0,1,.31.24C580.32,284.52,579.56,285,579.51,290.47Z" transform="translate(-476.85 -35.31)"/><path class="cls-6" d="M584.63,291a.38.38,0,0,0-.08.35c.21.37.65.07,1,0a5.14,5.14,0,0,1,2.37,0,4.29,4.29,0,0,1,2.1,2.56,2.24,2.24,0,0,0,1.29,1.34c.52.16.44.69,0,.74a20.32,20.32,0,0,1-5.19.69c-2.92-.11-5.66-.63-5.92-4.5a30.28,30.28,0,0,1,.23-6.2c.3-1.1,1.19-1.1,2-1.52,3.22-1.46,5.39-1.41,7.18-1.84a2.14,2.14,0,0,1,2.15.16c1.95,1.32,4.28,1.73,4.85,2.12.39.25.5.37.57.51s.51.25.86.53a2,2,0,0,0,.56.33c-.31.43-.61,0-1,.89a1.18,1.18,0,0,0,.09.72c.22.36,1,.41,1.32.46l.83.13c.75.13,1-.64,1-.37.16,1.37-1.68,1.12-2.29,1a10.78,10.78,0,0,1-1.7-.47c-.27-.2-1.65-.21-1.65-1.19,0-.16,0-.51-.43-.34s-1.89.14-2.13-.3a.86.86,0,0,0-.44-.44c-.22-.09-.35,0-.32.29s0,.76-.42.87a1,1,0,0,1-.89,0,3.17,3.17,0,0,0-1.13-.48c-.21.07-.37.23.13.46a1,1,0,0,1,.25,1.76c-1.1,1.24-.74,1.33-4.71,1.54A.52.52,0,0,0,584.63,291Z" transform="translate(-476.85 -35.31)"/><path class="cls-6" d="M591.15,290.91c-.54-.65-.94-.87-.46-1.53.06-.12.24-.12.73,0,.26.06,1.16,1.09.41,1.81C591.65,291.28,591.45,291.35,591.15,290.91Z" transform="translate(-476.85 -35.31)"/><path class="cls-6" d="M590.35,293c-.31.11-.84-1.36-.82-1.45s0-.3.69-.36a1.15,1.15,0,0,1,.79,1.17C591,292.8,590.42,293,590.35,293Z" transform="translate(-476.85 -35.31)"/><path class="cls-6" d="M592.91,289.25c-.29-.3-.93-.87-.76-1.18s.45-.56,1.11-.34a1,1,0,0,1,.41,1.72C593.39,289.57,593.3,289.66,592.91,289.25Z" transform="translate(-476.85 -35.31)"/><path class="cls-6" d="M596.32,294.62c.5,1.89-1.6,1.79-2.45,1.3-1.37-.78-2.55-1-3-1.49-.26-.3-.66-1.08-.28-1.12a1.61,1.61,0,0,0,.82-.5c.07-.07,0-.59.06-.59s-.05.57,1.27,1.19a17.5,17.5,0,0,0,2.23.8,9.94,9.94,0,0,0,1.25.29C596.3,294.52,596.31,294.57,596.32,294.62Z" transform="translate(-476.85 -35.31)"/><path class="cls-6" d="M598.8,291.56a16.11,16.11,0,0,0-2.36.07,3,3,0,0,1-3-.94c-.37-.34-.48-.62-.76-.84s-.48-.56-.33,0c.08.29.33.47.15,1a1.71,1.71,0,0,1-.75.81c-.06,0-.13,0-.08.07a2.56,2.56,0,0,0,1.83,1.41c2,.47,2.86.94,3.27,1a.9.9,0,0,0,.28,0,1.54,1.54,0,0,0,1-.3,2.25,2.25,0,0,0,.9-2.08C599,291.65,598.89,291.56,598.8,291.56Z" transform="translate(-476.85 -35.31)"/><path class="cls-6" d="M601.4,288.2c.15,0,.42,2.12-1,2.69a4.65,4.65,0,0,1-1.85.14c-1.25,0-2.24.07-2.75.07a2.3,2.3,0,0,1-1.74-.57c-.21-.21-.66-.55-.37-.68a1.14,1.14,0,0,0,.75-.68c.32-.64-.13-1.07.27-.91a2.76,2.76,0,0,1,.74.41c1.43,1,5.93,2,5.78-.28C601.2,288.22,601.34,288.1,601.4,288.2Z" transform="translate(-476.85 -35.31)"/><path class="cls-6" d="M599.1,286.69a1.34,1.34,0,0,1,.63.21c.28.12,1.29.28.84.87s-1.83.12-2.31,0a.41.41,0,0,1-.29-.4C598,287.16,598.08,286.71,599.1,286.69Z" transform="translate(-476.85 -35.31)"/><path class="cls-6" d="M606.55,282.66c-1.11,0-3.67-.5-5-.21a45.61,45.61,0,0,0-5.45,0,25.72,25.72,0,0,0-3.86.07,14.43,14.43,0,0,0,3.71,1.58,2.91,2.91,0,0,1,1.85,1.21c1.42.21,3.49.27,3.58.07s.07-.21.33-.16.12.11.55.12c2.23,0,3.41,0,3.41,0,.49,0,.33-.22.5-.27s0,.12.57.17a21,21,0,0,0,3,0c1.75,0,2.11-2.64-.85-2.71A21.07,21.07,0,0,0,606.55,282.66Z" transform="translate(-476.85 -35.31)"/><text class="cls-7" transform="translate(140.13 245.62) scale(1.31 1)">Thousends of <tspan x="0" y="33.41">followers “Real”</tspan></text><path class="cls-5" d="M595.07,368.82l-.72,0c.47.74-.53,3.41-2.7,3.09.31,1.44-.9,2.35-2.31,2a7.61,7.61,0,0,0-4,0c-2.61.53-5.6,1.39-8.73-.36a.5.5,0,0,0-.67.2c-.14.34,0,1.34-.85,1.37l-10.12.19h-.21l-9.74.18c-1.12,0-2-1.61-2.13-6.83-.08-5.45-.06-7.58,2.19-7.64l9.42-.18h.2l10.11-.18c.7,0,.82.47.94.77a.39.39,0,0,0,.51.16A22,22,0,0,1,581.7,360c2.24-.28,3.1-1,4.61-.77,1.79.24,7.56-.05,9.29-.11s4.41.45,8,.29c3.43-.14,3.52,3.84.43,3.72-2.45-.1-2.52.2-3.37.11a22.26,22.26,0,0,0-4.26.15,18.49,18.49,0,0,0-2.64.09,10.88,10.88,0,0,1,2.11.94C597.66,365.28,596.7,368.69,595.07,368.82Z" transform="translate(-476.85 -35.31)"/><path class="cls-6" d="M574.27,367.8a38.87,38.87,0,0,0,.6,6.26c.11.32-.12.53-.6.49l-9.33.17a.74.74,0,0,0-.21,0l-9.4.18c-.74,0-1.66-.74-1.77-6.53-.07-6,.16-6.75,1.93-6.79l9-.15.21,0,9.9-.17a.43.43,0,0,1,.31.24C575.07,361.85,574.32,362.31,574.27,367.8Z" transform="translate(-476.85 -35.31)"/><path class="cls-6" d="M579.39,368.29a.35.35,0,0,0-.08.34c.21.38.64.08,1,0a5,5,0,0,1,2.37,0,4.22,4.22,0,0,1,2.09,2.55,2.3,2.3,0,0,0,1.3,1.35c.52.15.44.68,0,.73a19.63,19.63,0,0,1-5.18.69c-2.92-.11-5.66-.62-5.92-4.49a29.55,29.55,0,0,1,.23-6.2c.29-1.1,1.18-1.11,2-1.53,3.23-1.46,5.4-1.41,7.18-1.84a2.15,2.15,0,0,1,2.16.16c2,1.32,4.27,1.73,4.85,2.13.39.24.5.37.57.51s.5.25.85.53a2.72,2.72,0,0,0,.57.33c-.32.43-.61,0-1,.88a1.1,1.1,0,0,0,.08.72c.22.37,1,.42,1.33.46l.83.14c.74.12,1-.64,1-.37.17,1.36-1.67,1.11-2.28,1a10.15,10.15,0,0,1-1.71-.47c-.26-.19-1.64-.21-1.64-1.18,0-.16,0-.51-.44-.35s-1.88.14-2.12-.3a.9.9,0,0,0-.44-.44c-.23-.09-.36,0-.32.29s0,.76-.42.88a1,1,0,0,1-.89-.05,3.58,3.58,0,0,0-1.13-.48c-.22.07-.38.24.12.46a1.05,1.05,0,0,1,.26,1.76c-1.1,1.25-.74,1.33-4.71,1.54A.51.51,0,0,0,579.39,368.29Z" transform="translate(-476.85 -35.31)"/><path class="cls-6" d="M585.9,368.24c-.53-.66-.93-.87-.45-1.53,0-.12.23-.13.73,0,.26.06,1.16,1.1.4,1.82C586.41,368.6,586.21,368.67,585.9,368.24Z" transform="translate(-476.85 -35.31)"/><path class="cls-6" d="M585.11,370.33c-.32.11-.85-1.35-.83-1.45s.05-.29.7-.35c.29,0,.83.55.78,1.17C585.73,370.12,585.17,370.31,585.11,370.33Z" transform="translate(-476.85 -35.31)"/><path class="cls-6" d="M587.66,366.57c-.28-.3-.93-.87-.75-1.18s.45-.56,1.11-.34a1,1,0,0,1,.4,1.72C588.15,366.89,588.05,367,587.66,366.57Z" transform="translate(-476.85 -35.31)"/><path class="cls-6" d="M591.08,371.94c.49,1.89-1.6,1.79-2.46,1.3-1.37-.78-2.55-1-3-1.49-.27-.3-.67-1.07-.28-1.12a1.58,1.58,0,0,0,.81-.5c.08-.07,0-.59.07-.58s-.05.56,1.27,1.18a16.46,16.46,0,0,0,2.22.8,10.17,10.17,0,0,0,1.26.29A.14.14,0,0,1,591.08,371.94Z" transform="translate(-476.85 -35.31)"/><path class="cls-6" d="M593.56,368.89a15.22,15.22,0,0,0-2.36.06,3,3,0,0,1-3-.94c-.36-.33-.47-.62-.75-.84s-.49-.56-.33,0c.08.29.33.48.14,1a1.59,1.59,0,0,1-.75.82c-.06,0-.13,0-.08.06a2.62,2.62,0,0,0,1.84,1.42c2,.47,2.86.94,3.27,1h.27a1.49,1.49,0,0,0,1-.31,2.22,2.22,0,0,0,.9-2.08C593.71,369,593.65,368.89,593.56,368.89Z" transform="translate(-476.85 -35.31)"/><path class="cls-6" d="M596.16,365.52c.14,0,.41,2.13-1.06,2.7a4.59,4.59,0,0,1-1.84.13c-1.25,0-2.25.08-2.76.07a2.31,2.31,0,0,1-1.74-.57c-.2-.21-.66-.55-.36-.67a1.13,1.13,0,0,0,.74-.68c.33-.65-.13-1.07.27-.91a2.68,2.68,0,0,1,.75.41c1.42,1,5.92,2,5.78-.29C596,365.55,596.1,365.42,596.16,365.52Z" transform="translate(-476.85 -35.31)"/><path class="cls-6" d="M593.86,364a1.18,1.18,0,0,1,.63.21c.28.12,1.29.28.84.87s-1.83.11-2.32,0a.42.42,0,0,1-.29-.4C592.72,364.48,592.84,364,593.86,364Z" transform="translate(-476.85 -35.31)"/><path class="cls-6" d="M601.31,360c-1.11,0-3.67-.5-5-.21a45.78,45.78,0,0,0-5.46,0,28.56,28.56,0,0,0-3.85.07,13.93,13.93,0,0,0,3.7,1.58,2.93,2.93,0,0,1,1.86,1.22c1.42.2,3.48.26,3.58.06s.06-.21.33-.16.11.11.54.12c2.24,0,3.42,0,3.42,0,.49,0,.32-.22.5-.27s0,.12.56.17a22,22,0,0,0,3,.05c1.75,0,2.1-2.65-.86-2.71A19.82,19.82,0,0,0,601.31,360Z" transform="translate(-476.85 -35.31)"/><text class="cls-8" transform="translate(145.73 337.46) scale(0.85 1)">Business plan</text><path class="cls-5" d="M592.07,431.82l-.72,0c.47.74-.53,3.41-2.7,3.09.31,1.44-.9,2.35-2.31,2a7.61,7.61,0,0,0-4,0c-2.61.53-5.6,1.39-8.73-.36a.5.5,0,0,0-.67.2c-.14.34,0,1.34-.85,1.37l-10.12.19h-.21l-9.74.18c-1.12,0-2-1.61-2.13-6.83-.08-5.45-.06-7.58,2.19-7.64l9.42-.18h.2l10.11-.18c.7,0,.82.47.94.77a.39.39,0,0,0,.51.16A22,22,0,0,1,578.7,423c2.24-.28,3.1-1,4.61-.77,1.79.24,7.56-.05,9.29-.11s4.41.45,8,.29c3.43-.14,3.52,3.84.43,3.72-2.45-.1-2.52.2-3.37.11a22.26,22.26,0,0,0-4.26.15,18.49,18.49,0,0,0-2.64.09,10.88,10.88,0,0,1,2.11.94C594.66,428.28,593.7,431.69,592.07,431.82Z" transform="translate(-476.85 -35.31)"/><path class="cls-6" d="M571.27,430.8a38.87,38.87,0,0,0,.6,6.26c.11.32-.12.53-.6.49l-9.33.17a.74.74,0,0,0-.21,0l-9.4.18c-.74,0-1.66-.74-1.77-6.53-.07-6,.16-6.75,1.93-6.79l9-.15.21,0,9.9-.17a.43.43,0,0,1,.31.24C572.07,424.85,571.32,425.31,571.27,430.8Z" transform="translate(-476.85 -35.31)"/><path class="cls-6" d="M576.39,431.29a.35.35,0,0,0-.08.34c.21.38.64.08,1,0a5,5,0,0,1,2.37,0,4.22,4.22,0,0,1,2.09,2.55,2.3,2.3,0,0,0,1.3,1.35c.52.15.44.68,0,.73a19.63,19.63,0,0,1-5.18.69c-2.92-.11-5.66-.62-5.92-4.49a29.55,29.55,0,0,1,.23-6.2c.29-1.1,1.18-1.11,2-1.53,3.23-1.46,5.4-1.41,7.18-1.84a2.15,2.15,0,0,1,2.16.16c2,1.32,4.27,1.73,4.85,2.13.39.24.5.37.57.51s.5.25.85.53a2.72,2.72,0,0,0,.57.33c-.32.43-.61,0-1,.88a1.1,1.1,0,0,0,.08.72c.22.37,1,.42,1.33.46l.83.14c.74.12,1-.64,1-.37.17,1.36-1.67,1.11-2.28,1a10.15,10.15,0,0,1-1.71-.47c-.26-.19-1.64-.21-1.64-1.18,0-.16,0-.51-.44-.35s-1.88.14-2.12-.3a.9.9,0,0,0-.44-.44c-.23-.09-.36,0-.32.29s0,.76-.42.88a1,1,0,0,1-.89-.05,3.58,3.58,0,0,0-1.13-.48c-.22.07-.38.24.12.46a1.05,1.05,0,0,1,.26,1.76c-1.1,1.25-.74,1.33-4.71,1.54A.51.51,0,0,0,576.39,431.29Z" transform="translate(-476.85 -35.31)"/><path class="cls-6" d="M582.9,431.24c-.53-.66-.93-.87-.45-1.53,0-.12.23-.13.73,0,.26.06,1.16,1.1.4,1.82C583.41,431.6,583.21,431.67,582.9,431.24Z" transform="translate(-476.85 -35.31)"/><path class="cls-6" d="M582.11,433.33c-.32.11-.85-1.35-.83-1.45s.05-.29.7-.35c.29,0,.83.55.78,1.17C582.73,433.12,582.17,433.31,582.11,433.33Z" transform="translate(-476.85 -35.31)"/><path class="cls-6" d="M584.66,429.57c-.28-.3-.93-.87-.75-1.18s.45-.56,1.11-.34a1,1,0,0,1,.4,1.72C585.15,429.89,585.05,430,584.66,429.57Z" transform="translate(-476.85 -35.31)"/><path class="cls-6" d="M588.08,434.94c.49,1.89-1.6,1.79-2.46,1.3-1.37-.78-2.55-1-3-1.49-.27-.3-.67-1.07-.28-1.12a1.58,1.58,0,0,0,.81-.5c.08-.07,0-.59.07-.58s-.05.56,1.27,1.18a16.46,16.46,0,0,0,2.22.8,10.17,10.17,0,0,0,1.26.29A.14.14,0,0,1,588.08,434.94Z" transform="translate(-476.85 -35.31)"/><path class="cls-6" d="M590.56,431.89a15.22,15.22,0,0,0-2.36.06,3,3,0,0,1-3-.94c-.36-.33-.47-.62-.75-.84s-.49-.56-.33,0c.08.29.33.48.14,1a1.59,1.59,0,0,1-.75.82c-.06,0-.13,0-.08.06a2.62,2.62,0,0,0,1.84,1.42c2,.47,2.86.94,3.27,1h.27a1.49,1.49,0,0,0,1-.31,2.22,2.22,0,0,0,.9-2.08C590.71,432,590.65,431.89,590.56,431.89Z" transform="translate(-476.85 -35.31)"/><path class="cls-6" d="M593.16,428.52c.14,0,.41,2.13-1.06,2.7a4.59,4.59,0,0,1-1.84.13c-1.25,0-2.25.08-2.76.07a2.31,2.31,0,0,1-1.74-.57c-.2-.21-.66-.55-.36-.67a1.13,1.13,0,0,0,.74-.68c.33-.65-.13-1.07.27-.91a2.68,2.68,0,0,1,.75.41c1.42,1,5.92,2,5.78-.29C593,428.55,593.1,428.42,593.16,428.52Z" transform="translate(-476.85 -35.31)"/><path class="cls-6" d="M590.86,427a1.18,1.18,0,0,1,.63.21c.28.12,1.29.28.84.87s-1.83.11-2.32,0a.42.42,0,0,1-.29-.4C589.72,427.48,589.84,427,590.86,427Z" transform="translate(-476.85 -35.31)"/><path class="cls-6" d="M598.31,423c-1.11,0-3.67-.5-5-.21a45.78,45.78,0,0,0-5.46,0,28.56,28.56,0,0,0-3.85.07,13.93,13.93,0,0,0,3.7,1.58,2.93,2.93,0,0,1,1.86,1.22c1.42.2,3.48.26,3.58.06s.06-.21.33-.16.11.11.54.12c2.24,0,3.42,0,3.42,0,.49,0,.32-.22.5-.27s0,.12.56.17a22,22,0,0,0,3,.05c1.75,0,2.1-2.65-.86-2.71A19.82,19.82,0,0,0,598.31,423Z" transform="translate(-476.85 -35.31)"/><text class="cls-9" transform="translate(143.38 402.34) scale(0.51 1)">Posts Likes everyday</text><path class="cls-5" d="M589.07,498.82l-.72,0c.47.74-.53,3.41-2.7,3.09.31,1.44-.9,2.35-2.31,2a7.61,7.61,0,0,0-4,0c-2.61.53-5.6,1.39-8.73-.36a.5.5,0,0,0-.67.2c-.14.34,0,1.34-.85,1.37l-10.12.19h-.21l-9.74.18c-1.12,0-2-1.61-2.13-6.83-.08-5.45-.06-7.58,2.19-7.64l9.42-.18h.2l10.11-.18c.7,0,.82.47.94.77a.39.39,0,0,0,.51.16A22,22,0,0,1,575.7,490c2.24-.28,3.1-1,4.61-.77,1.79.24,7.56-.05,9.29-.11s4.41.45,8,.29c3.43-.14,3.52,3.84.43,3.72-2.45-.1-2.52.2-3.37.11a22.26,22.26,0,0,0-4.26.15,18.49,18.49,0,0,0-2.64.09,10.88,10.88,0,0,1,2.11.94C591.66,495.28,590.7,498.69,589.07,498.82Z" transform="translate(-476.85 -35.31)"/><path class="cls-6" d="M568.27,497.8a38.87,38.87,0,0,0,.6,6.26c.11.32-.12.53-.6.49l-9.33.17a.74.74,0,0,0-.21,0l-9.4.18c-.74,0-1.66-.74-1.77-6.53-.07-6,.16-6.75,1.93-6.79l9-.15.21,0,9.9-.17a.43.43,0,0,1,.31.24C569.07,491.85,568.32,492.31,568.27,497.8Z" transform="translate(-476.85 -35.31)"/><path class="cls-6" d="M573.39,498.29a.35.35,0,0,0-.08.34c.21.38.64.08,1,0a5,5,0,0,1,2.37,0,4.22,4.22,0,0,1,2.09,2.55,2.3,2.3,0,0,0,1.3,1.35c.52.15.44.68,0,.73a19.63,19.63,0,0,1-5.18.69c-2.92-.11-5.66-.62-5.92-4.49a29.55,29.55,0,0,1,.23-6.2c.29-1.1,1.18-1.11,2-1.53,3.23-1.46,5.4-1.41,7.18-1.84a2.15,2.15,0,0,1,2.16.16c2,1.32,4.27,1.73,4.85,2.13.39.24.5.37.57.51s.5.25.85.53a2.72,2.72,0,0,0,.57.33c-.32.43-.61,0-1,.88a1.1,1.1,0,0,0,.08.72c.22.37,1,.42,1.33.46l.83.14c.74.12,1-.64,1-.37.17,1.36-1.67,1.11-2.28,1a10.15,10.15,0,0,1-1.71-.47c-.26-.19-1.64-.21-1.64-1.18,0-.16,0-.51-.44-.35s-1.88.14-2.12-.3a.9.9,0,0,0-.44-.44c-.23-.09-.36,0-.32.29s0,.76-.42.88a1,1,0,0,1-.89-.05,3.58,3.58,0,0,0-1.13-.48c-.22.07-.38.24.12.46a1.05,1.05,0,0,1,.26,1.76c-1.1,1.25-.74,1.33-4.71,1.54A.51.51,0,0,0,573.39,498.29Z" transform="translate(-476.85 -35.31)"/><path class="cls-6" d="M579.9,498.24c-.53-.66-.93-.87-.45-1.53,0-.12.23-.13.73,0,.26.06,1.16,1.1.4,1.82C580.41,498.6,580.21,498.67,579.9,498.24Z" transform="translate(-476.85 -35.31)"/><path class="cls-6" d="M579.11,500.33c-.32.11-.85-1.35-.83-1.45s.05-.29.7-.35c.29,0,.83.55.78,1.17C579.73,500.12,579.17,500.31,579.11,500.33Z" transform="translate(-476.85 -35.31)"/><path class="cls-6" d="M581.66,496.57c-.28-.3-.93-.87-.75-1.18s.45-.56,1.11-.34a1,1,0,0,1,.4,1.72C582.15,496.89,582.05,497,581.66,496.57Z" transform="translate(-476.85 -35.31)"/><path class="cls-6" d="M585.08,501.94c.49,1.89-1.6,1.79-2.46,1.3-1.37-.78-2.55-1-3-1.49-.27-.3-.67-1.07-.28-1.12a1.58,1.58,0,0,0,.81-.5c.08-.07,0-.59.07-.58s-.05.56,1.27,1.18a16.46,16.46,0,0,0,2.22.8,10.17,10.17,0,0,0,1.26.29A.14.14,0,0,1,585.08,501.94Z" transform="translate(-476.85 -35.31)"/><path class="cls-6" d="M587.56,498.89a15.22,15.22,0,0,0-2.36.06,3,3,0,0,1-3-.94c-.36-.33-.47-.62-.75-.84s-.49-.56-.33,0c.08.29.33.48.14,1a1.59,1.59,0,0,1-.75.82c-.06,0-.13,0-.08.06a2.62,2.62,0,0,0,1.84,1.42c2,.47,2.86.94,3.27,1h.27a1.49,1.49,0,0,0,1-.31,2.22,2.22,0,0,0,.9-2.08C587.71,499,587.65,498.89,587.56,498.89Z" transform="translate(-476.85 -35.31)"/><path class="cls-6" d="M590.16,495.52c.14,0,.41,2.13-1.06,2.7a4.59,4.59,0,0,1-1.84.13c-1.25,0-2.25.08-2.76.07a2.31,2.31,0,0,1-1.74-.57c-.2-.21-.66-.55-.36-.67a1.13,1.13,0,0,0,.74-.68c.33-.65-.13-1.07.27-.91a2.68,2.68,0,0,1,.75.41c1.42,1,5.92,2,5.78-.29C590,495.55,590.1,495.42,590.16,495.52Z" transform="translate(-476.85 -35.31)"/><path class="cls-6" d="M587.86,494a1.18,1.18,0,0,1,.63.21c.28.12,1.29.28.84.87s-1.83.11-2.32,0a.42.42,0,0,1-.29-.4C586.72,494.48,586.84,494,587.86,494Z" transform="translate(-476.85 -35.31)"/><path class="cls-6" d="M595.31,490c-1.11,0-3.67-.5-5-.21a45.78,45.78,0,0,0-5.46,0,28.56,28.56,0,0,0-3.85.07,13.93,13.93,0,0,0,3.7,1.58,2.93,2.93,0,0,1,1.86,1.22c1.42.2,3.48.26,3.58.06s.06-.21.33-.16.11.11.54.12c2.24,0,3.42,0,3.42,0,.49,0,.32-.22.5-.27s0,.12.56.17a22,22,0,0,0,3,.05c1.75,0,2.1-2.65-.86-2.71A19.82,19.82,0,0,0,595.31,490Z" transform="translate(-476.85 -35.31)"/><text class="cls-10" transform="translate(141.3 454.64) scale(0.62 1)">up to <tspan class="cls-11" x="79.32" y="0">5K</tspan><tspan x="124.51" y="0" xml:space="preserve"> new followers </tspan><tspan x="0" y="41.65">and</tspan><tspan class="cls-12" x="57.8" y="41.65"> </tspan><tspan class="cls-13" x="66.64" y="41.65">25k</tspan><tspan x="127.2" y="41.65"> </tspan><tspan x="136.05" y="41.65">new likes</tspan></text><text class="cls-14" transform="translate(138.66 593.47) scale(0.75 1)">120$</text></svg>