<svg id="Layer_1" data-name="Layer 1" xmlns="http://www.w3.org/2000/svg" viewBox="0 0 455.62 644.38"><defs><style>.cls-1{fill:none;}.cls-1,.cls-11,.cls-13,.cls-14,.cls-15,.cls-2,.cls-4{stroke:#000;stroke-miterlimit:10;}.cls-2{fill:#ff664d;stroke-width:8.41px;}.cls-3,.cls-6{fill:#fff;}.cls-3{stroke:#fff;}.cls-11,.cls-3{stroke-width:2px;}.cls-4{font-size:58.82px;stroke-width:2.38px;}.cls-10,.cls-15,.cls-4,.cls-7,.cls-8,.cls-9{font-family:BradleyHandITC, Bradley Hand ITC;}.cls-5{fill:#202020;}.cls-5,.cls-6{stroke:#202020;stroke-width:0.5px;}.cls-7{font-size:27.84px;}.cls-8{font-size:35.06px;}.cls-9{font-size:47.15px;}.cls-10{font-size:34.71px;}.cls-12,.cls-13{letter-spacing:0em;}.cls-13{stroke-width:0.75px;}.cls-14{stroke-width:1.25px;}.cls-15{font-size:112.15px;stroke-width:4px;}</style></defs><title>240</title><path class="cls-1" d="M580.83,447.94" transform="translate(-489.18 -51.75)"/><path class="cls-2" d="M876.17,496.86a690.38,690.38,0,0,0,30,179q-11.45,1.57-23,3a1758.29,1758.29,0,0,1-382.5,5c19.8-14.35,45.62-39,52-78,11.66-71.25-54.35-112.6-52-205,1.92-75.26,45.83-82.43,45-160.25-1-93.52-66.76-124.06-48-158.8,37.38-69.22,313.53,24.14,414.5,7,2.67-.45,9.69-1.74,16,2,29.08,17.26,2.44,117.44-32,216A690.41,690.41,0,0,0,876.17,496.86Z" transform="translate(-489.18 -51.75)"/><path class="cls-3" d="M732.91,169.55c-40.43-.25-80.91,10.27-111.83,31.8.89,14.28,11.13,7.56,11.38,23.27-16.11,11.81-37.32,11.86-57.52,14.26-3.59-7.07,9.15-25.35,12.93-34.78-5-12.75-12.35-20.15-17.73-32,17.32-4.15,35.37-6.59,51.14-14.29q.06-14.51.13-29c30.83-22.08,71.68-33.23,111.84-33.16" transform="translate(-489.18 -51.75)"/><path class="cls-3" d="M733.56,95.61c40.19.06,80.33,11.36,110.91,34.19l-.12,26.13c14.12,11.4,31.46,15.55,51,14.75-3.19,16.12-11.64,20.12-16.74,31.85,1.56,16.65,13.13,26,12.59,37.81-20.17-5.47-46.43,2.75-58.63-20.6l12.84-17.36c-30.75-21.55-71.76-32.57-112.19-32.83" transform="translate(-489.18 -51.75)"/><text class="cls-4" transform="translate(180.21 101.7) scale(1.6 1)">Pro</text><path class="cls-5" d="M612.64,307.94l-.72,0c.47.74-.53,3.41-2.7,3.09.31,1.44-.9,2.35-2.31,2a7.61,7.61,0,0,0-4,0c-2.61.53-5.6,1.39-8.73-.36a.49.49,0,0,0-.66.19c-.15.34,0,1.34-.86,1.38l-10.12.19h-.21l-9.74.18c-1.12,0-2.05-1.61-2.13-6.83-.08-5.45-.06-7.58,2.19-7.64l9.42-.18h.2l10.11-.19c.7,0,.82.47.94.78a.4.4,0,0,0,.51.16,22,22,0,0,1,5.46-1.69c2.24-.28,3.1-1,4.61-.77,1.79.24,7.56-.06,9.29-.11s4.41.44,8,.29c3.43-.14,3.52,3.84.43,3.71-2.45-.09-2.52.21-3.37.12a21.47,21.47,0,0,0-4.26.15,19.53,19.53,0,0,0-2.64.08,11,11,0,0,1,2.11,1C615.23,304.39,614.27,307.81,612.64,307.94Z" transform="translate(-489.18 -51.75)"/><path class="cls-6" d="M591.84,306.92a38.87,38.87,0,0,0,.6,6.26c.12.32-.12.53-.6.49l-9.33.16h-.21l-9.4.17c-.74,0-1.66-.73-1.77-6.52-.07-6,.16-6.76,1.93-6.79l9-.16.21,0,9.9-.17a.44.44,0,0,1,.31.23C592.64,301,591.89,301.43,591.84,306.92Z" transform="translate(-489.18 -51.75)"/><path class="cls-6" d="M597,307.41a.35.35,0,0,0-.08.34c.21.38.64.08,1,0a5,5,0,0,1,2.37,0,4.22,4.22,0,0,1,2.09,2.55,2.26,2.26,0,0,0,1.3,1.34c.52.16.44.69,0,.74a19.63,19.63,0,0,1-5.18.69c-2.92-.11-5.66-.62-5.92-4.5a29.45,29.45,0,0,1,.23-6.19c.3-1.1,1.18-1.11,2-1.53,3.23-1.46,5.4-1.41,7.19-1.84a2.14,2.14,0,0,1,2.15.16c2,1.32,4.27,1.73,4.85,2.12.39.25.5.38.57.52s.5.25.85.52a2.21,2.21,0,0,0,.57.33c-.32.43-.61,0-1,.89a1.1,1.1,0,0,0,.08.72c.22.37,1,.41,1.33.46l.83.13c.74.13.95-.64,1-.37.17,1.37-1.67,1.12-2.28,1a11.19,11.19,0,0,1-1.71-.47c-.26-.2-1.64-.21-1.64-1.19,0-.16,0-.51-.43-.34s-1.89.14-2.13-.3a.86.86,0,0,0-.44-.44c-.23-.09-.35,0-.32.29s0,.76-.42.88a1,1,0,0,1-.89,0,3.17,3.17,0,0,0-1.13-.48c-.22.07-.38.24.13.46a1.05,1.05,0,0,1,.25,1.76c-1.1,1.24-.74,1.33-4.71,1.54A.51.51,0,0,0,597,307.41Z" transform="translate(-489.18 -51.75)"/><path class="cls-6" d="M603.47,307.35c-.53-.65-.93-.86-.45-1.52.05-.13.23-.13.73,0,.26.06,1.16,1.1.41,1.81C604,307.72,603.78,307.79,603.47,307.35Z" transform="translate(-489.18 -51.75)"/><path class="cls-6" d="M602.68,309.45c-.32.11-.85-1.36-.83-1.45s0-.29.7-.36a1.16,1.16,0,0,1,.78,1.18C603.3,309.24,602.74,309.43,602.68,309.45Z" transform="translate(-489.18 -51.75)"/><path class="cls-6" d="M605.24,305.69c-.29-.3-.94-.87-.76-1.18s.45-.56,1.11-.34a1,1,0,0,1,.4,1.72C605.72,306,605.62,306.1,605.24,305.69Z" transform="translate(-489.18 -51.75)"/><path class="cls-6" d="M608.65,311.06c.49,1.89-1.6,1.79-2.46,1.3-1.37-.78-2.55-1-3-1.49-.27-.3-.67-1.08-.28-1.12a1.61,1.61,0,0,0,.82-.5c.07-.07-.05-.59.06-.58s0,.56,1.27,1.18a16.46,16.46,0,0,0,2.22.8,10.17,10.17,0,0,0,1.26.29A.14.14,0,0,1,608.65,311.06Z" transform="translate(-489.18 -51.75)"/><path class="cls-6" d="M611.13,308a15.22,15.22,0,0,0-2.36.06,3,3,0,0,1-3-.94c-.36-.33-.47-.62-.75-.84s-.49-.56-.33,0c.08.29.33.47.14,1a1.66,1.66,0,0,1-.75.82c-.06,0-.13,0-.08.06a2.62,2.62,0,0,0,1.84,1.41c2,.48,2.86.94,3.27,1h.27a1.49,1.49,0,0,0,1-.31,2.21,2.21,0,0,0,.9-2.08C611.28,308.09,611.22,308,611.13,308Z" transform="translate(-489.18 -51.75)"/><path class="cls-6" d="M613.73,304.64c.14,0,.42,2.12-1.05,2.69a4.66,4.66,0,0,1-1.85.14c-1.25,0-2.25.07-2.76.07a2.27,2.27,0,0,1-1.73-.57c-.21-.21-.67-.55-.37-.67a1.16,1.16,0,0,0,.74-.68c.33-.65-.13-1.08.27-.91a2.91,2.91,0,0,1,.75.4c1.43,1,5.92,2,5.78-.28C613.53,304.67,613.67,304.54,613.73,304.64Z" transform="translate(-489.18 -51.75)"/><path class="cls-6" d="M611.43,303.14a1.18,1.18,0,0,1,.63.21c.28.11,1.29.27.84.86s-1.83.12-2.31,0a.42.42,0,0,1-.3-.4C610.29,303.6,610.41,303.16,611.43,303.14Z" transform="translate(-489.18 -51.75)"/><path class="cls-6" d="M618.88,299.1c-1.11,0-3.67-.5-5-.21a45.58,45.58,0,0,0-5.45,0,27.11,27.11,0,0,0-3.86.07,13.93,13.93,0,0,0,3.7,1.58,2.93,2.93,0,0,1,1.86,1.22c1.42.2,3.48.26,3.58.06s.06-.21.33-.16.11.11.54.12c2.24,0,3.42,0,3.42,0,.49,0,.32-.22.5-.27s0,.12.56.17a22,22,0,0,0,3,.05c1.75,0,2.1-2.65-.86-2.71A19.82,19.82,0,0,0,618.88,299.1Z" transform="translate(-489.18 -51.75)"/><text class="cls-7" transform="translate(140.13 245.62) scale(1.31 1)">Thousends of <tspan x="0" y="33.41">followers</tspan></text><path class="cls-5" d="M607.4,385.26l-.72.05c.46.73-.53,3.4-2.7,3.08.31,1.44-.91,2.36-2.32,2a7.48,7.48,0,0,0-4,0c-2.6.53-5.6,1.4-8.73-.36a.49.49,0,0,0-.66.2c-.14.34,0,1.34-.86,1.37l-10.11.19h-.21l-9.74.19c-1.12,0-2.06-1.61-2.14-6.84-.08-5.44-.06-7.58,2.19-7.64l9.42-.18H577l10.1-.18c.71,0,.83.47.95.77a.38.38,0,0,0,.51.16,21.65,21.65,0,0,1,5.46-1.69c2.23-.28,3.09-1,4.61-.77a92.43,92.43,0,0,0,9.28-.11c1.69-.05,4.41.45,8,.3,3.43-.14,3.53,3.83.43,3.71-2.44-.1-2.52.2-3.36.11a22.23,22.23,0,0,0-4.26.15,20.38,20.38,0,0,0-2.65.09,10.45,10.45,0,0,1,2.11.95C610,381.72,609,385.13,607.4,385.26Z" transform="translate(-489.18 -51.75)"/><path class="cls-6" d="M586.59,384.24a40.1,40.1,0,0,0,.6,6.26c.12.32-.11.53-.59.49l-9.34.17a.66.66,0,0,0-.2,0l-9.4.18c-.74,0-1.67-.74-1.77-6.52-.07-6,.16-6.76,1.92-6.79l9-.16.21,0,9.89-.18a.4.4,0,0,1,.31.24C587.4,378.29,586.64,378.75,586.59,384.24Z" transform="translate(-489.18 -51.75)"/><path class="cls-6" d="M591.72,384.73a.31.31,0,0,0-.08.34c.2.38.64.08,1,0s1.81-.31,2.37,0a4.26,4.26,0,0,1,2.1,2.55,2.26,2.26,0,0,0,1.29,1.35c.52.16.44.68,0,.73a19.36,19.36,0,0,1-5.19.69c-2.91-.1-5.66-.62-5.91-4.49a29.66,29.66,0,0,1,.22-6.2c.3-1.1,1.19-1.11,2-1.52,3.22-1.46,5.39-1.41,7.18-1.85a2.16,2.16,0,0,1,2.15.17c2,1.31,4.28,1.73,4.85,2.12.39.24.51.37.57.51s.51.25.86.53a2.66,2.66,0,0,0,.56.33c-.31.43-.61,0-1,.88a1.2,1.2,0,0,0,.09.73c.22.36,1,.41,1.32.46l.83.13c.75.12,1-.64,1-.37.16,1.36-1.68,1.11-2.28,1a10.94,10.94,0,0,1-1.71-.48c-.27-.19-1.65-.21-1.65-1.18,0-.16,0-.51-.43-.35s-1.88.14-2.13-.3a.84.84,0,0,0-.44-.43c-.22-.1-.35,0-.31.29s0,.76-.43.87a1,1,0,0,1-.88-.05,3.72,3.72,0,0,0-1.14-.48c-.21.07-.37.24.13.46a1.06,1.06,0,0,1,.25,1.77c-1.09,1.24-.73,1.32-4.7,1.53A.53.53,0,0,0,591.72,384.73Z" transform="translate(-489.18 -51.75)"/><path class="cls-6" d="M598.23,384.68c-.53-.66-.94-.87-.46-1.53.06-.12.24-.13.73,0,.27.05,1.16,1.09.41,1.81C598.73,385,598.53,385.11,598.23,384.68Z" transform="translate(-489.18 -51.75)"/><path class="cls-6" d="M597.44,386.78c-.32.1-.85-1.36-.83-1.46s0-.29.69-.35a1.14,1.14,0,0,1,.79,1.17C598.05,386.56,597.5,386.75,597.44,386.78Z" transform="translate(-489.18 -51.75)"/><path class="cls-6" d="M600,383c-.29-.31-.93-.87-.76-1.18s.46-.57,1.11-.34a1,1,0,0,1,.41,1.72C600.48,383.33,600.38,383.42,600,383Z" transform="translate(-489.18 -51.75)"/><path class="cls-6" d="M603.41,388.38c.49,1.89-1.61,1.79-2.46,1.31-1.37-.78-2.55-1-3-1.5-.27-.3-.67-1.07-.29-1.12a1.57,1.57,0,0,0,.82-.5c.07-.07-.05-.59.07-.58s0,.57,1.26,1.18A18.25,18.25,0,0,0,602,388a12.57,12.57,0,0,0,1.25.28A.15.15,0,0,1,603.41,388.38Z" transform="translate(-489.18 -51.75)"/><path class="cls-6" d="M605.88,385.33a16.86,16.86,0,0,0-2.36.06,3,3,0,0,1-2.95-.94c-.37-.33-.47-.62-.76-.84s-.48-.56-.32,0c.08.29.32.48.14,1a1.68,1.68,0,0,1-.75.82c-.06,0-.13,0-.08.06a2.56,2.56,0,0,0,1.84,1.42c2,.47,2.85.94,3.26,1a1.34,1.34,0,0,0,.28,0,1.6,1.6,0,0,0,1-.3,2.25,2.25,0,0,0,.9-2.08C606,385.42,606,385.33,605.88,385.33Z" transform="translate(-489.18 -51.75)"/><path class="cls-6" d="M608.49,382c.14,0,.41,2.13-1.06,2.7a4.63,4.63,0,0,1-1.85.13c-1.25,0-2.24.08-2.75.07a2.29,2.29,0,0,1-1.74-.56c-.2-.22-.66-.56-.37-.68a1.14,1.14,0,0,0,.75-.68c.33-.65-.13-1.07.27-.91a2.51,2.51,0,0,1,.74.41c1.43,1,5.93,2,5.79-.29C608.29,382,608.42,381.87,608.49,382Z" transform="translate(-489.18 -51.75)"/><path class="cls-6" d="M606.18,380.46a1.24,1.24,0,0,1,.63.21c.29.12,1.29.28.84.87s-1.82.11-2.31,0a.4.4,0,0,1-.29-.39C605.05,380.92,605.16,380.48,606.18,380.46Z" transform="translate(-489.18 -51.75)"/><path class="cls-6" d="M613.63,376.42c-1.1,0-3.67-.49-5-.21-1.65-.27-4.5.11-5.45,0a28.7,28.7,0,0,0-3.86.07A14.06,14.06,0,0,0,603,377.9a2.89,2.89,0,0,1,1.85,1.22c1.43.2,3.49.26,3.58.06s.07-.21.33-.15.12.1.55.11c2.23,0,3.41,0,3.41,0,.5,0,.33-.22.5-.27s0,.12.57.17a20.11,20.11,0,0,0,3,.05c1.74,0,2.1-2.65-.86-2.71C613.91,376.3,613.93,376.48,613.63,376.42Z" transform="translate(-489.18 -51.75)"/><text class="cls-8" transform="translate(145.73 337.46) scale(0.85 1)">Business plan</text><path class="cls-5" d="M604.4,448.26l-.72.05c.46.73-.53,3.4-2.7,3.08.31,1.44-.91,2.36-2.32,2a7.48,7.48,0,0,0-4,0c-2.6.53-5.6,1.4-8.73-.36a.49.49,0,0,0-.66.2c-.14.34,0,1.34-.86,1.37l-10.11.19h-.21l-9.74.19c-1.12,0-2.06-1.61-2.14-6.84-.08-5.44-.06-7.58,2.19-7.64l9.42-.18H574l10.1-.18c.71,0,.83.47.95.77a.38.38,0,0,0,.51.16,21.65,21.65,0,0,1,5.46-1.69c2.23-.28,3.09-1,4.61-.77a92.43,92.43,0,0,0,9.28-.11c1.69-.05,4.41.45,8,.3,3.43-.14,3.53,3.83.43,3.71-2.44-.1-2.52.2-3.36.11a22.23,22.23,0,0,0-4.26.15,20.38,20.38,0,0,0-2.65.09,10.45,10.45,0,0,1,2.11.95C607,444.72,606,448.13,604.4,448.26Z" transform="translate(-489.18 -51.75)"/><path class="cls-6" d="M583.59,447.24a40.1,40.1,0,0,0,.6,6.26c.12.32-.11.53-.59.49l-9.34.17a.66.66,0,0,0-.2,0l-9.4.18c-.74,0-1.67-.74-1.77-6.52-.07-6,.16-6.76,1.92-6.79l9-.16.21,0,9.89-.18a.4.4,0,0,1,.31.24C584.4,441.29,583.64,441.75,583.59,447.24Z" transform="translate(-489.18 -51.75)"/><path class="cls-6" d="M588.72,447.73a.31.31,0,0,0-.08.34c.2.38.64.08,1,0s1.81-.31,2.37,0a4.26,4.26,0,0,1,2.1,2.55,2.26,2.26,0,0,0,1.29,1.35c.52.16.44.68,0,.73a19.36,19.36,0,0,1-5.19.69c-2.91-.1-5.66-.62-5.91-4.49a29.66,29.66,0,0,1,.22-6.2c.3-1.1,1.19-1.11,2-1.52,3.22-1.46,5.39-1.41,7.18-1.85a2.16,2.16,0,0,1,2.15.17c2,1.31,4.28,1.73,4.85,2.12.39.24.51.37.57.51s.51.25.86.53a2.66,2.66,0,0,0,.56.33c-.31.43-.61,0-1,.88a1.2,1.2,0,0,0,.09.73c.22.36,1,.41,1.32.46l.83.13c.75.12,1-.64,1-.37.16,1.36-1.68,1.11-2.28,1a10.94,10.94,0,0,1-1.71-.48c-.27-.19-1.65-.21-1.65-1.18,0-.16,0-.51-.43-.35s-1.88.14-2.13-.3a.84.84,0,0,0-.44-.43c-.22-.1-.35,0-.31.29s0,.76-.43.87a1,1,0,0,1-.88-.05,3.72,3.72,0,0,0-1.14-.48c-.21.07-.37.24.13.46a1.06,1.06,0,0,1,.25,1.77c-1.09,1.24-.73,1.32-4.7,1.53A.53.53,0,0,0,588.72,447.73Z" transform="translate(-489.18 -51.75)"/><path class="cls-6" d="M595.23,447.68c-.53-.66-.94-.87-.46-1.53.06-.12.24-.13.73,0,.27.05,1.16,1.09.41,1.81C595.73,448,595.53,448.11,595.23,447.68Z" transform="translate(-489.18 -51.75)"/><path class="cls-6" d="M594.44,449.78c-.32.1-.85-1.36-.83-1.46s0-.29.69-.35a1.14,1.14,0,0,1,.79,1.17C595.05,449.56,594.5,449.75,594.44,449.78Z" transform="translate(-489.18 -51.75)"/><path class="cls-6" d="M597,446c-.29-.31-.93-.87-.76-1.18s.46-.57,1.11-.34a1,1,0,0,1,.41,1.72C597.48,446.33,597.38,446.42,597,446Z" transform="translate(-489.18 -51.75)"/><path class="cls-6" d="M600.41,451.38c.49,1.89-1.61,1.79-2.46,1.31-1.37-.78-2.55-1-3-1.5-.27-.3-.67-1.07-.29-1.12a1.57,1.57,0,0,0,.82-.5c.07-.07-.05-.59.07-.58s0,.57,1.26,1.18A18.25,18.25,0,0,0,599,451a12.57,12.57,0,0,0,1.25.28A.15.15,0,0,1,600.41,451.38Z" transform="translate(-489.18 -51.75)"/><path class="cls-6" d="M602.88,448.33a16.86,16.86,0,0,0-2.36.06,3,3,0,0,1-2.95-.94c-.37-.33-.47-.62-.76-.84s-.48-.56-.32,0c.08.29.32.48.14,1a1.68,1.68,0,0,1-.75.82c-.06,0-.13,0-.08.06a2.56,2.56,0,0,0,1.84,1.42c2,.47,2.85.94,3.26,1a1.34,1.34,0,0,0,.28,0,1.6,1.6,0,0,0,1-.3,2.25,2.25,0,0,0,.9-2.08C603,448.42,603,448.33,602.88,448.33Z" transform="translate(-489.18 -51.75)"/><path class="cls-6" d="M605.49,445c.14,0,.41,2.13-1.06,2.7a4.63,4.63,0,0,1-1.85.13c-1.25,0-2.24.08-2.75.07a2.29,2.29,0,0,1-1.74-.56c-.2-.22-.66-.56-.37-.68a1.14,1.14,0,0,0,.75-.68c.33-.65-.13-1.07.27-.91a2.51,2.51,0,0,1,.74.41c1.43,1,5.93,2,5.79-.29C605.29,445,605.42,444.87,605.49,445Z" transform="translate(-489.18 -51.75)"/><path class="cls-6" d="M603.18,443.46a1.24,1.24,0,0,1,.63.21c.29.12,1.29.28.84.87s-1.82.11-2.31,0a.4.4,0,0,1-.29-.39C602.05,443.92,602.16,443.48,603.18,443.46Z" transform="translate(-489.18 -51.75)"/><path class="cls-6" d="M610.63,439.42c-1.1,0-3.67-.49-5-.21-1.65-.27-4.5.11-5.45,0a28.7,28.7,0,0,0-3.86.07A14.06,14.06,0,0,0,600,440.9a2.89,2.89,0,0,1,1.85,1.22c1.43.2,3.49.26,3.58.06s.07-.21.33-.15.12.1.55.11c2.23,0,3.41,0,3.41,0,.5,0,.33-.22.5-.27s0,.12.57.17a20.11,20.11,0,0,0,3,.05c1.74,0,2.1-2.65-.86-2.71C610.91,439.3,610.93,439.48,610.63,439.42Z" transform="translate(-489.18 -51.75)"/><text class="cls-9" transform="translate(143.38 402.34) scale(0.51 1)">Posts Likes everyday</text><path class="cls-5" d="M601.4,515.26l-.72,0c.46.73-.53,3.4-2.7,3.08.31,1.44-.91,2.36-2.32,2a7.48,7.48,0,0,0-4,0c-2.6.53-5.6,1.4-8.73-.36a.49.49,0,0,0-.66.2c-.14.34,0,1.34-.86,1.37l-10.11.19h-.21l-9.74.19c-1.12,0-2.06-1.61-2.14-6.84-.08-5.44-.06-7.58,2.19-7.64l9.42-.18H571l10.1-.18c.71,0,.83.47.95.77a.38.38,0,0,0,.51.16,21.65,21.65,0,0,1,5.46-1.69c2.23-.28,3.09-1,4.61-.77a92.43,92.43,0,0,0,9.28-.11c1.69-.05,4.41.45,8,.3,3.43-.14,3.53,3.83.43,3.71-2.44-.1-2.52.2-3.36.11a22.23,22.23,0,0,0-4.26.15,20.38,20.38,0,0,0-2.65.09,10.45,10.45,0,0,1,2.11.95C604,511.72,603,515.13,601.4,515.26Z" transform="translate(-489.18 -51.75)"/><path class="cls-6" d="M580.59,514.24a40.1,40.1,0,0,0,.6,6.26c.12.32-.11.53-.59.49l-9.34.17a.66.66,0,0,0-.2,0l-9.4.18c-.74,0-1.67-.74-1.77-6.52-.07-6,.16-6.76,1.92-6.79l9-.16.21,0,9.89-.18a.4.4,0,0,1,.31.24C581.4,508.29,580.64,508.75,580.59,514.24Z" transform="translate(-489.18 -51.75)"/><path class="cls-6" d="M585.72,514.73a.31.31,0,0,0-.08.34c.2.38.64.08,1,0s1.81-.31,2.37,0a4.26,4.26,0,0,1,2.1,2.55,2.26,2.26,0,0,0,1.29,1.35c.52.16.44.68,0,.73a19.36,19.36,0,0,1-5.19.69c-2.91-.1-5.66-.62-5.91-4.49a29.66,29.66,0,0,1,.22-6.2c.3-1.1,1.19-1.11,2-1.52,3.22-1.46,5.39-1.41,7.18-1.85a2.16,2.16,0,0,1,2.15.17c2,1.31,4.28,1.73,4.85,2.12.39.24.51.37.57.51s.51.25.86.53a2.66,2.66,0,0,0,.56.33c-.31.43-.61,0-1,.88a1.2,1.2,0,0,0,.09.73c.22.36,1,.41,1.32.46l.83.13c.75.12,1-.64,1-.37.16,1.36-1.68,1.11-2.28,1a10.94,10.94,0,0,1-1.71-.48c-.27-.19-1.65-.21-1.65-1.18,0-.16,0-.51-.43-.35s-1.88.14-2.13-.3a.84.84,0,0,0-.44-.43c-.22-.1-.35,0-.31.29s0,.76-.43.87a1,1,0,0,1-.88-.05,3.72,3.72,0,0,0-1.14-.48c-.21.07-.37.24.13.46a1.06,1.06,0,0,1,.25,1.77c-1.09,1.24-.73,1.32-4.7,1.53A.53.53,0,0,0,585.72,514.73Z" transform="translate(-489.18 -51.75)"/><path class="cls-6" d="M592.23,514.68c-.53-.66-.94-.87-.46-1.53.06-.12.24-.13.73,0,.27,0,1.16,1.09.41,1.81C592.73,515,592.53,515.11,592.23,514.68Z" transform="translate(-489.18 -51.75)"/><path class="cls-6" d="M591.44,516.78c-.32.1-.85-1.36-.83-1.46s0-.29.69-.35a1.14,1.14,0,0,1,.79,1.17C592.05,516.56,591.5,516.75,591.44,516.78Z" transform="translate(-489.18 -51.75)"/><path class="cls-6" d="M594,513c-.29-.31-.93-.87-.76-1.18s.46-.57,1.11-.34a1,1,0,0,1,.41,1.72C594.48,513.33,594.38,513.42,594,513Z" transform="translate(-489.18 -51.75)"/><path class="cls-6" d="M597.41,518.38c.49,1.89-1.61,1.79-2.46,1.31-1.37-.78-2.55-1-3-1.5-.27-.3-.67-1.07-.29-1.12a1.57,1.57,0,0,0,.82-.5c.07-.07-.05-.59.07-.58s0,.57,1.26,1.18A18.25,18.25,0,0,0,596,518a12.57,12.57,0,0,0,1.25.28A.15.15,0,0,1,597.41,518.38Z" transform="translate(-489.18 -51.75)"/><path class="cls-6" d="M599.88,515.33a16.86,16.86,0,0,0-2.36.06,3,3,0,0,1-2.95-.94c-.37-.33-.47-.62-.76-.84s-.48-.56-.32,0c.08.29.32.48.14,1a1.68,1.68,0,0,1-.75.82c-.06,0-.13,0-.08.06a2.56,2.56,0,0,0,1.84,1.42c2,.47,2.85.94,3.26,1a1.34,1.34,0,0,0,.28,0,1.6,1.6,0,0,0,1-.3,2.25,2.25,0,0,0,.9-2.08C600,515.42,600,515.33,599.88,515.33Z" transform="translate(-489.18 -51.75)"/><path class="cls-6" d="M602.49,512c.14,0,.41,2.13-1.06,2.7a4.63,4.63,0,0,1-1.85.13c-1.25,0-2.24.08-2.75.07a2.29,2.29,0,0,1-1.74-.56c-.2-.22-.66-.56-.37-.68a1.14,1.14,0,0,0,.75-.68c.33-.65-.13-1.07.27-.91a2.51,2.51,0,0,1,.74.41c1.43,1,5.93,2,5.79-.29C602.29,512,602.42,511.87,602.49,512Z" transform="translate(-489.18 -51.75)"/><path class="cls-6" d="M600.18,510.46a1.24,1.24,0,0,1,.63.21c.29.12,1.29.28.84.87s-1.82.11-2.31,0a.4.4,0,0,1-.29-.39C599.05,510.92,599.16,510.48,600.18,510.46Z" transform="translate(-489.18 -51.75)"/><path class="cls-6" d="M607.63,506.42c-1.1,0-3.67-.49-5-.21-1.65-.27-4.5.11-5.45,0a28.7,28.7,0,0,0-3.86.07A14.06,14.06,0,0,0,597,507.9a2.89,2.89,0,0,1,1.85,1.22c1.43.2,3.49.26,3.58.06s.07-.21.33-.15.12.1.55.11c2.23,0,3.41,0,3.41,0,.5,0,.33-.22.5-.27s0,.12.57.17a20.11,20.11,0,0,0,3,.05c1.74,0,2.1-2.65-.86-2.71C607.91,506.3,607.93,506.48,607.63,506.42Z" transform="translate(-489.18 -51.75)"/><text class="cls-10" transform="translate(141.3 454.64) scale(0.62 1)">up to <tspan class="cls-11" x="79.32" y="0">10K</tspan><tspan class="cls-12" x="139.97" y="0" xml:space="preserve"> new followers </tspan><tspan x="0" y="41.65">and</tspan><tspan class="cls-13" x="57.8" y="41.65"> </tspan><tspan class="cls-14" x="66.64" y="41.65">30k</tspan><tspan x="125.51" y="41.65"> </tspan><tspan x="134.36" y="41.65">new likes</tspan></text><text class="cls-15" transform="translate(138.66 593.47) scale(0.75 1)">240$</text></svg>