<svg id="Layer_1" data-name="Layer 1" xmlns="http://www.w3.org/2000/svg" viewBox="0 0 455.62 644.38"><defs><style>.cls-1{fill:#ff664d;stroke-width:8.41px;}.cls-1,.cls-10,.cls-12,.cls-13,.cls-14,.cls-3{stroke:#000;stroke-miterlimit:10;}.cls-2,.cls-5{fill:#fff;}.cls-2{stroke:#fff;}.cls-10,.cls-2,.cls-3{stroke-width:2px;}.cls-3{font-size:58.82px;}.cls-14,.cls-3,.cls-6,.cls-7,.cls-8,.cls-9{font-family:BradleyHandITC, Bradley Hand ITC;}.cls-4{fill:#202020;}.cls-4,.cls-5{stroke:#202020;stroke-width:0.5px;}.cls-6{font-size:27.84px;}.cls-7{font-size:35.06px;}.cls-8{font-size:47.15px;}.cls-9{font-size:34.71px;}.cls-11,.cls-12{letter-spacing:0em;}.cls-12{stroke-width:0.75px;}.cls-13{stroke-width:1.25px;}.cls-14{font-size:112.15px;stroke-width:4px;}</style></defs><title>55</title><path class="cls-1" d="M800,470a690.38,690.38,0,0,0,30,179q-11.44,1.57-23,3a1758.29,1758.29,0,0,1-382.5,5c19.8-14.35,45.62-39,52-78,11.66-71.25-54.35-112.6-52-205,1.92-75.26,45.83-82.43,45-160.25-1-93.52-66.76-124.06-48-158.8C458.88-14.22,735,79.14,836,62c2.67-.45,9.69-1.74,16,2,29.08,17.26,2.44,117.44-32,216A690.41,690.41,0,0,0,800,470Z" transform="translate(-413.01 -24.89)"/><path class="cls-2" d="M656.74,142.7c-40.43-.25-80.91,10.26-111.83,31.79.89,14.29,11.13,7.56,11.38,23.28C540.18,209.57,519,209.63,498.77,212c-3.59-7.06,9.15-25.34,12.93-34.77-5-12.76-12.35-20.16-17.73-32,17.32-4.14,35.37-6.58,51.14-14.28q.06-14.52.13-29c30.83-22.09,71.68-33.23,111.84-33.17" transform="translate(-413.01 -24.89)"/><path class="cls-2" d="M657.39,68.75c40.19.07,80.33,11.37,110.91,34.2l-.12,26.13c14.12,11.4,31.46,15.55,51,14.74C816,159.94,807.54,164,802.44,175.68c1.56,16.65,13.13,26,12.59,37.8-20.16-5.47-46.43,2.75-58.63-20.6l12.84-17.35C738.49,154,697.48,143,657.05,142.7" transform="translate(-413.01 -24.89)"/><text class="cls-3" transform="translate(143.21 102.7) scale(1.13 1)">Starter</text><path class="cls-4" d="M536.47,281.08l-.72.05c.47.73-.53,3.4-2.7,3.09.31,1.43-.9,2.35-2.31,2a7.48,7.48,0,0,0-4,0c-2.61.53-5.6,1.4-8.73-.36a.49.49,0,0,0-.66.2c-.15.34,0,1.34-.86,1.37l-10.12.19h-.21l-9.73.18c-1.13,0-2.06-1.61-2.14-6.84-.08-5.44-.06-7.58,2.19-7.64l9.42-.18h.2l10.11-.18c.7,0,.82.47.94.77a.38.38,0,0,0,.51.16,22,22,0,0,1,5.46-1.69c2.24-.27,3.1-1,4.61-.77a92.66,92.66,0,0,0,9.29-.11c1.69-.05,4.41.45,8,.3,3.43-.14,3.52,3.83.43,3.71-2.45-.1-2.52.2-3.37.11a22.29,22.29,0,0,0-4.26.15,20.27,20.27,0,0,0-2.64.09,10.45,10.45,0,0,1,2.11.95C539.06,277.54,538.1,281,536.47,281.08Z" transform="translate(-413.01 -24.89)"/><path class="cls-5" d="M515.67,280.06a38.87,38.87,0,0,0,.6,6.26c.12.33-.12.53-.6.5l-9.33.16h-.21l-9.4.18c-.74,0-1.66-.74-1.77-6.52-.07-6,.16-6.76,1.93-6.79l9-.16.21,0,9.9-.18a.43.43,0,0,1,.31.24C516.47,274.11,515.72,274.57,515.67,280.06Z" transform="translate(-413.01 -24.89)"/><path class="cls-5" d="M520.79,280.55a.35.35,0,0,0-.08.34c.21.38.64.08,1,.05s1.8-.32,2.37,0a4.25,4.25,0,0,1,2.09,2.56,2.26,2.26,0,0,0,1.3,1.34c.52.16.44.68,0,.73a19.17,19.17,0,0,1-5.18.69c-2.92-.1-5.66-.62-5.92-4.49a29.55,29.55,0,0,1,.23-6.2c.3-1.1,1.18-1.11,2-1.52,3.23-1.46,5.4-1.41,7.19-1.85a2.17,2.17,0,0,1,2.15.17c2,1.31,4.27,1.73,4.85,2.12.39.24.5.37.57.51s.5.25.85.53a3,3,0,0,0,.57.33c-.32.43-.61,0-1,.88a1.13,1.13,0,0,0,.08.73c.22.36,1,.41,1.33.46l.83.13c.74.12,1-.64,1-.37.17,1.36-1.67,1.11-2.28,1a12.47,12.47,0,0,1-1.71-.47c-.26-.2-1.64-.22-1.64-1.19,0-.16,0-.51-.43-.34s-1.89.13-2.13-.31a.88.88,0,0,0-.44-.43c-.23-.1-.35,0-.32.29s0,.76-.42.87a1,1,0,0,1-.89-.05,3.58,3.58,0,0,0-1.13-.48c-.22.07-.38.24.13.47a1,1,0,0,1,.25,1.76c-1.1,1.24-.74,1.32-4.71,1.53A.54.54,0,0,0,520.79,280.55Z" transform="translate(-413.01 -24.89)"/><path class="cls-5" d="M527.3,280.5c-.53-.66-.93-.87-.45-1.53,0-.12.23-.13.73,0,.26.05,1.16,1.09.41,1.81C527.81,280.86,527.61,280.94,527.3,280.5Z" transform="translate(-413.01 -24.89)"/><path class="cls-5" d="M526.51,282.6c-.32.1-.85-1.36-.83-1.46s.05-.29.7-.35c.29,0,.83.55.78,1.17C527.13,282.38,526.57,282.57,526.51,282.6Z" transform="translate(-413.01 -24.89)"/><path class="cls-5" d="M529.07,278.84c-.29-.31-.94-.87-.76-1.18s.45-.57,1.11-.34a1,1,0,0,1,.4,1.72C529.55,279.15,529.45,279.24,529.07,278.84Z" transform="translate(-413.01 -24.89)"/><path class="cls-5" d="M532.48,284.2c.49,1.89-1.6,1.79-2.46,1.31-1.37-.78-2.55-1-3-1.49-.27-.31-.67-1.08-.28-1.12a1.76,1.76,0,0,0,.82-.5c.07-.08,0-.6.06-.59s-.05.57,1.27,1.18a16.23,16.23,0,0,0,2.23.81,11.94,11.94,0,0,0,1.25.28A.14.14,0,0,1,532.48,284.2Z" transform="translate(-413.01 -24.89)"/><path class="cls-5" d="M535,281.15a16,16,0,0,0-2.36.07,3,3,0,0,1-3-1c-.36-.33-.47-.62-.75-.84s-.49-.56-.33,0c.08.29.33.48.14,1a1.59,1.59,0,0,1-.75.82c-.06,0-.13,0-.08.06a2.62,2.62,0,0,0,1.84,1.42c2,.47,2.86.94,3.27,1a1.26,1.26,0,0,0,.27,0,1.61,1.61,0,0,0,1-.3,2.24,2.24,0,0,0,.89-2.08C535.11,281.24,535.05,281.15,535,281.15Z" transform="translate(-413.01 -24.89)"/><path class="cls-5" d="M537.56,277.79c.14,0,.42,2.12-1,2.69a4.66,4.66,0,0,1-1.85.13c-1.25,0-2.25.08-2.76.08a2.31,2.31,0,0,1-1.73-.57c-.21-.22-.67-.56-.37-.68a1.13,1.13,0,0,0,.74-.68c.33-.65-.13-1.07.27-.91a3,3,0,0,1,.75.41c1.43,1,5.92,2,5.78-.29C537.36,277.81,537.5,277.69,537.56,277.79Z" transform="translate(-413.01 -24.89)"/><path class="cls-5" d="M535.26,276.28a1.27,1.27,0,0,1,.63.21c.28.12,1.29.28.84.87s-1.83.12-2.31,0a.4.4,0,0,1-.3-.39C534.12,276.74,534.24,276.3,535.26,276.28Z" transform="translate(-413.01 -24.89)"/><path class="cls-5" d="M542.71,272.24c-1.11,0-3.67-.49-5-.21-1.66-.27-4.51.11-5.45,0a27.28,27.28,0,0,0-3.86.08,14.68,14.68,0,0,0,3.7,1.58,2.87,2.87,0,0,1,1.86,1.21c1.42.2,3.48.27,3.58.06s.07-.21.33-.15.11.11.54.12c2.24,0,3.42-.05,3.42-.05.49,0,.32-.22.5-.27s0,.12.56.17a18.63,18.63,0,0,0,3,.05c1.75,0,2.1-2.65-.86-2.71C543,272.12,543,272.3,542.71,272.24Z" transform="translate(-413.01 -24.89)"/><text class="cls-6" transform="translate(140.13 245.62) scale(1.31 1)">Thousends of <tspan x="0" y="33.41">followers</tspan></text><path class="cls-4" d="M531.23,358.41l-.72,0c.46.74-.53,3.41-2.7,3.09.31,1.44-.91,2.35-2.31,2a7.72,7.72,0,0,0-4,0c-2.6.54-5.6,1.4-8.73-.35a.49.49,0,0,0-.66.19c-.14.34,0,1.34-.86,1.38l-10.11.19h-.21l-9.74.18c-1.12,0-2.06-1.61-2.14-6.84-.08-5.44-.06-7.57,2.2-7.63l9.41-.18h.21l10.1-.19c.71,0,.83.47.95.78a.4.4,0,0,0,.51.16,21.65,21.65,0,0,1,5.46-1.69c2.23-.28,3.09-1,4.61-.77,1.79.24,7.56-.06,9.28-.11s4.41.44,8,.29c3.43-.14,3.53,3.84.43,3.71-2.44-.1-2.52.21-3.36.11a22.17,22.17,0,0,0-4.26.16,17.88,17.88,0,0,0-2.64.08,11.3,11.3,0,0,1,2.1.95C533.82,354.86,532.86,358.28,531.23,358.41Z" transform="translate(-413.01 -24.89)"/><path class="cls-5" d="M510.42,357.38a40.12,40.12,0,0,0,.6,6.27c.12.32-.11.53-.59.49l-9.34.16h-.2l-9.4.17c-.74,0-1.67-.73-1.77-6.52-.07-6,.16-6.76,1.92-6.79l9-.16.21,0,9.89-.17a.41.41,0,0,1,.31.23C511.23,351.43,510.47,351.9,510.42,357.38Z" transform="translate(-413.01 -24.89)"/><path class="cls-5" d="M515.55,357.88a.31.31,0,0,0-.08.34c.2.37.64.07,1,0s1.81-.31,2.37,0a4.23,4.23,0,0,1,2.1,2.55,2.27,2.27,0,0,0,1.29,1.34c.52.16.44.69,0,.74a20.32,20.32,0,0,1-5.19.69c-2.91-.11-5.66-.62-5.91-4.5a29.69,29.69,0,0,1,.22-6.2c.3-1.09,1.19-1.1,2-1.52,3.22-1.46,5.39-1.41,7.18-1.84a2.14,2.14,0,0,1,2.15.16c2,1.32,4.28,1.73,4.85,2.12.4.25.51.37.57.52s.51.24.86.52a2,2,0,0,0,.56.33c-.31.43-.61,0-1,.89a1.18,1.18,0,0,0,.09.72c.22.37,1,.41,1.32.46l.83.13c.75.13,1-.64,1-.37.16,1.37-1.68,1.12-2.28,1a10.89,10.89,0,0,1-1.71-.47c-.26-.2-1.65-.21-1.65-1.19,0-.16,0-.51-.43-.34s-1.88.14-2.13-.3a.82.82,0,0,0-.44-.44c-.22-.09-.35,0-.31.29s0,.76-.43.87a1,1,0,0,1-.88,0,3.29,3.29,0,0,0-1.14-.48c-.21.07-.37.23.13.46a1,1,0,0,1,.25,1.76c-1.09,1.24-.73,1.33-4.7,1.54A.47.47,0,0,0,515.55,357.88Z" transform="translate(-413.01 -24.89)"/><path class="cls-5" d="M522.06,357.82c-.53-.65-.94-.86-.46-1.53.06-.12.24-.12.74,0,.26.06,1.15,1.09.4,1.81C522.56,358.19,522.36,358.26,522.06,357.82Z" transform="translate(-413.01 -24.89)"/><path class="cls-5" d="M521.27,359.92c-.32.11-.85-1.36-.83-1.45s0-.3.69-.36a1.15,1.15,0,0,1,.79,1.17C521.88,359.71,521.33,359.9,521.27,359.92Z" transform="translate(-413.01 -24.89)"/><path class="cls-5" d="M523.82,356.16c-.29-.3-.93-.87-.76-1.18s.46-.56,1.11-.34a1,1,0,0,1,.41,1.72C524.31,356.48,524.21,356.57,523.82,356.16Z" transform="translate(-413.01 -24.89)"/><path class="cls-5" d="M527.24,361.53c.49,1.89-1.61,1.79-2.46,1.3-1.37-.78-2.55-1-3-1.49-.27-.3-.67-1.08-.29-1.12a1.57,1.57,0,0,0,.82-.5c.07-.07,0-.59.07-.59s-.05.57,1.26,1.19a18.06,18.06,0,0,0,2.23.8,9.94,9.94,0,0,0,1.25.29C527.21,361.43,527.23,361.48,527.24,361.53Z" transform="translate(-413.01 -24.89)"/><path class="cls-5" d="M529.71,358.47a16.11,16.11,0,0,0-2.36.07,3,3,0,0,1-3-.94c-.37-.34-.47-.62-.76-.84s-.48-.56-.32,0c.08.29.32.47.14,1a1.71,1.71,0,0,1-.75.81c-.06,0-.13,0-.08.07a2.59,2.59,0,0,0,1.84,1.41c2,.48,2.85.94,3.27,1H528a1.57,1.57,0,0,0,1-.31,2.23,2.23,0,0,0,.9-2.08C529.87,358.56,529.8,358.47,529.71,358.47Z" transform="translate(-413.01 -24.89)"/><path class="cls-5" d="M532.32,355.11c.14,0,.41,2.12-1.06,2.69a4.64,4.64,0,0,1-1.85.14c-1.25,0-2.24.07-2.75.07a2.3,2.3,0,0,1-1.74-.57c-.2-.21-.66-.55-.36-.68a1.13,1.13,0,0,0,.74-.67c.33-.65-.13-1.08.27-.92a2.76,2.76,0,0,1,.74.41c1.43,1,5.93,2,5.79-.28C532.12,355.13,532.25,355,532.32,355.11Z" transform="translate(-413.01 -24.89)"/><path class="cls-5" d="M530,353.6a1.34,1.34,0,0,1,.62.21c.29.12,1.29.28.84.87s-1.82.12-2.31,0a.41.41,0,0,1-.29-.4C528.88,354.07,529,353.62,530,353.6Z" transform="translate(-413.01 -24.89)"/><path class="cls-5" d="M537.46,349.57c-1.1,0-3.67-.5-5-.21a45.64,45.64,0,0,0-5.45,0,25.72,25.72,0,0,0-3.86.07,14.43,14.43,0,0,0,3.71,1.58,2.91,2.91,0,0,1,1.85,1.21c1.43.21,3.49.27,3.58.07s.07-.21.33-.16.12.11.55.12c2.23,0,3.41,0,3.41,0,.5,0,.33-.22.5-.27s0,.12.57.17a21.13,21.13,0,0,0,3,0c1.74,0,2.1-2.64-.86-2.71A21.07,21.07,0,0,0,537.46,349.57Z" transform="translate(-413.01 -24.89)"/><text class="cls-7" transform="translate(145.73 337.46) scale(0.85 1)">Business plan</text><path class="cls-4" d="M528.23,421.41l-.72,0c.46.74-.53,3.41-2.7,3.09.31,1.44-.91,2.35-2.31,2a7.72,7.72,0,0,0-4,0c-2.6.54-5.6,1.4-8.73-.35a.49.49,0,0,0-.66.19c-.14.34,0,1.34-.86,1.38l-10.11.19h-.21l-9.74.18c-1.12,0-2.06-1.61-2.14-6.84-.08-5.44-.06-7.57,2.2-7.63l9.41-.18h.21l10.1-.19c.71,0,.83.47.95.78a.4.4,0,0,0,.51.16,21.65,21.65,0,0,1,5.46-1.69c2.23-.28,3.09-1,4.61-.77,1.79.24,7.56-.06,9.28-.11s4.41.44,8,.29c3.43-.14,3.53,3.84.43,3.71-2.44-.1-2.52.21-3.36.11a22.17,22.17,0,0,0-4.26.16,17.88,17.88,0,0,0-2.64.08,11.3,11.3,0,0,1,2.1.95C530.82,417.86,529.86,421.28,528.23,421.41Z" transform="translate(-413.01 -24.89)"/><path class="cls-5" d="M507.42,420.38a40.12,40.12,0,0,0,.6,6.27c.12.32-.11.53-.59.49l-9.34.16h-.2l-9.4.17c-.74,0-1.67-.73-1.77-6.52-.07-6,.16-6.76,1.92-6.79l9-.16.21,0,9.89-.17a.41.41,0,0,1,.31.23C508.23,414.43,507.47,414.9,507.42,420.38Z" transform="translate(-413.01 -24.89)"/><path class="cls-5" d="M512.55,420.88a.31.31,0,0,0-.08.34c.2.37.64.07,1,0s1.81-.31,2.37,0a4.23,4.23,0,0,1,2.1,2.55,2.27,2.27,0,0,0,1.29,1.34c.52.16.44.69,0,.74a20.32,20.32,0,0,1-5.19.69c-2.91-.11-5.66-.62-5.91-4.5a29.69,29.69,0,0,1,.22-6.2c.3-1.09,1.19-1.1,2-1.52,3.22-1.46,5.39-1.41,7.18-1.84a2.14,2.14,0,0,1,2.15.16c2,1.32,4.28,1.73,4.85,2.12.4.25.51.37.57.52s.51.24.86.52a2,2,0,0,0,.56.33c-.31.43-.61,0-1,.89a1.18,1.18,0,0,0,.09.72c.22.37,1,.41,1.32.46l.83.13c.75.13,1-.64,1-.37.16,1.37-1.68,1.12-2.28,1a10.89,10.89,0,0,1-1.71-.47c-.26-.2-1.65-.21-1.65-1.19,0-.16,0-.51-.43-.34s-1.88.14-2.13-.3a.82.82,0,0,0-.44-.44c-.22-.09-.35,0-.31.29s0,.76-.43.87a1,1,0,0,1-.88,0,3.29,3.29,0,0,0-1.14-.48c-.21.07-.37.23.13.46a1,1,0,0,1,.25,1.76c-1.09,1.24-.73,1.33-4.7,1.54A.47.47,0,0,0,512.55,420.88Z" transform="translate(-413.01 -24.89)"/><path class="cls-5" d="M519.06,420.82c-.53-.65-.94-.86-.46-1.53.06-.12.24-.12.74,0,.26.06,1.15,1.09.4,1.81C519.56,421.19,519.36,421.26,519.06,420.82Z" transform="translate(-413.01 -24.89)"/><path class="cls-5" d="M518.27,422.92c-.32.11-.85-1.36-.83-1.45s0-.3.69-.36a1.15,1.15,0,0,1,.79,1.17C518.88,422.71,518.33,422.9,518.27,422.92Z" transform="translate(-413.01 -24.89)"/><path class="cls-5" d="M520.82,419.16c-.29-.3-.93-.87-.76-1.18s.46-.56,1.11-.34a1,1,0,0,1,.41,1.72C521.31,419.48,521.21,419.57,520.82,419.16Z" transform="translate(-413.01 -24.89)"/><path class="cls-5" d="M524.24,424.53c.49,1.89-1.61,1.79-2.46,1.3-1.37-.78-2.55-1-3-1.49-.27-.3-.67-1.08-.29-1.12a1.57,1.57,0,0,0,.82-.5c.07-.07,0-.59.07-.59s-.05.57,1.26,1.19a18.06,18.06,0,0,0,2.23.8,9.94,9.94,0,0,0,1.25.29C524.21,424.43,524.23,424.48,524.24,424.53Z" transform="translate(-413.01 -24.89)"/><path class="cls-5" d="M526.71,421.47a16.11,16.11,0,0,0-2.36.07,3,3,0,0,1-3-.94c-.37-.34-.47-.62-.76-.84s-.48-.56-.32,0c.08.29.32.47.14,1a1.71,1.71,0,0,1-.75.81c-.06,0-.13,0-.08.07a2.59,2.59,0,0,0,1.84,1.41c2,.48,2.85.94,3.27,1H525a1.57,1.57,0,0,0,1-.31,2.23,2.23,0,0,0,.9-2.08C526.87,421.56,526.8,421.47,526.71,421.47Z" transform="translate(-413.01 -24.89)"/><path class="cls-5" d="M529.32,418.11c.14,0,.41,2.12-1.06,2.69a4.64,4.64,0,0,1-1.85.14c-1.25,0-2.24.07-2.75.07a2.3,2.3,0,0,1-1.74-.57c-.2-.21-.66-.55-.36-.68a1.13,1.13,0,0,0,.74-.67c.33-.65-.13-1.08.27-.92a2.76,2.76,0,0,1,.74.41c1.43,1,5.93,2,5.79-.28C529.12,418.13,529.25,418,529.32,418.11Z" transform="translate(-413.01 -24.89)"/><path class="cls-5" d="M527,416.6a1.34,1.34,0,0,1,.62.21c.29.12,1.29.28.84.87s-1.82.12-2.31,0a.41.41,0,0,1-.29-.4C525.88,417.07,526,416.62,527,416.6Z" transform="translate(-413.01 -24.89)"/><path class="cls-5" d="M534.46,412.57c-1.1,0-3.67-.5-5-.21a45.64,45.64,0,0,0-5.45,0,25.72,25.72,0,0,0-3.86.07,14.43,14.43,0,0,0,3.71,1.58,2.91,2.91,0,0,1,1.85,1.21c1.43.21,3.49.27,3.58.07s.07-.21.33-.16.12.11.55.12c2.23,0,3.41,0,3.41,0,.5,0,.33-.22.5-.27s0,.12.57.17a21.13,21.13,0,0,0,3,0c1.74,0,2.1-2.64-.86-2.71A21.07,21.07,0,0,0,534.46,412.57Z" transform="translate(-413.01 -24.89)"/><text class="cls-8" transform="translate(143.38 402.34) scale(0.51 1)">Posts Likes everyday</text><path class="cls-4" d="M525.23,488.41l-.72,0c.46.74-.53,3.41-2.7,3.09.31,1.44-.91,2.35-2.31,2a7.72,7.72,0,0,0-4,0c-2.6.54-5.6,1.4-8.73-.35a.49.49,0,0,0-.66.19c-.14.34,0,1.34-.86,1.38l-10.11.19h-.21l-9.74.18c-1.12,0-2.06-1.61-2.14-6.84-.08-5.44-.06-7.57,2.2-7.63l9.41-.18h.21l10.1-.19c.71,0,.83.47.95.78a.4.4,0,0,0,.51.16,21.65,21.65,0,0,1,5.46-1.69c2.23-.28,3.09-1,4.61-.77,1.79.24,7.56-.06,9.28-.11s4.41.44,8,.29c3.43-.14,3.53,3.84.43,3.71-2.44-.1-2.52.21-3.36.11a22.17,22.17,0,0,0-4.26.16,17.88,17.88,0,0,0-2.64.08,11.3,11.3,0,0,1,2.1.95C527.82,484.86,526.86,488.28,525.23,488.41Z" transform="translate(-413.01 -24.89)"/><path class="cls-5" d="M504.42,487.38a40.12,40.12,0,0,0,.6,6.27c.12.32-.11.53-.59.49l-9.34.16h-.2l-9.4.17c-.74,0-1.67-.73-1.77-6.52-.07-6,.16-6.76,1.92-6.79l9-.16.21,0,9.89-.17a.41.41,0,0,1,.31.23C505.23,481.43,504.47,481.9,504.42,487.38Z" transform="translate(-413.01 -24.89)"/><path class="cls-5" d="M509.55,487.88a.31.31,0,0,0-.08.34c.2.37.64.07,1,0s1.81-.31,2.37,0a4.23,4.23,0,0,1,2.1,2.55,2.27,2.27,0,0,0,1.29,1.34c.52.16.44.69,0,.74a20.32,20.32,0,0,1-5.19.69c-2.91-.11-5.66-.62-5.91-4.5a29.69,29.69,0,0,1,.22-6.2c.3-1.09,1.19-1.1,2-1.52,3.22-1.46,5.39-1.41,7.18-1.84a2.14,2.14,0,0,1,2.15.16c2,1.32,4.28,1.73,4.85,2.12.4.25.51.37.57.52s.51.24.86.52a2,2,0,0,0,.56.33c-.31.43-.61,0-1,.89a1.18,1.18,0,0,0,.09.72c.22.37,1,.41,1.32.46l.83.13c.75.13,1-.64,1-.37.16,1.37-1.68,1.12-2.28,1a10.89,10.89,0,0,1-1.71-.47c-.26-.2-1.65-.21-1.65-1.19,0-.16,0-.51-.43-.34s-1.88.14-2.13-.3a.82.82,0,0,0-.44-.44c-.22-.09-.35,0-.31.29s0,.76-.43.87a1,1,0,0,1-.88,0,3.29,3.29,0,0,0-1.14-.48c-.21.07-.37.23.13.46a1,1,0,0,1,.25,1.76c-1.09,1.24-.73,1.33-4.7,1.54A.47.47,0,0,0,509.55,487.88Z" transform="translate(-413.01 -24.89)"/><path class="cls-5" d="M516.06,487.82c-.53-.65-.94-.86-.46-1.53.06-.12.24-.12.74,0,.26.06,1.15,1.09.4,1.81C516.56,488.19,516.36,488.26,516.06,487.82Z" transform="translate(-413.01 -24.89)"/><path class="cls-5" d="M515.27,489.92c-.32.11-.85-1.36-.83-1.45s0-.3.69-.36a1.15,1.15,0,0,1,.79,1.17C515.88,489.71,515.33,489.9,515.27,489.92Z" transform="translate(-413.01 -24.89)"/><path class="cls-5" d="M517.82,486.16c-.29-.3-.93-.87-.76-1.18s.46-.56,1.11-.34a1,1,0,0,1,.41,1.72C518.31,486.48,518.21,486.57,517.82,486.16Z" transform="translate(-413.01 -24.89)"/><path class="cls-5" d="M521.24,491.53c.49,1.89-1.61,1.79-2.46,1.3-1.37-.78-2.55-1-3-1.49-.27-.3-.67-1.08-.29-1.12a1.57,1.57,0,0,0,.82-.5c.07-.07,0-.59.07-.59s-.05.57,1.26,1.19a18.06,18.06,0,0,0,2.23.8,9.94,9.94,0,0,0,1.25.29C521.21,491.43,521.23,491.48,521.24,491.53Z" transform="translate(-413.01 -24.89)"/><path class="cls-5" d="M523.71,488.47a16.11,16.11,0,0,0-2.36.07,3,3,0,0,1-3-.94c-.37-.34-.47-.62-.76-.84s-.48-.56-.32,0c.08.29.32.47.14,1a1.71,1.71,0,0,1-.75.81c-.06,0-.13,0-.08.07a2.59,2.59,0,0,0,1.84,1.41c2,.48,2.85.94,3.27,1H522a1.57,1.57,0,0,0,1-.31,2.23,2.23,0,0,0,.9-2.08C523.87,488.56,523.8,488.47,523.71,488.47Z" transform="translate(-413.01 -24.89)"/><path class="cls-5" d="M526.32,485.11c.14,0,.41,2.12-1.06,2.69a4.64,4.64,0,0,1-1.85.14c-1.25,0-2.24.07-2.75.07a2.3,2.3,0,0,1-1.74-.57c-.2-.21-.66-.55-.36-.68a1.13,1.13,0,0,0,.74-.67c.33-.65-.13-1.08.27-.92a2.76,2.76,0,0,1,.74.41c1.43,1,5.93,2,5.79-.28C526.12,485.13,526.25,485,526.32,485.11Z" transform="translate(-413.01 -24.89)"/><path class="cls-5" d="M524,483.6a1.34,1.34,0,0,1,.62.21c.29.12,1.29.28.84.87s-1.82.12-2.31,0a.41.41,0,0,1-.29-.4C522.88,484.07,523,483.62,524,483.6Z" transform="translate(-413.01 -24.89)"/><path class="cls-5" d="M531.46,479.57c-1.1,0-3.67-.5-5-.21a45.64,45.64,0,0,0-5.45,0,25.72,25.72,0,0,0-3.86.07,14.43,14.43,0,0,0,3.71,1.58,2.91,2.91,0,0,1,1.85,1.21c1.43.21,3.49.27,3.58.07s.07-.21.33-.16.12.11.55.12c2.23,0,3.41,0,3.41,0,.5,0,.33-.22.5-.27s0,.12.57.17a21.13,21.13,0,0,0,3,0c1.74,0,2.1-2.64-.86-2.71A21.07,21.07,0,0,0,531.46,479.57Z" transform="translate(-413.01 -24.89)"/><text class="cls-9" transform="translate(141.3 454.64) scale(0.62 1)">up to <tspan class="cls-10" x="79.32" y="0">3K</tspan><tspan class="cls-11" x="124.34" y="0" xml:space="preserve"> new followers </tspan><tspan x="0" y="41.65">and</tspan><tspan class="cls-12" x="57.8" y="41.65"> </tspan><tspan class="cls-13" x="66.64" y="41.65">16k</tspan><tspan x="125.76" y="41.65"> </tspan><tspan x="134.61" y="41.65">new likes</tspan></text><text class="cls-14" transform="translate(138.66 593.47) scale(0.75 1)">55$</text></svg>