<svg id="Layer_1" data-name="Layer 1" xmlns="http://www.w3.org/2000/svg" xmlns:xlink="http://www.w3.org/1999/xlink" viewBox="0 0 664.13 664.13"><defs><style>.cls-1{fill:none;clip-rule:evenodd;}.cls-2{fill:#e7e2ef;}.cls-10,.cls-11,.cls-12,.cls-13,.cls-14,.cls-15,.cls-16,.cls-17,.cls-18,.cls-19,.cls-2,.cls-20,.cls-21,.cls-22,.cls-23,.cls-4,.cls-5,.cls-6,.cls-7,.cls-8,.cls-9{fill-rule:evenodd;}.cls-3{clip-path:url(#clip-path);}.cls-26,.cls-4{fill:#c7c0dd;}.cls-5{fill:#a7a0cb;}.cls-6{fill:#350a3d;}.cls-7{fill:#cb6459;}.cls-8{fill:#b24949;}.cls-9{fill:#e6ad83;}.cls-10{fill:#b02539;}.cls-11{fill:#ecd8da;}.cls-12{fill:#df9aa3;}.cls-13{fill:#c73048;}.cls-14{fill:#cf4a60;}.cls-15{fill:#d4a037;}.cls-16,.cls-24{fill:#472055;}.cls-17{fill:#f3ce63;}.cls-18,.cls-25{fill:#fff;}.cls-19{fill:#f2dbdf;}.cls-20{fill:#bd263e;}.cls-21{fill:#542763;}.cls-22{fill:#9ebcd2;}.cls-23{fill:#7696ae;}</style><clipPath id="clip-path" transform="translate(-354.78 -0.95)"><path class="cls-1" d="M975.37,429A35.45,35.45,0,0,0,940,464.34h0a64.67,64.67,0,0,1-64.48,64.49H442a84,84,0,0,1-83.77-83.77h0A84,84,0,0,1,442,361.29h2.2A16.86,16.86,0,0,0,461,344.47h0a16.86,16.86,0,0,0-16.81-16.81h-9.25a41,41,0,0,1-40.86-40.87h0a41,41,0,0,1,40.79-40.86h39.87a35.46,35.46,0,0,0,35.35-35.35h0a64.67,64.67,0,0,1,64.48-64.48H904.1a84,84,0,0,1,83.77,83.77h0a84,84,0,0,1-83.77,83.77h0a16.87,16.87,0,0,0-16.82,16.81h0a16.86,16.86,0,0,0,16.82,16.81h71.27C1028.84,347.26,1028.85,429,975.37,429Z"/></clipPath></defs><title>girlinsta</title><path class="cls-2" d="M975.37,429A35.45,35.45,0,0,0,940,464.34h0a64.67,64.67,0,0,1-64.48,64.49H442a84,84,0,0,1-83.77-83.77h0A84,84,0,0,1,442,361.29h2.2A16.86,16.86,0,0,0,461,344.47h0a16.86,16.86,0,0,0-16.81-16.81h-9.25a41,41,0,0,1-40.86-40.87h0a41,41,0,0,1,40.79-40.86h39.87a35.46,35.46,0,0,0,35.35-35.35h0a64.67,64.67,0,0,1,64.48-64.48H904.1a84,84,0,0,1,83.77,83.77h0a84,84,0,0,1-83.77,83.77h0a16.87,16.87,0,0,0-16.82,16.81h0a16.86,16.86,0,0,0,16.82,16.81h71.27C1028.84,347.26,1028.85,429,975.37,429Z" transform="translate(-354.78 -0.95)"/><g class="cls-3"><path class="cls-4" d="M400.22,665.08h.51v-9.39H457.5v9.39h.5v-9.39h56.77v9.39h.5v-9.39h56.78v9.39h.5v-9.39h56.77v9.39h.5v-9.39h56.77v9.39h.5v-9.39h56.77v9.39h.5v-9.39h56.78v9.39h.5v-9.39h56.77v9.39h.5v-9.39h56.77v9.39h.5v-9.39H973v9.39h.5v-9.39h45.44v-.5h-16.8V638.72h16.8v-.5H973.46V621.75h45.44v-.5h-16.8V604.78h16.8v-.5H973.46V587.81h45.44v-.5h-16.8V570.84h16.8v-.5H973.46V553.87h45.44v-.5h-16.8V536.9h16.8v-.5H973.46V519.93h45.44v-.5h-16.8V503h16.8v-.5H973.46V486h45.44v-.5h-16.8V469h16.8v-.5H973.46V452.05h45.44v-.5h-16.8V435.08h16.8v-.5H973.46V418.12h45.44v-.51h-16.8V401.14h16.8v-.5H973.46V384.18h45.44v-.51h-16.8V367.21h16.8v-.51H973.46V350.23h45.44v-.5h-16.8V333.27h16.8v-.51H973.46V316.29h45.44v-.5h-16.8V299.33h16.8v-.5H973.46V282.36h45.44v-.5h-16.8V265.39h16.8v-.5H973.46V248.42h45.44v-.5h-16.8V231.45h16.8V231H973.46V214.48h45.44V214h-16.8V197.51h16.8V197H973.46V180.54h45.44V180h-16.8V163.57h16.8v-.5H973.46V146.6h45.44v-.5h-16.8V129.63h16.8v-.5H973.46V112.66h45.44v-.5h-16.8V95.69h16.8v-.5H973.46V78.72h45.44v-.5h-16.8V61.75h16.8v-.5H973.46V44.78h45.44v-.5h-16.8V27.81h16.8v-.5H973.46V10.84h45.44v-.5h-16.8V1h-.51v9.39H944.82V1h-.5v9.39H887.55V1h-.5v9.39H830.27V1h-.5v9.39H773V1h-.5v9.39H715.73V1h-.5v9.39H658.46V1H658v9.39H601.18V1h-.5v9.39H543.91V1h-.5v9.39H486.64V1h-.5v9.39H429.36V1h-.5v9.39H372.09V1h-.5v9.39H354.78v.5h45.44V27.31H354.78v.5h16.81V44.28H354.78v.5h45.44V61.25H354.78v.5h16.81V78.22H354.78v.5h45.44V95.19H354.78v.5h16.81v16.47H354.78v.5h45.44v16.47H354.78v.5h16.81V146.1H354.78v.5h45.44v16.47H354.78v.5h16.81V180H354.78v.5h45.44V197H354.78v.5h16.81V214H354.78v.5h45.44V231H354.78v.5h16.81v16.47H354.78v.5h45.44v16.47H354.78v.5h16.81v16.47H354.78v.5h45.44v16.47H354.78v.5h16.81v16.46H354.78v.5h45.44v16.47H354.78v.51h16.81v16.46H354.78v.5h45.44V366.7H354.78v.51h16.81v16.46H354.78v.51h45.44v16.46H354.78v.5h16.81v16.47H354.78v.51h45.44v16.46H354.78v.5h16.81v16.47H354.78v.5h45.44v16.47H354.78v.5h16.81v16.47H354.78v.5h45.44v16.47H354.78v.5h16.81v16.47H354.78v.5h45.44V536.4H354.78v.5h16.81v16.47H354.78v.5h45.44v16.47H354.78v.5h16.81v16.47H354.78v.5h45.44v16.47H354.78v.5h16.81v16.47H354.78v.5h45.44v16.47H354.78v.5h16.81v16.47H354.78v.5h45.44v9.39Zm-28.13-26.36h56.77v16.47H372.09V638.72Zm57.27,0h56.78v16.47H429.36V638.72Zm57.28,0h56.77v16.47H486.64V638.72Zm57.27,0h56.77v16.47H543.91V638.72Zm57.27,0H658v16.47H601.18V638.72Zm57.28,0h56.77v16.47H658.46V638.72Zm57.27,0H772.5v16.47H715.73V638.72Zm57.27,0h56.77v16.47H773V638.72Zm57.27,0h56.78v16.47H830.27V638.72Zm57.28,0h56.77v16.47H887.55V638.72Zm57.27,0h56.77v16.47H944.82V638.72Zm-544.09-17H457.5v16.47H400.73V621.75Zm57.27,0h56.77v16.47H458V621.75Zm57.27,0h56.78v16.47H515.27V621.75Zm57.28,0h56.77v16.47H572.55V621.75Zm57.27,0h56.77v16.47H629.82V621.75Zm57.27,0h56.77v16.47H687.09V621.75Zm57.27,0h56.78v16.47H744.36V621.75Zm57.28,0h56.77v16.47H801.64V621.75Zm57.27,0h56.77v16.47H858.91V621.75Zm57.27,0H973v16.47H916.18V621.75Zm-544.09-17h56.77v16.47H372.09V604.78Zm57.27,0h56.78v16.47H429.36V604.78Zm57.28,0h56.77v16.47H486.64V604.78Zm57.27,0h56.77v16.47H543.91V604.78Zm57.27,0H658v16.47H601.18V604.78Zm57.28,0h56.77v16.47H658.46V604.78Zm57.27,0H772.5v16.47H715.73V604.78Zm57.27,0h56.77v16.47H773V604.78Zm57.27,0h56.78v16.47H830.27V604.78Zm57.28,0h56.77v16.47H887.55V604.78Zm57.27,0h56.77v16.47H944.82V604.78Zm-544.09-17H457.5v16.47H400.73V587.81Zm57.27,0h56.77v16.47H458V587.81Zm57.27,0h56.78v16.47H515.27V587.81Zm57.28,0h56.77v16.47H572.55V587.81Zm57.27,0h56.77v16.47H629.82V587.81Zm57.27,0h56.77v16.47H687.09V587.81Zm57.27,0h56.78v16.47H744.36V587.81Zm57.28,0h56.77v16.47H801.64V587.81Zm57.27,0h56.77v16.47H858.91V587.81Zm57.27,0H973v16.47H916.18V587.81Zm-544.09-17h56.77v16.47H372.09V570.84Zm57.27,0h56.78v16.47H429.36V570.84Zm57.28,0h56.77v16.47H486.64V570.84Zm57.27,0h56.77v16.47H543.91V570.84Zm57.27,0H658v16.47H601.18V570.84Zm57.28,0h56.77v16.47H658.46V570.84Zm57.27,0H772.5v16.47H715.73V570.84Zm57.27,0h56.77v16.47H773V570.84Zm57.27,0h56.78v16.47H830.27V570.84Zm57.28,0h56.77v16.47H887.55V570.84Zm57.27,0h56.77v16.47H944.82V570.84Zm-544.09-17H457.5v16.47H400.73V553.87Zm57.27,0h56.77v16.47H458V553.87Zm57.27,0h56.78v16.47H515.27V553.87Zm57.28,0h56.77v16.47H572.55V553.87Zm57.27,0h56.77v16.47H629.82V553.87Zm57.27,0h56.77v16.47H687.09V553.87Zm57.27,0h56.78v16.47H744.36V553.87Zm57.28,0h56.77v16.47H801.64V553.87Zm57.27,0h56.77v16.47H858.91V553.87Zm57.27,0H973v16.47H916.18V553.87Zm-544.09-17h56.77v16.47H372.09V536.9Zm57.27,0h56.78v16.47H429.36V536.9Zm57.28,0h56.77v16.47H486.64V536.9Zm57.27,0h56.77v16.47H543.91V536.9Zm57.27,0H658v16.47H601.18V536.9Zm57.28,0h56.77v16.47H658.46V536.9Zm57.27,0H772.5v16.47H715.73V536.9Zm57.27,0h56.77v16.47H773V536.9Zm57.27,0h56.78v16.47H830.27V536.9Zm57.28,0h56.77v16.47H887.55V536.9Zm57.27,0h56.77v16.47H944.82V536.9Zm-544.09-17H457.5V536.4H400.73V519.93Zm57.27,0h56.77V536.4H458V519.93Zm57.27,0h56.78V536.4H515.27V519.93Zm57.28,0h56.77V536.4H572.55V519.93Zm57.27,0h56.77V536.4H629.82V519.93Zm57.27,0h56.77V536.4H687.09V519.93Zm57.27,0h56.78V536.4H744.36V519.93Zm57.28,0h56.77V536.4H801.64V519.93Zm57.27,0h56.77V536.4H858.91V519.93Zm57.27,0H973V536.4H916.18V519.93ZM372.09,503h56.77v16.47H372.09V503Zm57.27,0h56.78v16.47H429.36V503Zm57.28,0h56.77v16.47H486.64V503Zm57.27,0h56.77v16.47H543.91V503Zm57.27,0H658v16.47H601.18V503Zm57.28,0h56.77v16.47H658.46V503Zm57.27,0H772.5v16.47H715.73V503ZM773,503h56.77v16.47H773V503Zm57.27,0h56.78v16.47H830.27V503Zm57.28,0h56.77v16.47H887.55V503Zm57.27,0h56.77v16.47H944.82V503ZM400.73,486H457.5v16.47H400.73V486ZM458,486h56.77v16.47H458V486Zm57.27,0h56.78v16.47H515.27V486Zm57.28,0h56.77v16.47H572.55V486Zm57.27,0h56.77v16.47H629.82V486Zm57.27,0h56.77v16.47H687.09V486Zm57.27,0h56.78v16.47H744.36V486Zm57.28,0h56.77v16.47H801.64V486Zm57.27,0h56.77v16.47H858.91V486Zm57.27,0H973v16.47H916.18V486ZM372.09,469h56.77v16.47H372.09V469Zm57.27,0h56.78v16.47H429.36V469Zm57.28,0h56.77v16.47H486.64V469Zm57.27,0h56.77v16.47H543.91V469Zm57.27,0H658v16.47H601.18V469Zm57.28,0h56.77v16.47H658.46V469Zm57.27,0H772.5v16.47H715.73V469ZM773,469h56.77v16.47H773V469Zm57.27,0h56.78v16.47H830.27V469Zm57.28,0h56.77v16.47H887.55V469Zm57.27,0h56.77v16.47H944.82V469Zm-544.09-17H457.5v16.47H400.73V452.05Zm57.27,0h56.77v16.47H458V452.05Zm57.27,0h56.78v16.47H515.27V452.05Zm57.28,0h56.77v16.47H572.55V452.05Zm57.27,0h56.77v16.47H629.82V452.05Zm57.27,0h56.77v16.47H687.09V452.05Zm57.27,0h56.78v16.47H744.36V452.05Zm57.28,0h56.77v16.47H801.64V452.05Zm57.27,0h56.77v16.47H858.91V452.05Zm57.27,0H973v16.47H916.18V452.05Zm-544.09-17h56.77v16.47H372.09V435.08Zm57.27,0h56.78v16.47H429.36V435.08Zm57.28,0h56.77v16.47H486.64V435.08Zm57.27,0h56.77v16.47H543.91V435.08Zm57.27,0H658v16.47H601.18V435.08Zm57.28,0h56.77v16.47H658.46V435.08Zm57.27,0H772.5v16.47H715.73V435.08Zm57.27,0h56.77v16.47H773V435.08Zm57.27,0h56.78v16.47H830.27V435.08Zm57.28,0h56.77v16.47H887.55V435.08Zm57.27,0h56.77v16.47H944.82V435.08Zm-544.09-17H457.5v16.46H400.73V418.12Zm57.27,0h56.77v16.46H458V418.12Zm57.27,0h56.78v16.46H515.27V418.12Zm57.28,0h56.77v16.46H572.55V418.12Zm57.27,0h56.77v16.46H629.82V418.12Zm57.27,0h56.77v16.46H687.09V418.12Zm57.27,0h56.78v16.46H744.36V418.12Zm57.28,0h56.77v16.46H801.64V418.12Zm57.27,0h56.77v16.46H858.91V418.12Zm57.27,0H973v16.46H916.18V418.12Zm-544.09-17h56.77v16.47H372.09V401.14Zm57.27,0h56.78v16.47H429.36V401.14Zm57.28,0h56.77v16.47H486.64V401.14Zm57.27,0h56.77v16.47H543.91V401.14Zm57.27,0H658v16.47H601.18V401.14Zm57.28,0h56.77v16.47H658.46V401.14Zm57.27,0H772.5v16.47H715.73V401.14Zm57.27,0h56.77v16.47H773V401.14Zm57.27,0h56.78v16.47H830.27V401.14Zm57.28,0h56.77v16.47H887.55V401.14Zm57.27,0h56.77v16.47H944.82V401.14Zm-544.09-17H457.5v16.46H400.73V384.18Zm57.27,0h56.77v16.46H458V384.18Zm57.27,0h56.78v16.46H515.27V384.18Zm57.28,0h56.77v16.46H572.55V384.18Zm57.27,0h56.77v16.46H629.82V384.18Zm57.27,0h56.77v16.46H687.09V384.18Zm57.27,0h56.78v16.46H744.36V384.18Zm57.28,0h56.77v16.46H801.64V384.18Zm57.27,0h56.77v16.46H858.91V384.18Zm57.27,0H973v16.46H916.18V384.18Zm-544.09-17h56.77v16.46H372.09V367.21Zm57.27,0h56.78v16.46H429.36V367.21Zm57.28,0h56.77v16.46H486.64V367.21Zm57.27,0h56.77v16.46H543.91V367.21Zm57.27,0H658v16.46H601.18V367.21Zm57.28,0h56.77v16.46H658.46V367.21Zm57.27,0H772.5v16.46H715.73V367.21Zm57.27,0h56.77v16.46H773V367.21Zm57.27,0h56.78v16.46H830.27V367.21Zm57.28,0h56.77v16.46H887.55V367.21Zm57.27,0h56.77v16.46H944.82V367.21Zm-544.09-17H457.5V366.7H400.73V350.23Zm57.27,0h56.77V366.7H458V350.23Zm57.27,0h56.78V366.7H515.27V350.23Zm57.28,0h56.77V366.7H572.55V350.23Zm57.27,0h56.77V366.7H629.82V350.23Zm57.27,0h56.77V366.7H687.09V350.23Zm57.27,0h56.78V366.7H744.36V350.23Zm57.28,0h56.77V366.7H801.64V350.23Zm57.27,0h56.77V366.7H858.91V350.23Zm57.27,0H973V366.7H916.18V350.23Zm-544.09-17h56.77v16.46H372.09V333.27Zm57.27,0h56.78v16.46H429.36V333.27Zm57.28,0h56.77v16.46H486.64V333.27Zm57.27,0h56.77v16.46H543.91V333.27Zm57.27,0H658v16.46H601.18V333.27Zm57.28,0h56.77v16.46H658.46V333.27Zm57.27,0H772.5v16.46H715.73V333.27Zm57.27,0h56.77v16.46H773V333.27Zm57.27,0h56.78v16.46H830.27V333.27Zm57.28,0h56.77v16.46H887.55V333.27Zm57.27,0h56.77v16.46H944.82V333.27Zm-544.09-17H457.5v16.47H400.73V316.29Zm57.27,0h56.77v16.47H458V316.29Zm57.27,0h56.78v16.47H515.27V316.29Zm57.28,0h56.77v16.47H572.55V316.29Zm57.27,0h56.77v16.47H629.82V316.29Zm57.27,0h56.77v16.47H687.09V316.29Zm57.27,0h56.78v16.47H744.36V316.29Zm57.28,0h56.77v16.47H801.64V316.29Zm57.27,0h56.77v16.47H858.91V316.29Zm57.27,0H973v16.47H916.18V316.29Zm-544.09-17h56.77v16.46H372.09V299.33Zm57.27,0h56.78v16.46H429.36V299.33Zm57.28,0h56.77v16.46H486.64V299.33Zm57.27,0h56.77v16.46H543.91V299.33Zm57.27,0H658v16.46H601.18V299.33Zm57.28,0h56.77v16.46H658.46V299.33Zm57.27,0H772.5v16.46H715.73V299.33Zm57.27,0h56.77v16.46H773V299.33Zm57.27,0h56.78v16.46H830.27V299.33Zm57.28,0h56.77v16.46H887.55V299.33Zm57.27,0h56.77v16.46H944.82V299.33Zm-544.09-17H457.5v16.47H400.73V282.36Zm57.27,0h56.77v16.47H458V282.36Zm57.27,0h56.78v16.47H515.27V282.36Zm57.28,0h56.77v16.47H572.55V282.36Zm57.27,0h56.77v16.47H629.82V282.36Zm57.27,0h56.77v16.47H687.09V282.36Zm57.27,0h56.78v16.47H744.36V282.36Zm57.28,0h56.77v16.47H801.64V282.36Zm57.27,0h56.77v16.47H858.91V282.36Zm57.27,0H973v16.47H916.18V282.36Zm-544.09-17h56.77v16.47H372.09V265.39Zm57.27,0h56.78v16.47H429.36V265.39Zm57.28,0h56.77v16.47H486.64V265.39Zm57.27,0h56.77v16.47H543.91V265.39Zm57.27,0H658v16.47H601.18V265.39Zm57.28,0h56.77v16.47H658.46V265.39Zm57.27,0H772.5v16.47H715.73V265.39Zm57.27,0h56.77v16.47H773V265.39Zm57.27,0h56.78v16.47H830.27V265.39Zm57.28,0h56.77v16.47H887.55V265.39Zm57.27,0h56.77v16.47H944.82V265.39Zm-544.09-17H457.5v16.47H400.73V248.42Zm57.27,0h56.77v16.47H458V248.42Zm57.27,0h56.78v16.47H515.27V248.42Zm57.28,0h56.77v16.47H572.55V248.42Zm57.27,0h56.77v16.47H629.82V248.42Zm57.27,0h56.77v16.47H687.09V248.42Zm57.27,0h56.78v16.47H744.36V248.42Zm57.28,0h56.77v16.47H801.64V248.42Zm57.27,0h56.77v16.47H858.91V248.42Zm57.27,0H973v16.47H916.18V248.42Zm-544.09-17h56.77v16.47H372.09V231.45Zm57.27,0h56.78v16.47H429.36V231.45Zm57.28,0h56.77v16.47H486.64V231.45Zm57.27,0h56.77v16.47H543.91V231.45Zm57.27,0H658v16.47H601.18V231.45Zm57.28,0h56.77v16.47H658.46V231.45Zm57.27,0H772.5v16.47H715.73V231.45Zm57.27,0h56.77v16.47H773V231.45Zm57.27,0h56.78v16.47H830.27V231.45Zm57.28,0h56.77v16.47H887.55V231.45Zm57.27,0h56.77v16.47H944.82V231.45Zm-544.09-17H457.5V231H400.73V214.48Zm57.27,0h56.77V231H458V214.48Zm57.27,0h56.78V231H515.27V214.48Zm57.28,0h56.77V231H572.55V214.48Zm57.27,0h56.77V231H629.82V214.48Zm57.27,0h56.77V231H687.09V214.48Zm57.27,0h56.78V231H744.36V214.48Zm57.28,0h56.77V231H801.64V214.48Zm57.27,0h56.77V231H858.91V214.48Zm57.27,0H973V231H916.18V214.48Zm-544.09-17h56.77V214H372.09V197.51Zm57.27,0h56.78V214H429.36V197.51Zm57.28,0h56.77V214H486.64V197.51Zm57.27,0h56.77V214H543.91V197.51Zm57.27,0H658V214H601.18V197.51Zm57.28,0h56.77V214H658.46V197.51Zm57.27,0H772.5V214H715.73V197.51Zm57.27,0h56.77V214H773V197.51Zm57.27,0h56.78V214H830.27V197.51Zm57.28,0h56.77V214H887.55V197.51Zm57.27,0h56.77V214H944.82V197.51Zm-544.09-17H457.5V197H400.73V180.54Zm57.27,0h56.77V197H458V180.54Zm57.27,0h56.78V197H515.27V180.54Zm57.28,0h56.77V197H572.55V180.54Zm57.27,0h56.77V197H629.82V180.54Zm57.27,0h56.77V197H687.09V180.54Zm57.27,0h56.78V197H744.36V180.54Zm57.28,0h56.77V197H801.64V180.54Zm57.27,0h56.77V197H858.91V180.54Zm57.27,0H973V197H916.18V180.54Zm-544.09-17h56.77V180H372.09V163.57Zm57.27,0h56.78V180H429.36V163.57Zm57.28,0h56.77V180H486.64V163.57Zm57.27,0h56.77V180H543.91V163.57Zm57.27,0H658V180H601.18V163.57Zm57.28,0h56.77V180H658.46V163.57Zm57.27,0H772.5V180H715.73V163.57Zm57.27,0h56.77V180H773V163.57Zm57.27,0h56.78V180H830.27V163.57Zm57.28,0h56.77V180H887.55V163.57Zm57.27,0h56.77V180H944.82V163.57Zm-544.09-17H457.5v16.47H400.73V146.6Zm57.27,0h56.77v16.47H458V146.6Zm57.27,0h56.78v16.47H515.27V146.6Zm57.28,0h56.77v16.47H572.55V146.6Zm57.27,0h56.77v16.47H629.82V146.6Zm57.27,0h56.77v16.47H687.09V146.6Zm57.27,0h56.78v16.47H744.36V146.6Zm57.28,0h56.77v16.47H801.64V146.6Zm57.27,0h56.77v16.47H858.91V146.6Zm57.27,0H973v16.47H916.18V146.6Zm-544.09-17h56.77V146.1H372.09V129.63Zm57.27,0h56.78V146.1H429.36V129.63Zm57.28,0h56.77V146.1H486.64V129.63Zm57.27,0h56.77V146.1H543.91V129.63Zm57.27,0H658V146.1H601.18V129.63Zm57.28,0h56.77V146.1H658.46V129.63Zm57.27,0H772.5V146.1H715.73V129.63Zm57.27,0h56.77V146.1H773V129.63Zm57.27,0h56.78V146.1H830.27V129.63Zm57.28,0h56.77V146.1H887.55V129.63Zm57.27,0h56.77V146.1H944.82V129.63Zm-544.09-17H457.5v16.47H400.73V112.66Zm57.27,0h56.77v16.47H458V112.66Zm57.27,0h56.78v16.47H515.27V112.66Zm57.28,0h56.77v16.47H572.55V112.66Zm57.27,0h56.77v16.47H629.82V112.66Zm57.27,0h56.77v16.47H687.09V112.66Zm57.27,0h56.78v16.47H744.36V112.66Zm57.28,0h56.77v16.47H801.64V112.66Zm57.27,0h56.77v16.47H858.91V112.66Zm57.27,0H973v16.47H916.18V112.66Zm-544.09-17h56.77v16.47H372.09V95.69Zm57.27,0h56.78v16.47H429.36V95.69Zm57.28,0h56.77v16.47H486.64V95.69Zm57.27,0h56.77v16.47H543.91V95.69Zm57.27,0H658v16.47H601.18V95.69Zm57.28,0h56.77v16.47H658.46V95.69Zm57.27,0H772.5v16.47H715.73V95.69Zm57.27,0h56.77v16.47H773V95.69Zm57.27,0h56.78v16.47H830.27V95.69Zm57.28,0h56.77v16.47H887.55V95.69Zm57.27,0h56.77v16.47H944.82V95.69Zm-544.09-17H457.5V95.19H400.73V78.72Zm57.27,0h56.77V95.19H458V78.72Zm57.27,0h56.78V95.19H515.27V78.72Zm57.28,0h56.77V95.19H572.55V78.72Zm57.27,0h56.77V95.19H629.82V78.72Zm57.27,0h56.77V95.19H687.09V78.72Zm57.27,0h56.78V95.19H744.36V78.72Zm57.28,0h56.77V95.19H801.64V78.72Zm57.27,0h56.77V95.19H858.91V78.72Zm57.27,0H973V95.19H916.18V78.72Zm-544.09-17h56.77V78.22H372.09V61.75Zm57.27,0h56.78V78.22H429.36V61.75Zm57.28,0h56.77V78.22H486.64V61.75Zm57.27,0h56.77V78.22H543.91V61.75Zm57.27,0H658V78.22H601.18V61.75Zm57.28,0h56.77V78.22H658.46V61.75Zm57.27,0H772.5V78.22H715.73V61.75Zm57.27,0h56.77V78.22H773V61.75Zm57.27,0h56.78V78.22H830.27V61.75Zm57.28,0h56.77V78.22H887.55V61.75Zm57.27,0h56.77V78.22H944.82V61.75Zm-544.09-17H457.5V61.25H400.73V44.78Zm57.27,0h56.77V61.25H458V44.78Zm57.27,0h56.78V61.25H515.27V44.78Zm57.28,0h56.77V61.25H572.55V44.78Zm57.27,0h56.77V61.25H629.82V44.78Zm57.27,0h56.77V61.25H687.09V44.78Zm57.27,0h56.78V61.25H744.36V44.78Zm57.28,0h56.77V61.25H801.64V44.78Zm57.27,0h56.77V61.25H858.91V44.78Zm57.27,0H973V61.25H916.18V44.78Zm-544.09-17h56.77V44.28H372.09V27.81Zm57.27,0h56.78V44.28H429.36V27.81Zm57.28,0h56.77V44.28H486.64V27.81Zm57.27,0h56.77V44.28H543.91V27.81Zm57.27,0H658V44.28H601.18V27.81Zm57.28,0h56.77V44.28H658.46V27.81Zm57.27,0H772.5V44.28H715.73V27.81Zm57.27,0h56.77V44.28H773V27.81Zm57.27,0h56.78V44.28H830.27V27.81Zm57.28,0h56.77V44.28H887.55V27.81Zm57.27,0h56.77V44.28H944.82V27.81Zm-544.09-17H457.5V27.31H400.73V10.84Zm57.27,0h56.77V27.31H458V10.84Zm57.27,0h56.78V27.31H515.27V10.84Zm57.28,0h56.77V27.31H572.55V10.84Zm57.27,0h56.77V27.31H629.82V10.84Zm57.27,0h56.77V27.31H687.09V10.84Zm57.27,0h56.78V27.31H744.36V10.84Zm57.28,0h56.77V27.31H801.64V10.84Zm57.27,0h56.77V27.31H858.91V10.84Zm57.27,0H973V27.31H916.18Z" transform="translate(-354.78 -0.95)"/></g><path class="cls-5" d="M975.37,429A35.44,35.44,0,0,0,940,464.34h0a64.68,64.68,0,0,1-64.49,64.49H442a84,84,0,0,1-83.77-83.77h0a83.21,83.21,0,0,1,15.7-48.68h640.82C1011.6,413.72,998.48,429,975.37,429Z" transform="translate(-354.78 -0.95)"/><path class="cls-4" d="M364.53,413.24a84.37,84.37,0,0,1,20-29h630.76a44.21,44.21,0,0,1-7.51,29Z" transform="translate(-354.78 -0.95)"/><path class="cls-6" d="M801.47,285.48a.48.48,0,1,1,.69-.66c.13.13,44.7,46-6.35,97a.48.48,0,0,1-.68-.68C845.52,330.78,801.59,285.61,801.47,285.48Z" transform="translate(-354.78 -0.95)"/><path class="cls-6" d="M797.37,215.62c-23.76,19.82-12.19,56.1,7.1,75.23,22.32,22.12,30.43,57.53-9.12,84.57s21.8,49.66,45.64,19.67,32.6-102.82,30.94-121-1-26.06-14.71-33.93S797.37,215.62,797.37,215.62Z" transform="translate(-354.78 -0.95)"/><path class="cls-7" d="M738,343.48s-3.42-4.57-4.12-5.27-5.26-.82-8-1-3.23,2.28-3.29,3.3-.19,2.28-.19,2.28-15.7,1.3-16.84,1.55-2.66,4.63-3,5.52.29,2.91,1.46,3a3.89,3.89,0,0,0,3.14-1.37c.47-.76.89.29.89.29a9.66,9.66,0,0,0-1.27,3.49c-.07,1.45.25,2.22,1.42,2.72a17.86,17.86,0,0,0,3,.86,12.56,12.56,0,0,0,.47,3.29c.41.89.54,1.27,2.35,1.81s8.17,2,8.17,2Z" transform="translate(-354.78 -0.95)"/><path class="cls-8" d="M711.22,359.23a.38.38,0,0,1,.11-.76l3.06.49a.39.39,0,0,1,.32.44.38.38,0,0,1-.44.31Z" transform="translate(-354.78 -0.95)"/><path class="cls-6" d="M876.64,497.3s-4.06,31.53-30.43,31.53H816.54c-10.9,0-36-28-55.28-52.32s-28.42-41.59-28.42-41.59c-4.66,7.93-54.49,47.7-66.15,58.07-2.28,2-12.19,13.56-14,13.56,0,0-13.19.89-23.08-6,0,0,3.15-13.38,3.8-14.19,29.67-37,62.71-78.71,79.09-95.28s33.18-7.43,71.22,19.45S876.64,497.3,876.64,497.3Z" transform="translate(-354.78 -0.95)"/><path class="cls-6" d="M699.54,334.77l.92-1a1.93,1.93,0,0,1,2.72-.1l28.49,26.47a1.94,1.94,0,0,1,.09,2.72l-.92,1a1.92,1.92,0,0,1-2.71.1l-28.49-26.47A1.94,1.94,0,0,1,699.54,334.77Z" transform="translate(-354.78 -0.95)"/><path class="cls-9" d="M760.34,358.59s-3.48-1.59-4.68-2.35-10.46-12.49-11.66-13-9.58-1.39-10.78-1.39a4.61,4.61,0,0,0-3.55,2.41,50.17,50.17,0,0,0-1.52,4.88l-15.55.39-3.55-3.3a4.37,4.37,0,0,0-1.82,1.18c-.51.73-.54,2.91-.48,4s2.12,3.84,2.7,4.44a6.12,6.12,0,0,0,3,1.11s0,2.63,2.12,3.52,4.78,2.06,4.78,2.06a4.49,4.49,0,0,0,1.71,3.23c1.59,1,5.84,4.25,5.84,4.25a7.68,7.68,0,0,0,2.53.54s1.21,2.56,3.17,3.39,9.07,3.93,10.08,4.18,5-.46,8.82,1.77a33.07,33.07,0,0,0,4.37,2.35l7.23-19.9Z" transform="translate(-354.78 -0.95)"/><path class="cls-10" d="M633.65,526s-58.69,1.4-61-2.8V517.6c0-2.24,2.68-5.46,10-7.56s22.86-6.15,27.64-7.62,18.49-16.44,20.43-18.25,11,4.05,13,5,.65,3.36-.32,6.16S633.65,526,633.65,526Z" transform="translate(-354.78 -0.95)"/><path class="cls-11" d="M572.69,528.83h93.88c1.11,0,2-.52,2-1.15v-3.33c0-.64-.91-1.16-2-1.16H572.69c-1.11,0-2,.52-2,1.16v3.33C570.67,528.31,571.58,528.83,572.69,528.83Z" transform="translate(-354.78 -0.95)"/><path class="cls-12" d="M572.69,528.83h31.9c1.11,0,2-.52,2-1.15v-3.33c0-.64-.91-1.16-2-1.16h-31.9c-1.12,0-2,.52-2,1.16v3.33C570.66,528.31,571.57,528.83,572.69,528.83Z" transform="translate(-354.78 -0.95)"/><path class="cls-10" d="M614.2,504.24c.32,1,3.24,5.87,1.21,7.06s-8.51,5.46-12.16,5.46h-21c-9.65,0-7.42-2.91-7.42-2.91a5.29,5.29,0,0,0-2.15,3.75v5.59h93.87s4-4,4-13.36.52-14.75-1.06-16.26-2.67-.73-2.67-.73c-7.3,5.45-16.14,1.53-20.76-.63-.49-.23-.95-.47-1.4-.69-3.75-1.94-6-3.66-9.38-2-3.73,1.82-16.86,9.86-19,11.12S613.87,503.26,614.2,504.24Z" transform="translate(-354.78 -0.95)"/><path class="cls-13" d="M572.69,519v4.21h93.87s4-4,4-13.36.52-14.75-1.06-16.26c.21,3-1.63,6.37-4.88,6.37H645.9c-6.87,0-8.25,3.17-8.25,3.17s-3.47,5.92-6,10.1-6.66,7-9.71,7H576.84A5.94,5.94,0,0,1,572.69,519Z" transform="translate(-354.78 -0.95)"/><path class="cls-14" d="M634.25,491.68a.79.79,0,0,0,1.09-.12.75.75,0,0,0-.31-1l-5.9-3.8-.27-.68-1.28,1.31.27.18,2.42,6a1,1,0,0,0,1,.56.61.61,0,0,0,.45-.86L630,489l4.23,2.73Zm-17,5.83c.39-.34.78-.7,1.18-1.06l1.68,4.19a.6.6,0,0,1-.46.85.94.94,0,0,1-1-.56l-1.38-3.42Zm1.23-1.11,4.13,2.66a.8.8,0,0,0,1.08-.12.73.73,0,0,0-.3-1l-3.87-2.49-1,1Zm4.08-3.89,1.56-1.56,5.11,3.29a.73.73,0,0,1,.3,1,.79.79,0,0,1-1.08.12l-4.23-2.73,1.73,4.31a.6.6,0,0,1-.46.85.93.93,0,0,1-1-.55Z" transform="translate(-354.78 -0.95)"/><path class="cls-15" d="M769,361.78l-6.1-3.48a3.6,3.6,0,0,0-2.15.13s-1.52,15.59-8.81,21.49a1.89,1.89,0,0,0,.35,1.52c.53.51,7.07,5.06,7.07,5.06a7.94,7.94,0,0,0,5.26-1.16c2.53-1.65,8.24-12.62,8.11-14S769,361.78,769,361.78Z" transform="translate(-354.78 -0.95)"/><path class="cls-16" d="M893.34,497.3s-4.06,31.53-30.43,31.53H833.24c-10.9,0-36-28-55.28-52.32s-28.42-41.59-28.42-41.59c-4.67,7.93-54.49,47.7-66.15,58.07-2.28,2-12.19,13.56-14,13.56,0,0-13.19.89-23.08-6,0,0,3.15-13.38,3.8-14.19,29.67-37,62.71-78.71,79.09-95.28s33.18-7.43,71.22,19.45S893.34,497.3,893.34,497.3Z" transform="translate(-354.78 -0.95)"/><path class="cls-15" d="M835.78,338.05l-2.61-2.21S818.79,367,815.75,384.71s10.39,15.73,10.39,15.73,9.64-5.58,9.89-12.68S835.78,338.05,835.78,338.05Z" transform="translate(-354.78 -0.95)"/><path class="cls-9" d="M850.5,232.17s14.08,22.26,35.29,31.28c0,0,2.43,15.43-8.11,22s-26.74,1.25-26.74,1.25L840.25,271Z" transform="translate(-354.78 -0.95)"/><path class="cls-7" d="M842.77,274.67l-1.69-2.48c1.45-5.91,3.94-16.24,3.94-16.95,0-1,6.72-10.66,6.72-10.66l5.46.13-.13,21.43Z" transform="translate(-354.78 -0.95)"/><path class="cls-17" d="M902.62,301.8s40.57,72.13,4,180.55c0,0-3.8,9.64-3.29,17.75S876,512.53,863.56,491s-4-20.79-17.75-34.23-35.25-29.92-35.25-29.92,5.83-10.65,17.5-12.68c0,0,0-6.85,3.93-8.25,0,0-6.47-23.32-6-39.3s9.63-43.36,25.1-63.65c0,0,1.9-6-.51-10.52s-2.79-6.34-1.65-8.62a15.7,15.7,0,0,0,8.37-2.79c3.8-2.79,13.31-3.05,13.31-3.05Z" transform="translate(-354.78 -0.95)"/><path class="cls-15" d="M889.54,506.72a30.85,30.85,0,0,1-26-15.75c-12.42-21.55-4-20.79-17.75-34.23s-35.25-29.92-35.25-29.92,5.83-10.65,17.5-12.68c0,0,0-6.85,3.93-8.25l-.1-.34,30.64,10.77L895,368.65l5.35,14.63S878.26,450.81,873.69,465C869.55,477.91,868.75,496.25,889.54,506.72Z" transform="translate(-354.78 -0.95)"/><path class="cls-17" d="M854,340.1c-7.17,26.08-5.32,54-5.32,54s-2.6-1.46-2.79,2.41c-11.61-13-37.52-10.67-61.69-35-4.71-4.75-15.21.26-15.21.26a28.17,28.17,0,0,1-9.64,24.72s-4.06,14.71,19.52,27.9,48.44,17,62.13,26.62,24.85,7.86,33-.76,35.76-69.22,32.46-92.05C901,310.33,861.17,314,854,340.1Z" transform="translate(-354.78 -0.95)"/><path class="cls-18" d="M850,360.85c-.32,2.61-.58,5.16-.79,7.61,9.74,1.22,30.47,4.75,51.35,14.2.8-2.5,1.55-5,2.22-7.39C881.24,365.72,860,362.11,850,360.85Zm-1.25,14.52a195,195,0,0,1,49.64,13.75c-.84,2.4-1.72,4.81-2.63,7.19a185.92,185.92,0,0,0-47.25-13.25C848.51,380.76,848.58,378.18,848.72,375.37Z" transform="translate(-354.78 -0.95)"/><path class="cls-9" d="M800.43,215.81s-7.47,6.55-2.3,20.4,8.9,19.41,3.94,25.74a1.54,1.54,0,0,0,.26,1.88c.89.74,4.11,2,5.95,3s8.48,10.93,12.53,14,13,.64,20.42-8,13.34-30,10.75-38.47S815.31,212.49,800.43,215.81Z" transform="translate(-354.78 -0.95)"/><path class="cls-16" d="M831.69,235.77s-14.27,5.31-26.91-2.84-17.37-20.16-6.38-30.83,37-24.53,59.13-8.78S869.05,232.9,902,246.9c17.37,7.39,30.94,12.43,39.75,21.87,47.43,50.84-44.56,125.44-76.74,57.58C843.8,281.72,868,245.08,831.69,235.77Z" transform="translate(-354.78 -0.95)"/><path class="cls-14" d="M650.35,526s-58.69,1.4-61-2.8V517.6c0-2.24,2.68-5.46,10-7.56s22.86-6.15,27.64-7.62,18.49-16.44,20.43-18.25,11,4.05,13,5,.65,3.36-.32,6.16S650.35,526,650.35,526Z" transform="translate(-354.78 -0.95)"/><path class="cls-19" d="M589.39,528.83h93.88c1.11,0,2-.52,2-1.15v-3.33c0-.64-.91-1.16-2-1.16H589.39c-1.11,0-2,.52-2,1.16v3.33C587.37,528.31,588.28,528.83,589.39,528.83Z" transform="translate(-354.78 -0.95)"/><path class="cls-18" d="M589.39,528.83h31.9c1.11,0,2-.52,2-1.15v-3.33c0-.64-.91-1.16-2-1.16h-31.9c-1.12,0-2,.52-2,1.16v3.33C587.37,528.31,588.27,528.83,589.39,528.83Z" transform="translate(-354.78 -0.95)"/><path class="cls-13" d="M630.9,504.24c.32,1,3.24,5.87,1.21,7.06s-8.51,5.46-12.16,5.46H599c-9.65,0-7.42-2.91-7.42-2.91a5.29,5.29,0,0,0-2.15,3.75v5.59h93.87s4-4,4-13.36.52-14.75-1.06-16.26-2.67-.73-2.67-.73c-7.3,5.45-16.14,1.53-20.76-.63-.49-.23-1-.47-1.4-.69-3.75-1.94-6.05-3.66-9.38-2-3.73,1.82-16.86,9.86-19,11.12S630.57,503.26,630.9,504.24Z" transform="translate(-354.78 -0.95)"/><path class="cls-20" d="M589.39,519v4.21h93.87s4-4,4-13.36.52-14.75-1.06-16.26c.21,3-1.63,6.37-4.88,6.37H662.6c-6.87,0-8.25,3.17-8.25,3.17s-3.47,5.92-6,10.1-6.66,7-9.71,7H593.54A5.94,5.94,0,0,1,589.39,519Z" transform="translate(-354.78 -0.95)"/><path class="cls-18" d="M651,491.68a.79.79,0,0,0,1.09-.12.75.75,0,0,0-.31-1l-5.9-3.8-.27-.68-1.28,1.31.27.18,2.42,6a1,1,0,0,0,1,.56.61.61,0,0,0,.46-.86L646.72,489l4.23,2.73Zm-17,5.83c.39-.34.78-.7,1.18-1.06l1.68,4.19a.6.6,0,0,1-.46.85.94.94,0,0,1-1-.56l-1.38-3.42Zm1.23-1.11,4.13,2.66a.8.8,0,0,0,1.08-.12.73.73,0,0,0-.3-1l-3.87-2.49-1,1Zm4.08-3.89,1.56-1.56,5.11,3.29a.75.75,0,0,1,.31,1,.8.8,0,0,1-1.09.12l-4.23-2.73,1.73,4.31a.6.6,0,0,1-.46.85.93.93,0,0,1-1-.55Z" transform="translate(-354.78 -0.95)"/><path class="cls-8" d="M722.05,342.73a.38.38,0,0,1,.76.1s-.27,1.93-.32,2.54a1.27,1.27,0,0,0,1.14,1.45,1.66,1.66,0,0,0,.56,0,5.53,5.53,0,0,0,2.7-1.07,5.4,5.4,0,0,0,2.13-3.38,8.33,8.33,0,0,0,.11-2.44.38.38,0,0,1,.76-.07,9.17,9.17,0,0,1-.12,2.67,6.24,6.24,0,0,1-2.42,3.84,6.54,6.54,0,0,1-3.09,1.22,3.79,3.79,0,0,1-.78,0,2.2,2.2,0,0,1-1.34-.78,2.14,2.14,0,0,1-.41-1.49C721.78,344.73,722.05,342.74,722.05,342.73Z" transform="translate(-354.78 -0.95)"/><path class="cls-8" d="M729.26,343.65a.37.37,0,0,1-.46-.28.38.38,0,0,1,.28-.46,2.68,2.68,0,0,0,1.77-2,.38.38,0,0,1,.47-.28.37.37,0,0,1,.27.46A3.44,3.44,0,0,1,729.26,343.65Z" transform="translate(-354.78 -0.95)"/><path class="cls-7" d="M728.15,349.52a.4.4,0,0,1-.39-.38.38.38,0,0,1,.38-.38l8.48-.07a.38.38,0,1,1,0,.76Z" transform="translate(-354.78 -0.95)"/><path class="cls-7" d="M733.4,348.74a.38.38,0,1,1-.27.71,4.34,4.34,0,0,1-2.51-2.75.38.38,0,0,1,.73-.21A3.58,3.58,0,0,0,733.4,348.74Z" transform="translate(-354.78 -0.95)"/><path class="cls-7" d="M712.46,357.36a.38.38,0,1,1,.06-.76l9.14.71a.37.37,0,0,1,.35.41.38.38,0,0,1-.41.35Z" transform="translate(-354.78 -0.95)"/><path class="cls-7" d="M719.25,362.91a.38.38,0,1,1,.29-.7l5.15,2.13a.38.38,0,0,1-.29.71Z" transform="translate(-354.78 -0.95)"/><path class="cls-7" d="M729.49,371a.39.39,0,0,1-.4-.37.37.37,0,0,1,.37-.39l2-.09a.37.37,0,0,1,.39.37.37.37,0,0,1-.36.39Z" transform="translate(-354.78 -0.95)"/><path class="cls-16" d="M703.59,337.83l.22-.23a.47.47,0,0,1,.64,0l6.68,6.22a.44.44,0,0,1,0,.63l-.22.24a.46.46,0,0,1-.64,0l-6.68-6.21A.47.47,0,0,1,703.59,337.83Z" transform="translate(-354.78 -0.95)"/><path class="cls-6" d="M857.75,478.3a.47.47,0,0,1,.3.6.48.48,0,0,1-.61.3,26,26,0,0,1-4-1.82,33.12,33.12,0,0,1-4.07-2.69c-16.91-12.87-85-67.17-86-67.95-.65-.36-9.13-4.93-16.94.51-8.33,5.81-75.3,80.1-75.49,80.31a.47.47,0,0,1-.67,0,.49.49,0,0,1,0-.68c.2-.21,67.24-74.59,75.65-80.45s17.38-.89,18-.55a.33.33,0,0,1,.1.06c.2.16,69,55,85.95,67.95a32.75,32.75,0,0,0,4,2.61A24.6,24.6,0,0,0,857.75,478.3Z" transform="translate(-354.78 -0.95)"/><path class="cls-6" d="M657.12,477.76a.48.48,0,0,1,.53-.8s16.39,10.73,20.8,18.1a.47.47,0,0,1-.17.65.47.47,0,0,1-.65-.16C673.34,488.37,657.17,477.79,657.12,477.76Z" transform="translate(-354.78 -0.95)"/><path class="cls-6" d="M749.76,436a.48.48,0,0,1-.63.25.47.47,0,0,1-.25-.62,31.43,31.43,0,0,0,2.41-11.2.48.48,0,1,1,1,0A32.43,32.43,0,0,1,749.76,436Z" transform="translate(-354.78 -0.95)"/><path class="cls-15" d="M758.89,386.39a.46.46,0,0,1,.57-.35.47.47,0,0,1,.35.58S755.85,401,779.1,414c11.82,6.6,24,10.85,34.85,14.66s20.46,7.16,27.33,12c6.47,4.56,12.36,6.53,17.6,6.41,5.67-.13,10.6-2.71,14.74-7.11,4.3-4.57,14.16-23.93,21.92-44.46,5.71-15.1,10.28-30.82,10.65-41.7a.48.48,0,1,1,1,0c-.38,11-5,26.82-10.71,42-7.81,20.64-17.76,40.15-22.13,44.79s-9.47,7.27-15.41,7.4c-5.44.13-11.52-1.89-18.18-6.58s-16.31-8.1-27.08-11.87c-10.93-3.82-23.12-8.08-35-14.73-23.91-13.36-19.77-28.38-19.75-28.42Zm90.25,7.53c-.13-2.27-1.53-28.79,5.32-53.7a.47.47,0,0,0-.33-.58.48.48,0,0,0-.59.33c-6.52,23.73-5.61,48.89-5.38,53.44-.86-.21-2.2-.14-2.63,2-5-5.14-12.4-7.8-21-10.92-11.91-4.31-26.23-9.5-40-23.33-5-5-15.73.14-15.76.15a.48.48,0,0,0,.41.87s10.2-4.86,14.67-.35c13.89,14,28.33,19.21,40.33,23.56,8.88,3.22,16.42,5.95,21.31,11.38a11.38,11.38,0,0,1,1.44,3.46.48.48,0,0,0,.94-.21,12.29,12.29,0,0,0-1.51-3.66c.19-2.6,1.69-2,2-1.9a8.59,8.59,0,0,1,1.52,2.37.48.48,0,0,0,.92-.25A8.85,8.85,0,0,0,849.14,393.92Z" transform="translate(-354.78 -0.95)"/><path class="cls-7" d="M820.55,250.79a5.83,5.83,0,1,0,7.37,3.7A5.83,5.83,0,0,0,820.55,250.79Z" transform="translate(-354.78 -0.95)"/><path class="cls-6" d="M812.19,240.26a6.46,6.46,0,0,0-5.75,2,.93.93,0,0,1-1.29.12.92.92,0,0,1-.12-1.29,8.36,8.36,0,0,1,7.38-2.64.92.92,0,0,1,.8,1A.93.93,0,0,1,812.19,240.26Z" transform="translate(-354.78 -0.95)"/><path class="cls-6" d="M810.61,245.27h0a2.09,2.09,0,0,1,1.46,0,.87.87,0,0,0,.4-.62.36.36,0,0,1,.39-.29.36.36,0,0,1,.3.39,1.57,1.57,0,0,1-.44.86h0a1.57,1.57,0,0,0,.66-.81.34.34,0,0,1,.65.23,2.2,2.2,0,0,1-.72,1h0a2.2,2.2,0,0,0,.86-.65.34.34,0,0,1,.54.42,2.82,2.82,0,0,1-.87.74l-.43.22.86,2.46A2.17,2.17,0,0,1,813,252h0a2.18,2.18,0,0,1-2.76-1.32l-.94-2.66A2.16,2.16,0,0,1,810.61,245.27Z" transform="translate(-354.78 -0.95)"/><path class="cls-16" d="M793.75,218.31a.49.49,0,0,1,.4-.55.48.48,0,0,1,.55.4c0,.08,4.33,29.22,36.13,18a.49.49,0,0,1,.61.3.48.48,0,0,1-.29.61C798.26,248.67,793.77,218.39,793.75,218.31Z" transform="translate(-354.78 -0.95)"/><path class="cls-9" d="M830.44,238.48c.8-16.13,22.24-2.84,10.11,10A11.45,11.45,0,0,1,830.44,238.48Z" transform="translate(-354.78 -0.95)"/><path class="cls-7" d="M830.91,238.5a.48.48,0,0,1-.95-.05c.2-4.15,1.75-6.47,3.78-7.4a6.44,6.44,0,0,1,5.76.47,10.15,10.15,0,0,1,4.45,4.93c1.46,3.42,1.13,7.93-3.06,12.37a.47.47,0,0,1-.67,0,.47.47,0,0,1,0-.68c3.87-4.1,4.2-8.23,2.87-11.34a9.17,9.17,0,0,0-4-4.46,5.54,5.54,0,0,0-4.91-.44C832.42,232.71,831.1,234.76,830.91,238.5Z" transform="translate(-354.78 -0.95)"/><path class="cls-16" d="M868.83,208.37a.47.47,0,0,1,.25-.63.49.49,0,0,1,.63.26c0,.07,9.2,22.05,23.26,30.84a151.34,151.34,0,0,0,15.39,7.94c11.52,5.41,23,10.79,26.14,19a.48.48,0,1,1-.89.34c-3-7.9-14.31-13.2-25.65-18.53a150.25,150.25,0,0,1-15.49-8C878.14,230.7,868.85,208.43,868.83,208.37Z" transform="translate(-354.78 -0.95)"/><path class="cls-21" d="M795.08,206a23.47,23.47,0,0,1,3.32-3.94,56,56,0,0,1,8.22-6.51c19.11,21.51,47.2,18.85,64.44,14.38.53,1.12,1,2.25,1.53,3.38C824.32,231.38,803.25,216.35,795.08,206Z" transform="translate(-354.78 -0.95)"/><path class="cls-14" d="M698.11,297.36h28.68a4.08,4.08,0,0,1,4.07,4.07V319a4.08,4.08,0,0,1-4.07,4.07h-9.54l-3.75,6.08a.83.83,0,0,1-.73.4.85.85,0,0,1-.73-.4l-3.75-6.08H698.11A4.09,4.09,0,0,1,694,319v-17.6A4.09,4.09,0,0,1,698.11,297.36Z" transform="translate(-354.78 -0.95)"/><path class="cls-18" d="M705.58,305.31h0a3.89,3.89,0,0,1,5.49,0l1.38,1.37,1.37-1.37a3.89,3.89,0,0,1,5.49,0h0a3.89,3.89,0,0,1,0,5.49l-1.37,1.38-5.49,5.49-5.5-5.49h0l-1.37-1.38A3.89,3.89,0,0,1,705.58,305.31Z" transform="translate(-354.78 -0.95)"/><path class="cls-14" d="M726.54,254.91h37a5.28,5.28,0,0,1,5.25,5.26v22.69a5.28,5.28,0,0,1-5.25,5.25H751.23l-4.84,7.82a1.1,1.1,0,0,1-1.88,0l-4.84-7.82H726.54a5.27,5.27,0,0,1-5.25-5.25V260.17A5.27,5.27,0,0,1,726.54,254.91Z" transform="translate(-354.78 -0.95)"/><path class="cls-18" d="M736.18,265.17h0a5,5,0,0,1,7.08,0l1.77,1.77,1.77-1.77a5,5,0,0,1,7.08,0h0a5,5,0,0,1,0,7.08L752.11,274,745,281.1,738,274h0l-1.77-1.77A5,5,0,0,1,736.18,265.17Z" transform="translate(-354.78 -0.95)"/><path class="cls-14" d="M663.39,266.44h27.05a3.86,3.86,0,0,1,3.84,3.85v16.6a3.85,3.85,0,0,1-3.84,3.84h-9l-3.54,5.73a.8.8,0,0,1-.69.38.81.81,0,0,1-.69-.38L673,290.73h-9.6a3.85,3.85,0,0,1-3.84-3.84v-16.6A3.86,3.86,0,0,1,663.39,266.44Z" transform="translate(-354.78 -0.95)"/><path class="cls-18" d="M670.44,274h0a3.66,3.66,0,0,1,5.18,0l1.29,1.29,1.3-1.29a3.66,3.66,0,0,1,5.18,0h0a3.68,3.68,0,0,1,0,5.18l-1.3,1.29-5.18,5.18-5.18-5.18h0l-1.29-1.29A3.66,3.66,0,0,1,670.44,274Z" transform="translate(-354.78 -0.95)"/><path class="cls-14" d="M671.76,185.3h64.07a9.13,9.13,0,0,1,9.1,9.1v39.31a9.13,9.13,0,0,1-9.1,9.1h-21.3l-8.38,13.56a1.91,1.91,0,0,1-3.26,0l-8.38-13.56H671.76a9.13,9.13,0,0,1-9.1-9.1V194.4A9.13,9.13,0,0,1,671.76,185.3Z" transform="translate(-354.78 -0.95)"/><path class="cls-18" d="M688.46,203.07h0a8.71,8.71,0,0,1,12.27,0l3.06,3.07,3.07-3.07a8.71,8.71,0,0,1,12.27,0h0a8.71,8.71,0,0,1,0,12.27l-3.07,3.06-12.27,12.27L691.53,218.4h0l-3.07-3.06A8.71,8.71,0,0,1,688.46,203.07Z" transform="translate(-354.78 -0.95)"/><path class="cls-22" d="M411.32,390.43c-21.28-9.35-24.66,14.83-15.2,33.9,6.4,12.9,29.45,45.94,45,74h17.72C452.76,455.86,433.32,400.09,411.32,390.43Z" transform="translate(-354.78 -0.95)"/><path class="cls-23" d="M452.49,498.37c-15.11-51.51-49.91-100.05-50.05-100.25a.93.93,0,0,0-1.3-.22.94.94,0,0,0-.22,1.31c.14.2,34.57,48.24,49.64,99.16Z" transform="translate(-354.78 -0.95)"/><path class="cls-23" d="M456.29,314c21.47-21.38,36.12,5.73,33.13,33-2.83,25.82-27.61,114.44-24.64,151.71h-8.46C437.09,451,428.82,341.42,456.29,314Z" transform="translate(-354.78 -0.95)"/><path class="cls-22" d="M459.43,498.73c-17.84-75.31,10.81-179.47,10.9-179.83a1.24,1.24,0,0,1,1.47-.89,1.18,1.18,0,0,1,.84,1.46c-.1.35-28.78,104.64-10.76,179.26Z" transform="translate(-354.78 -0.95)"/><path class="cls-22" d="M509.12,361.33c22.5-10.92,26.81,14.78,17.25,35.57-7.92,17.24-41.7,67.85-55.13,100.66l-11.15-.38C461.33,451.22,482.56,374.22,509.12,361.33Z" transform="translate(-354.78 -0.95)"/><path class="cls-23" d="M464.16,497.32c10.22-61.85,54.52-127.91,54.68-128.15a1,1,0,1,1,1.66,1.1c-.16.24-44.17,65.87-54.35,127.12Z" transform="translate(-354.78 -0.95)"/><polygon class="cls-16" points="114.93 500.18 88.25 500.18 81.28 506.47 86.98 528.38 101.59 528.38 116.2 528.38 121.89 506.47 114.93 500.18"/><polygon class="cls-6" points="112.81 500.18 88.25 500.18 81.28 506.47 83.42 514.68 121.41 508.32 121.89 506.47 115.21 500.43 112.81 500.18"/><rect class="cls-24" x="79.08" y="492.02" width="45.03" height="14.44" rx="2.21"/><path class="cls-6" d="M394.31,528.83H979.37a11,11,0,0,1,11,10.95h0a11,11,0,0,1-11,10.94H942.43a6.11,6.11,0,0,0-6.08,6.09h0a6.1,6.1,0,0,0,6.08,6.08H956a7.62,7.62,0,0,1,7.6,7.6h0a7.62,7.62,0,0,1-7.6,7.6H419a7.62,7.62,0,0,1-7.61-7.6h0a7.62,7.62,0,0,1,7.61-7.6h10.64a6.1,6.1,0,0,0,6.08-6.08h0a6.1,6.1,0,0,0-6.08-6.09H394.31a11,11,0,0,1-10.94-10.94h0a11,11,0,0,1,10.94-10.95Zm5.7,49.26a7.32,7.32,0,0,0,7.3-7.3v-.6a7.32,7.32,0,0,0-7.3-7.3h0a7.31,7.31,0,0,0-7.29,7.3v.6a7.31,7.31,0,0,0,7.29,7.3Z" transform="translate(-354.78 -0.95)"/><path class="cls-18" d="M926,171a25.18,25.18,0,1,1-17.8,7.37A25.13,25.13,0,0,1,926,171Zm22.46,26.53H938.16a49.75,49.75,0,0,1-.85,8.16,30.48,30.48,0,0,1,7.54,2.76,22.45,22.45,0,0,0,3.59-10.92Zm-13,0h-8.14v6.91a50.39,50.39,0,0,1,7.35.71,46.45,46.45,0,0,0,.79-7.62Zm-10.83,0h-8.15a47.58,47.58,0,0,0,.8,7.62,50.39,50.39,0,0,1,7.35-.71v-6.91Zm-10.84,0H903.53a22.45,22.45,0,0,0,3.59,10.92,30.33,30.33,0,0,1,7.54-2.76,50.88,50.88,0,0,1-.86-8.16Zm-10.27-2.69H913.8a51.74,51.74,0,0,1,.64-6.93,29.79,29.79,0,0,1-7.91-3,22.36,22.36,0,0,0-3,10Zm13.54-6.38a48.48,48.48,0,0,0-.58,6.38h8.15v-5.64a50.67,50.67,0,0,1-7.57-.74Zm17.82,0a50.41,50.41,0,0,1-7.56.74v5.64h8.14a46.84,46.84,0,0,0-.58-6.38Zm3.27,6.38h10.28a22.48,22.48,0,0,0-3-10,30,30,0,0,1-7.92,3,48.65,48.65,0,0,1,.64,6.93Zm-10.83-20.91V186.5a47.55,47.55,0,0,0,7-.69,30.13,30.13,0,0,0-1.94-5.94c-1-2.1-2.72-5.08-5.11-6Zm0,33.2v11.31c2.39-.87,4.15-3.86,5.11-6a29.83,29.83,0,0,0,1.64-4.71,49.26,49.26,0,0,0-6.75-.64Zm-2.69,11.31V207.12a49.56,49.56,0,0,0-6.76.64,29.87,29.87,0,0,0,1.65,4.71c1,2.1,2.72,5.09,5.11,6Zm0-31.93V173.92c-2.39.87-4.16,3.85-5.11,6a30.83,30.83,0,0,0-1.95,5.94,47.82,47.82,0,0,0,7.06.69ZM908,182.62a27.18,27.18,0,0,0,6.93,2.64,33.42,33.42,0,0,1,2.13-6.5,19.68,19.68,0,0,1,2.49-4.16,22.48,22.48,0,0,0-9.5,5.66,21.8,21.8,0,0,0-2.05,2.36Zm29,2.64a27.18,27.18,0,0,0,6.93-2.64,23,23,0,0,0-2.05-2.36,22.54,22.54,0,0,0-9.5-5.66,20.11,20.11,0,0,1,2.49,4.16,33.42,33.42,0,0,1,2.13,6.5Zm6.22,25.36a28.55,28.55,0,0,0-6.51-2.32,33.13,33.13,0,0,1-1.84,5.29,19.78,19.78,0,0,1-2.49,4.15,22.43,22.43,0,0,0,9.5-5.66c.47-.47.91-1,1.34-1.46Zm-28-2.32a27.47,27.47,0,0,0-6.51,2.32c.42.5.87,1,1.34,1.46a22.37,22.37,0,0,0,9.5,5.66,19.37,19.37,0,0,1-2.49-4.15A33.13,33.13,0,0,1,915.25,208.3Z" transform="translate(-354.78 -0.95)"/><path class="cls-18" d="M435.76,275a11.18,11.18,0,0,1,4.48-4.66,7,7,0,0,0,3.38-4.54,29.41,29.41,0,0,0,.69-7.61,1.74,1.74,0,0,1,1.74-1.74h3a3,3,0,0,1,.89.14,6.43,6.43,0,0,1,3.24,3,11.26,11.26,0,0,1,1.41,5.53,12.68,12.68,0,0,1-.58,3.77c-.27.85-1,3.33-.66,4.17a1.46,1.46,0,0,0,.51.07h7.48a9.83,9.83,0,0,1,2.54.32,5.93,5.93,0,0,1,3,1.79,5.78,5.78,0,0,1,1.36,3.93,10,10,0,0,1-.27,2.25c1.08,2.78,1.3,6.24-.89,8.51.13,2.3-.43,4.81-2.38,6.21a7.35,7.35,0,0,1-7.2,5.34H443.78a11.56,11.56,0,0,1-6.59-2.68,4,4,0,0,1-1,1.75l-.06.05a3.85,3.85,0,0,1-2.66,1.06h-6.23a3.88,3.88,0,0,1-3.88-3.88v-19.7a3.88,3.88,0,0,1,1.16-2.76l.06-.05a3.84,3.84,0,0,1,2.66-1.07h6.23a3.84,3.84,0,0,1,2.32.78Zm1.57,19.35c1.57,1.58,4.21,3.66,6.45,3.66H457.5a4,4,0,0,0,4-3.33,1.74,1.74,0,0,1,.93-1.2c1.26-.63,1.3-2.72,1.12-3.88a1.74,1.74,0,0,1,.67-1.76c1.66-1.22,1.1-3.87.39-5.44a1.7,1.7,0,0,1-.15-1.27,7.48,7.48,0,0,0,.3-1.94,2.45,2.45,0,0,0-.49-1.64,2.7,2.7,0,0,0-1.3-.72,6.45,6.45,0,0,0-1.64-.19h-7.48a3.59,3.59,0,0,1-3.71-2.19c-.78-1.89-.05-4.72.53-6.57a9.12,9.12,0,0,0,.43-2.74,7.76,7.76,0,0,0-1-3.81,3.88,3.88,0,0,0-1.19-1.39h-1.17a27.22,27.22,0,0,1-.81,6.8,10.23,10.23,0,0,1-5.08,6.66c-2.58,1.39-4.12,4.77-4.56,7.57v13.38Zm-3.89-16.64h-6.23a.35.35,0,0,0-.24.08l0,0a.4.4,0,0,0-.12.27v19.7a.42.42,0,0,0,.12.28.4.4,0,0,0,.28.12h6.23a.35.35,0,0,0,.24-.08l0,0a.38.38,0,0,0,.12-.28v-19.7a.4.4,0,0,0-.12-.27A.36.36,0,0,0,433.44,277.69Z" transform="translate(-354.78 -0.95)"/><rect class="cls-25" x="181.8" y="189.81" width="10.62" height="10.62" rx="2.48"/><rect class="cls-26" x="201.45" y="189.81" width="10.62" height="10.62" rx="2.48"/><rect class="cls-26" x="221.09" y="189.81" width="10.62" height="10.62" rx="2.48"/><rect class="cls-26" x="240.74" y="189.81" width="10.62" height="10.62" rx="2.48"/><rect class="cls-25" x="260.38" y="189.81" width="10.62" height="10.62" rx="2.48"/><rect class="cls-26" x="280.03" y="189.81" width="10.62" height="10.62" rx="2.48"/><rect class="cls-26" x="221.8" y="168.39" width="10.62" height="10.62" rx="2.48"/><rect class="cls-25" x="241.45" y="168.39" width="10.62" height="10.62" rx="2.48"/><rect class="cls-26" x="261.09" y="168.39" width="10.62" height="10.62" rx="2.48"/><rect class="cls-25" x="240.74" y="212.81" width="10.62" height="10.62" rx="2.48"/><rect class="cls-26" x="260.38" y="212.81" width="10.62" height="10.62" rx="2.48"/><path class="cls-4" d="M732,488.78h0a6.12,6.12,0,0,1,8.63,0l.58.58.59-.58a6.1,6.1,0,0,1,8.62,0h0a6.12,6.12,0,0,1,0,8.61l-.59.59-8.62,8.62L732.62,498l-.59-.59A6.12,6.12,0,0,1,732,488.78Z" transform="translate(-354.78 -0.95)"/><circle class="cls-25" cx="584.43" cy="305.39" r="8.58" transform="translate(-84.04 884.46) rotate(-89.18)"/><path class="cls-18" d="M584.43,316.69h0a12.2,12.2,0,0,1,12.17,12.17v11.87a1.37,1.37,0,0,1-1.36,1.37H573.62a1.38,1.38,0,0,1-1.36-1.37V328.86A12.21,12.21,0,0,1,584.43,316.69Z" transform="translate(-354.78 -0.95)"/><path class="cls-4" d="M948.73,359.08h0a6.11,6.11,0,0,1,8.62,0l.58.58.59-.58a6.11,6.11,0,0,1,8.62,0h0a6.11,6.11,0,0,1,0,8.62l-.59.58-8.62,8.62-8.62-8.62-.58-.58A6.11,6.11,0,0,1,948.73,359.08Z" transform="translate(-354.78 -0.95)"/><path class="cls-4" d="M756,213.52h0a6.11,6.11,0,0,1,8.62,0l.58.59.59-.59a6.11,6.11,0,0,1,8.62,0h0a6.11,6.11,0,0,1,0,8.62l-.59.59-8.62,8.62-8.62-8.62-.58-.59A6.11,6.11,0,0,1,756,213.52Z" transform="translate(-354.78 -0.95)"/><path class="cls-4" d="M649,249.6h0a3.48,3.48,0,0,1,4.91,0l.33.33.34-.33a3.47,3.47,0,0,1,4.9,0h0a3.48,3.48,0,0,1,0,4.91l-.33.33-4.91,4.91-4.9-4.91-.34-.33A3.48,3.48,0,0,1,649,249.6Z" transform="translate(-354.78 -0.95)"/><path class="cls-4" d="M749,315.55h0a6.72,6.72,0,0,1,9.48,0l.64.64.64-.64a6.72,6.72,0,0,1,9.48,0h0a6.72,6.72,0,0,1,0,9.48l-.64.64-9.48,9.48-9.48-9.48L749,325A6.72,6.72,0,0,1,749,315.55Z" transform="translate(-354.78 -0.95)"/><path class="cls-25" d="M151.14,459.39h5.66a2.48,2.48,0,0,1,2.48,2.48v5.67a2.47,2.47,0,0,1-2.47,2.47h-5.67a2.48,2.48,0,0,1-2.48-2.48v-5.66A2.48,2.48,0,0,1,151.14,459.39Z"/><path class="cls-26" d="M170.79,459.39h5.66a2.48,2.48,0,0,1,2.48,2.48v5.66a2.47,2.47,0,0,1-2.47,2.47h-5.67a2.48,2.48,0,0,1-2.48-2.48v-5.66A2.48,2.48,0,0,1,170.79,459.39Z"/><path class="cls-26" d="M190.43,459.39h5.66a2.48,2.48,0,0,1,2.48,2.48v5.67A2.47,2.47,0,0,1,196.1,470h-5.67a2.47,2.47,0,0,1-2.47-2.47v-5.66A2.48,2.48,0,0,1,190.43,459.39Z"/><path class="cls-4" d="M564.86,471h5.66a2.49,2.49,0,0,0,2.48-2.48v-5.66a2.49,2.49,0,0,0-2.48-2.48h-5.66a2.48,2.48,0,0,0-2.48,2.48v5.66A2.48,2.48,0,0,0,564.86,471Z" transform="translate(-354.78 -0.95)"/><path class="cls-25" d="M229.72,459.39h5.67a2.48,2.48,0,0,1,2.48,2.48v5.67a2.47,2.47,0,0,1-2.47,2.47h-5.67a2.48,2.48,0,0,1-2.48-2.48v-5.66A2.48,2.48,0,0,1,229.72,459.39Z"/><path class="cls-26" d="M249.37,459.39H255a2.48,2.48,0,0,1,2.48,2.48v5.67A2.47,2.47,0,0,1,255,470h-5.67a2.48,2.48,0,0,1-2.48-2.48v-5.66A2.48,2.48,0,0,1,249.37,459.39Z"/><path class="cls-26" d="M191.14,438h5.67a2.48,2.48,0,0,1,2.48,2.48v5.66a2.48,2.48,0,0,1-2.48,2.48h-5.66a2.48,2.48,0,0,1-2.48-2.48v-5.67A2.47,2.47,0,0,1,191.14,438Z"/><path class="cls-25" d="M210.79,438h5.67a2.48,2.48,0,0,1,2.48,2.48v5.66a2.48,2.48,0,0,1-2.48,2.48h-5.66a2.48,2.48,0,0,1-2.48-2.48v-5.67A2.47,2.47,0,0,1,210.79,438Z"/><path class="cls-26" d="M230.43,438h5.67a2.48,2.48,0,0,1,2.48,2.48v5.66a2.48,2.48,0,0,1-2.48,2.48h-5.66a2.48,2.48,0,0,1-2.48-2.48v-5.67A2.47,2.47,0,0,1,230.43,438Z"/><rect class="cls-25" x="207.6" y="482.4" width="10.62" height="10.62" rx="2.48"/><rect class="cls-26" x="227.25" y="482.4" width="10.62" height="10.62" rx="2.48"/><path class="cls-18" d="M528.83,253.7a1.2,1.2,0,0,1,2.4,0v5.41a1.2,1.2,0,0,1-2.4,0V253.7Zm-8.19,4.39a1.2,1.2,0,0,1,1.69-1.7l3.83,3.83a1.2,1.2,0,0,1-1.7,1.7l-3.82-3.83Zm-2.7,8.9a1.2,1.2,0,0,1,0-2.4h5.41a1.2,1.2,0,1,1,0,2.4Zm4.39,8.2a1.2,1.2,0,1,1-1.69-1.7l3.82-3.83a1.2,1.2,0,0,1,1.7,1.7l-3.83,3.83Zm8.9,2.69a1.2,1.2,0,0,1-2.4,0v-5.41a1.2,1.2,0,1,1,2.4,0v5.41Zm8.2-4.39a1.2,1.2,0,0,1-1.7,1.7l-3.82-3.83a1.2,1.2,0,1,1,1.7-1.7l3.82,3.83Zm2.69-8.9a1.2,1.2,0,0,1,0,2.4h-5.41a1.2,1.2,0,0,1,0-2.4Zm-4.39-8.2a1.2,1.2,0,0,1,1.7,1.7l-3.82,3.83a1.2,1.2,0,1,1-1.7-1.7Z" transform="translate(-354.78 -0.95)"/><path class="cls-18" d="M392.62,465.27a1.21,1.21,0,0,1,2.41,0v5.41a1.21,1.21,0,0,1-2.41,0v-5.41Zm-8.2,4.39a1.2,1.2,0,1,1,1.7-1.7l3.83,3.83a1.2,1.2,0,0,1-1.7,1.7l-3.83-3.83Zm-2.69,8.9a1.2,1.2,0,0,1,0-2.4h5.41a1.2,1.2,0,1,1,0,2.4Zm4.39,8.2a1.2,1.2,0,0,1-1.7-1.7l3.83-3.83a1.2,1.2,0,0,1,1.7,0,1.21,1.21,0,0,1,0,1.71l-3.83,3.82Zm8.91,2.69a1.21,1.21,0,0,1-2.41,0V484a1.21,1.21,0,0,1,2.41,0v5.41Zm8.19-4.39a1.2,1.2,0,0,1-1.7,1.7l-3.82-3.82a1.21,1.21,0,0,1,0-1.71,1.2,1.2,0,0,1,1.7,0l3.82,3.83Zm2.69-8.9a1.2,1.2,0,0,1,0,2.4H400.5a1.2,1.2,0,0,1,0-2.4Zm-4.39-8.2a1.2,1.2,0,0,1,1.7,1.7l-3.82,3.83a1.2,1.2,0,0,1-1.7-1.7Z" transform="translate(-354.78 -0.95)"/><path class="cls-18" d="M646.2,330.37a1.2,1.2,0,1,1,2.4,0v5.41a1.2,1.2,0,1,1-2.4,0v-5.41Zm-8.2,4.39a1.2,1.2,0,1,1,1.7-1.7l3.83,3.82a1.2,1.2,0,1,1-1.7,1.7L638,334.76Zm-2.69,8.9a1.21,1.21,0,0,1,0-2.41h5.41a1.21,1.21,0,0,1,0,2.41Zm4.39,8.2a1.22,1.22,0,0,1-1.7,0,1.2,1.2,0,0,1,0-1.7l3.83-3.83a1.2,1.2,0,1,1,1.7,1.7l-3.83,3.83Zm8.9,2.69a1.2,1.2,0,0,1-2.4,0v-5.41a1.2,1.2,0,1,1,2.4,0v5.41Zm8.2-4.39a1.2,1.2,0,0,1,0,1.7,1.22,1.22,0,0,1-1.7,0L651.27,348a1.2,1.2,0,1,1,1.7-1.7l3.83,3.83Zm2.69-8.91a1.21,1.21,0,0,1,0,2.41h-5.41a1.21,1.21,0,0,1,0-2.41Zm-4.39-8.19a1.2,1.2,0,1,1,1.7,1.7L653,338.58a1.2,1.2,0,1,1-1.7-1.7Z" transform="translate(-354.78 -0.95)"/><path class="cls-18" d="M786.17,164a1.21,1.21,0,0,1,2.41,0v5.41a1.21,1.21,0,0,1-2.41,0V164Zm-8.2,4.39a1.21,1.21,0,0,1,1.71-1.7l3.82,3.83a1.2,1.2,0,0,1-1.7,1.7L778,168.41Zm-2.68,8.9a1.2,1.2,0,1,1,0-2.4h5.41a1.2,1.2,0,0,1,0,2.4Zm4.39,8.2a1.21,1.21,0,0,1-1.71-1.7L781.8,180a1.2,1.2,0,1,1,1.7,1.7l-3.82,3.83Zm8.9,2.69a1.21,1.21,0,0,1-2.41,0v-5.41a1.21,1.21,0,0,1,2.41,0v5.41Zm8.19-4.39a1.2,1.2,0,1,1-1.7,1.7l-3.82-3.83A1.2,1.2,0,1,1,793,180l3.82,3.83Zm2.69-8.9a1.2,1.2,0,0,1,0,2.4h-5.4a1.2,1.2,0,1,1,0-2.4Zm-4.39-8.2a1.2,1.2,0,1,1,1.7,1.7L793,172.24a1.2,1.2,0,0,1-1.7-1.7Z" transform="translate(-354.78 -0.95)"/><path class="cls-2" d="M639.1,423.69a1.2,1.2,0,1,1,2.4,0v5.4a1.2,1.2,0,1,1-2.4,0v-5.4Zm-8.2,4.39a1.21,1.21,0,0,1,1.7-1.71l3.83,3.83a1.2,1.2,0,0,1-1.7,1.7l-3.83-3.82Zm-2.69,8.9a1.21,1.21,0,0,1,0-2.41h5.41a1.21,1.21,0,0,1,0,2.41Zm4.39,8.19a1.2,1.2,0,1,1-1.7-1.7l3.83-3.82a1.2,1.2,0,0,1,1.7,1.7l-3.83,3.82Zm8.9,2.69a1.2,1.2,0,0,1-2.4,0v-5.41a1.2,1.2,0,0,1,2.4,0v5.41Zm8.2-4.39a1.2,1.2,0,1,1-1.7,1.7l-3.83-3.82a1.2,1.2,0,0,1,1.7-1.7l3.83,3.82Zm2.69-8.9a1.21,1.21,0,0,1,0,2.41H647a1.21,1.21,0,0,1,0-2.41Zm-4.39-8.2a1.21,1.21,0,0,1,1.7,1.71l-3.83,3.82a1.2,1.2,0,0,1-1.7-1.7Z" transform="translate(-354.78 -0.95)"/></svg>