<svg xmlns="http://www.w3.org/2000/svg" width="1192.5" height="804" viewBox="0 0 1192.5 804">
  <g id="Group_1" data-name="Group 1" transform="translate(308 370.5)">
    <g id="instalogo" transform="translate(-308 -243)">
      <path id="Path_1" data-name="Path 1" d="M399.44,0H46.56A46.614,46.614,0,0,0,0,46.56V399.44A46.614,46.614,0,0,0,46.56,446H399.44A46.614,46.614,0,0,0,446,399.44V46.56A46.614,46.614,0,0,0,399.44,0ZM431.3,46.56v90.67H299.783a114.944,114.944,0,0,0-153.564,0H122.527V14.7H399.44A31.893,31.893,0,0,1,431.3,46.56ZM223,122.527A100.473,100.473,0,1,1,122.527,223,100.586,100.586,0,0,1,223,122.527Zm-134.78,14.7V14.7h19.6V137.231Zm-34.308,0V14.7h19.6V137.231ZM39.209,15.569V137.231H14.7V46.56A31.907,31.907,0,0,1,39.209,15.569ZM399.44,431.3H46.56A31.894,31.894,0,0,1,14.7,399.44V151.934H132.422a115.176,115.176,0,1,0,181.156,0H431.3V399.44A31.893,31.893,0,0,1,399.44,431.3Z" fill="#e6e0e0"/>
      <path id="Path_2" data-name="Path 2" d="M227.5,305A77.5,77.5,0,1,0,150,227.5,77.588,77.588,0,0,0,227.5,305Zm0-140A62.5,62.5,0,1,1,165,227.5,62.571,62.571,0,0,1,227.5,165Z" transform="translate(-4.5 -4.5)"/>
      <path id="Path_3" data-name="Path 3" d="M227.5,274.981h0a47.467,47.467,0,0,0,43.729-66.006,7.5,7.5,0,1,0-13.818,5.836A32.5,32.5,0,0,1,204.52,250.48a7.5,7.5,0,0,0-10.606,10.606A47.168,47.168,0,0,0,227.5,274.981Z" transform="translate(-4.642 -4.785)"/>
      <path id="Path_4" data-name="Path 4" d="M337.5,115h30a7.5,7.5,0,0,0,0-15H345V55h55v45h-2.5a7.5,7.5,0,0,0,0,15h10a7.5,7.5,0,0,0,7.5-7.5v-60a7.5,7.5,0,0,0-7.5-7.5h-70a7.5,7.5,0,0,0-7.5,7.5v60A7.5,7.5,0,0,0,337.5,115Z" transform="translate(-9)"/>
    </g>
    <text id="Insta_" data-name="Insta
" transform="translate(200.5 -43.5)" fill="#fff" stroke="#ebebeb" stroke-width="5" font-size="298" font-family="SegoeUI, Segoe UI"><tspan x="0" y="0">Insta</tspan><tspan x="0" y="397"></tspan></text>
    <text id="Grow" transform="translate(148.5 194.5)" fill="#fff" stroke="#ebebeb" stroke-width="5" font-size="312" font-family="SegoeUI, Segoe UI"><tspan x="0" y="0">Grow</tspan></text>
  </g>
</svg>
