<svg id="Layer_1" data-name="Layer 1" xmlns="http://www.w3.org/2000/svg" viewBox="0 0 753.48 510.1"><defs><style>.cls-1{fill:#eae8ff;}.cls-2{fill:#d13fa0;}.cls-3{fill:#6f57ff;}.cls-4{fill:#242675;}.cls-5{fill:#a49dff;}.cls-6{fill:#473ed1;}.cls-7{fill:#101343;}.cls-8{fill:#ffac00;}.cls-9{fill:#ff8900;}.cls-10,.cls-27,.cls-28{fill:#2a2a67;}.cls-11{fill:#6e57fb;}.cls-12{fill:#50508a;}.cls-13{fill:#9a93ff;}.cls-14{fill:#00052d;}.cls-15,.cls-16,.cls-17,.cls-29{fill:none;stroke-width:2.52px;}.cls-15,.cls-16{stroke:#eae8ff;}.cls-15,.cls-17,.cls-29{stroke-miterlimit:10;}.cls-16,.cls-29{stroke-linecap:round;}.cls-16{stroke-linejoin:round;}.cls-17{stroke:#6f57ff;}.cls-18{fill:#fba98d;}.cls-19{fill:#fff;}.cls-20{fill:#282763;}.cls-21{fill:#f49178;}.cls-22{fill:#e5937c;}.cls-23{fill:#e6e6e6;}.cls-24{fill:#6c77dd;}.cls-25{fill:#5563bb;}.cls-26{fill:#ffbe31;}.cls-27,.cls-28{font-size:11.49px;font-family:Montserrat-SemiBold, Montserrat SemiBold;font-weight:600;}.cls-27{letter-spacing:0.2em;}.cls-28{letter-spacing:0.2em;}.cls-29{stroke:#a49dff;}.cls-30{fill:#ec5fa3;}</style></defs><title>paymentflat</title><path class="cls-1" d="M767,214.72s-21.91,22.71-62.43,0S573,198.63,556.17,269.6s-72.26,52-84.14,88-68.3,38.8-71.27,83.27,43.55,123,216.79,135.3,202.93,4.73,270.25,4.73,113.84-61.5,107.9-101.24S964,426.54,919.48,404.84s-23.76-45.35,15.83-86S998.67,227,970,192,885.82,154.16,767,214.72Z" transform="translate(-299.78 -102.9)"/><path class="cls-2" d="M485.89,391.66H654.18L637.38,577.6c-1.14,12.57-12.15,22.22-25.35,22.22H531.74c-13,0-23.93-9.39-25.3-21.77Z" transform="translate(-299.78 -102.9)"/><path class="cls-3" d="M527.47,333s-5-47.31-33.66-62.45-49.5,13.25-61.38,14.2-21.05-1.9-31.81,10.4S380,336.78,360.17,327.32s-31.68,3.78-44.55,31.22-15.84,106.92-15.84,106.92,7.92-24.6,35.64-30.28,31.68-22.71,36.63-43.52,29.7-17,41.57-9.47,32.67,1.9,36.63-25.54,3.9-37.28,35.64-35S527.47,333,527.47,333Z" transform="translate(-299.78 -102.9)"/><path class="cls-4" d="M636.36,130.51s45.53-46.37,120.77-18.93c0,0-24.75,8.52-30.69,44.47s-12.87,57.72-60.38,59.61-22.77,30.28-29.7,44.48-31.68,12.3-31.68,31.22S530.44,315,527.47,333c0,0-16.83-53-4-79.48S558.15,228.74,563.1,218s3-50.54,21.78-58.11,28.71,2.84,36.63-3.79S636.36,130.51,636.36,130.51Z" transform="translate(-299.78 -102.9)"/><path class="cls-5" d="M527.47,333c5.64-20.81,14.66-40.59,25.13-59.42,5.25-9.42,11-18.53,17.2-27.39,1.57-2.19,3.09-4.43,4.7-6.59l4.85-6.47c3.35-4.23,6.66-8.49,10.2-12.56s7.15-8.08,10.76-12.09c3.77-3.85,7.44-7.82,11.37-11.51,7.69-7.57,15.85-14.65,24.23-21.43,4.27-3.29,8.45-6.7,12.87-9.79,2.19-1.57,4.36-3.17,6.56-4.72l6.72-4.5,3.37-2.23c1.13-.74,2.29-1.42,3.44-2.13l6.89-4.21c2.28-1.45,4.67-2.68,7-4l7-3.95-7,4.09c-2.31,1.38-4.68,2.66-6.93,4.15l-6.8,4.34c-1.13.73-2.29,1.43-3.39,2.19l-3.32,2.3-6.66,4.56c-2.18,1.57-4.33,3.19-6.5,4.78-4.37,3.13-8.51,6.58-12.73,9.91-2.12,1.65-4.11,3.47-6.17,5.19s-4.13,3.44-6.09,5.29l-6,5.43c-2,1.8-3.87,3.73-5.82,5.58-3.9,3.7-7.54,7.66-11.29,11.51-3.58,4-7.26,7.93-10.68,12.08a343.14,343.14,0,0,0-37.07,52.68q-8,14-14.65,28.73A225.87,225.87,0,0,0,527.47,333Z" transform="translate(-299.78 -102.9)"/><path class="cls-5" d="M336.41,391.66a353.73,353.73,0,0,1,38.32-45.81,257.32,257.32,0,0,1,22.22-20,171.23,171.23,0,0,1,24.82-16.73c1.08-.63,2.22-1.16,3.34-1.72s2.22-1.15,3.37-1.65c2.3-1,4.57-2.06,6.93-2.89s4.74-1.64,7.13-2.38c1.2-.37,2.43-.62,3.64-.93l1.83-.45c.61-.14,1.23-.23,1.84-.35a73.62,73.62,0,0,1,15-1.4A68.6,68.6,0,0,1,479.72,299a74.19,74.19,0,0,1,27.07,12.53,86.56,86.56,0,0,1,11.27,9.84c1.75,1.78,3.41,3.65,5,5.58a68.36,68.36,0,0,1,4.43,6,65.32,65.32,0,0,0-4.55-5.91q-2.42-2.85-5.08-5.46a85.85,85.85,0,0,0-11.4-9.55A73.54,73.54,0,0,0,479.51,300a72.8,72.8,0,0,0-29.44-.13c-.6.12-1.22.21-1.82.35l-1.8.45c-1.19.32-2.41.56-3.59.93-2.35.75-4.73,1.44-7,2.38s-4.57,1.89-6.84,2.88c-1.13.5-2.22,1.1-3.33,1.64s-2.23,1.09-3.3,1.72a170.49,170.49,0,0,0-24.71,16.52,276.69,276.69,0,0,0-22.25,19.82c-7.09,7-13.85,14.28-20.35,21.81S342.27,383.6,336.41,391.66Z" transform="translate(-299.78 -102.9)"/><ellipse class="cls-6" cx="110.33" cy="242.78" rx="9.49" ry="9.07"/><path class="cls-6" d="M344.53,348.63a4.06,4.06,0,1,1-4.06-3.88A4,4,0,0,1,344.53,348.63Z" transform="translate(-299.78 -102.9)"/><ellipse class="cls-6" cx="32.05" cy="303.07" rx="7.54" ry="7.21"/><ellipse class="cls-6" cx="183.29" cy="182.4" rx="8.19" ry="7.83"/><ellipse class="cls-7" cx="298.58" cy="153.78" rx="14.3" ry="13.67"/><ellipse class="cls-7" cx="289.48" cy="79.67" rx="5.2" ry="4.97"/><ellipse class="cls-7" cx="242.72" cy="152.27" rx="2.23" ry="2.13"/><ellipse class="cls-7" cx="384.73" cy="78.42" rx="14.84" ry="14.18"/><ellipse class="cls-7" cx="361.48" cy="30.29" rx="7.09" ry="6.78"/><ellipse class="cls-8" cx="124.24" cy="365.4" rx="28.71" ry="27.44"/><ellipse class="cls-9" cx="124.24" cy="365.4" rx="24.14" ry="23.07"/><path class="cls-8" d="M421.42,483.5v-4a12.38,12.38,0,0,1-6.27-1.73l1-2.62a11.32,11.32,0,0,0,5.91,1.68c2.91,0,4.88-1.6,4.88-3.84s-1.6-3.49-4.63-4.66c-4.19-1.57-6.77-3.37-6.77-6.78,0-3.26,2.42-5.73,6.19-6.31v-4h2.54v3.8a11.38,11.38,0,0,1,5.33,1.37l-1,2.59a10.25,10.25,0,0,0-5.17-1.33c-3.16,0-4.34,1.8-4.34,3.37,0,2,1.51,3.05,5.08,4.46,4.22,1.65,6.36,3.69,6.36,7.18,0,3.09-2.26,6-6.48,6.66v4.08Z" transform="translate(-299.78 -102.9)"/><ellipse class="cls-8" cx="518.25" cy="91.67" rx="28.71" ry="27.44"/><ellipse class="cls-9" cx="518.25" cy="91.67" rx="24.14" ry="23.07"/><path class="cls-8" d="M815.43,209.78v-4a12.38,12.38,0,0,1-6.27-1.73l1-2.62a11.32,11.32,0,0,0,5.91,1.68c2.91,0,4.88-1.6,4.88-3.84s-1.6-3.49-4.63-4.66c-4.19-1.57-6.77-3.37-6.77-6.79,0-3.25,2.42-5.72,6.19-6.31v-4h2.54v3.81a11.26,11.26,0,0,1,5.33,1.37l-1,2.59A10.23,10.23,0,0,0,817.4,184c-3.15,0-4.34,1.81-4.34,3.37,0,2,1.51,3.06,5.08,4.47,4.23,1.65,6.36,3.69,6.36,7.18,0,3.09-2.26,6-6.48,6.66v4.08Z" transform="translate(-299.78 -102.9)"/><ellipse class="cls-8" cx="688.46" cy="316.2" rx="28.71" ry="27.44"/><ellipse class="cls-9" cx="688.46" cy="316.2" rx="24.14" ry="23.07"/><path class="cls-8" d="M985.65,434.3v-4a12.39,12.39,0,0,1-6.28-1.73l1-2.62a11.28,11.28,0,0,0,5.9,1.68c2.91,0,4.88-1.6,4.88-3.84s-1.6-3.49-4.63-4.66c-4.18-1.57-6.77-3.37-6.77-6.78,0-3.26,2.42-5.73,6.19-6.32v-3.95h2.55v3.8a11.3,11.3,0,0,1,5.33,1.37l-1,2.59a10.22,10.22,0,0,0-5.16-1.34c-3.16,0-4.35,1.81-4.35,3.37,0,2,1.52,3.06,5.08,4.47,4.23,1.65,6.36,3.69,6.36,7.18,0,3.09-2.26,6-6.48,6.66v4.08Z" transform="translate(-299.78 -102.9)"/><rect class="cls-10" x="304.75" y="162.91" width="187.62" height="343.47" rx="18.89"/><rect class="cls-11" x="314.84" y="174.57" width="167.44" height="295.34" rx="9.69"/><path class="cls-12" d="M608,273.75a17.85,17.85,0,0,0-3.46,10.53V590.82c0,10.19,8.65,18.46,19.32,18.46h149a19.55,19.55,0,0,0,15.45-7.42Z" transform="translate(-299.78 -102.9)"/><path class="cls-13" d="M616.08,282a9.11,9.11,0,0,0-1.46,4.93V563.34a9.7,9.7,0,0,0,9.91,9.47H772.15a10,10,0,0,0,8.06-4Z" transform="translate(-299.78 -102.9)"/><ellipse class="cls-14" cx="398.63" cy="488.29" rx="15.38" ry="14.7"/><ellipse class="cls-15" cx="400.75" cy="324.75" rx="49.45" ry="47.27"/><polyline class="cls-16" points="379.47 320.45 393.99 341.27 432.27 307.04"/><rect class="cls-9" x="432.27" y="320.45" width="178.19" height="95.84" rx="6.43"/><path class="cls-8" d="M734,425.15a6.1,6.1,0,0,0-2,4.49V512.9a6.44,6.44,0,0,0,6.58,6.29h165a6.68,6.68,0,0,0,4.91-2.13Z" transform="translate(-299.78 -102.9)"/><rect class="cls-10" x="432.27" y="386.21" width="178.19" height="12.3"/><rect class="cls-1" x="482.28" y="358.3" width="79.53" height="13.72"/><path class="cls-17" d="M377.92,465.46a8.85,8.85,0,1,1-8.84-8.46A8.66,8.66,0,0,1,377.92,465.46Z" transform="translate(-299.78 -102.9)"/><path class="cls-17" d="M431.67,564.36a8.86,8.86,0,1,1-8.85-8.46A8.66,8.66,0,0,1,431.67,564.36Z" transform="translate(-299.78 -102.9)"/><path class="cls-17" d="M1052,489.11a8.85,8.85,0,1,1-8.85-8.45A8.66,8.66,0,0,1,1052,489.11Z" transform="translate(-299.78 -102.9)"/><path class="cls-17" d="M774.82,140a8.85,8.85,0,1,1-8.85-8.46A8.66,8.66,0,0,1,774.82,140Z" transform="translate(-299.78 -102.9)"/><path class="cls-17" d="M540.27,131.51a8.85,8.85,0,1,1-8.84-8.45A8.66,8.66,0,0,1,540.27,131.51Z" transform="translate(-299.78 -102.9)"/><path class="cls-17" d="M404.16,205.52a8.86,8.86,0,1,1-8.85-8.46A8.65,8.65,0,0,1,404.16,205.52Z" transform="translate(-299.78 -102.9)"/><path class="cls-17" d="M995.89,333a8.86,8.86,0,1,1-8.85-8.45A8.66,8.66,0,0,1,995.89,333Z" transform="translate(-299.78 -102.9)"/><polygon class="cls-18" points="534.81 311.94 532.87 306.26 545.45 306.26 534.81 311.94"/><path class="cls-19" d="M815.53,426.32l1,21.87s29,2.13,49.5-4l-5.45-29.33L820,417.2Z" transform="translate(-299.78 -102.9)"/><path class="cls-18" d="M799.2,337.72s2.47,15.85,3.71,17.27c0,0,8.17,8.75,16.09,8s10.64-11.35,10.89-13.95-2.48-17-2.48-17-10.64,2.13-14.6-2.84C812.81,329.21,808.36,338.43,799.2,337.72Z" transform="translate(-299.78 -102.9)"/><path class="cls-20" d="M812.81,329.21c4,5,14.6,2.84,14.6,2.84s8.2-7.36,2.49-14.8-15.6-4.84-22.29,1.79c0,0-4.7-4-13.11,0s-9.16,18,4.7,18.68C808.36,338.43,812.81,329.21,812.81,329.21Z" transform="translate(-299.78 -102.9)"/><path class="cls-20" d="M794.07,336.61a0,0,0,0,1,0,0s1.6,9.47,7.08,12c-1-5-1.94-10.94-1.94-10.94A14.91,14.91,0,0,1,794.07,336.61Z" transform="translate(-299.78 -102.9)"/><path class="cls-20" d="M830.85,327.31a16.47,16.47,0,0,1-3.44,4.74s1.11,5.89,1.85,10.83l.64-.23s1.91-5.29,1-15.34Z" transform="translate(-299.78 -102.9)"/><path class="cls-18" d="M800.18,343.55a3.14,3.14,0,0,0-2.58,2.59c-.38,2.31.63,6.17,4.41,6.37Z" transform="translate(-299.78 -102.9)"/><path class="cls-18" d="M828.6,338.71s1.73-1.86,3.32,0,.43,6.22-2.12,8.3Z" transform="translate(-299.78 -102.9)"/><path class="cls-21" d="M814.55,341.67s-.49,6.78,0,7.57,3.62,1.68,4.12-1.21S814.55,341.67,814.55,341.67Z" transform="translate(-299.78 -102.9)"/><path class="cls-14" d="M810.17,345.27c.15,1.41-.6,2.64-1.67,2.74s-2-1-2.2-2.37.6-2.65,1.67-2.75S810,343.85,810.17,345.27Z" transform="translate(-299.78 -102.9)"/><path class="cls-14" d="M824.42,342.69c.15,1.42-.59,2.65-1.66,2.75s-2-1-2.2-2.38.6-2.64,1.66-2.74S824.28,341.28,824.42,342.69Z" transform="translate(-299.78 -102.9)"/><path class="cls-22" d="M811.41,352.51a6.05,6.05,0,0,0,1.83,1.42,4.69,4.69,0,0,0,1,.33c.18,0,.39.06.6.12a3.84,3.84,0,0,1,.69.14,2.36,2.36,0,0,1-1.27.72,2.53,2.53,0,0,1-1.55-.16,2.41,2.41,0,0,1-1.13-1.1A2,2,0,0,1,811.41,352.51Z" transform="translate(-299.78 -102.9)"/><path class="cls-18" d="M826.59,365.64c-.83-.95-1.52-5.73-1.52-5.73h0A9.35,9.35,0,0,1,819,363a14.48,14.48,0,0,1-7.59-1.72h0s2,6.06,2.06,7a5.53,5.53,0,0,1-1,2.52s9,6.62,11.51,5.84,4.65-10.26,4.65-10.26A2.42,2.42,0,0,1,826.59,365.64Z" transform="translate(-299.78 -102.9)"/><path class="cls-23" d="M863.16,428.75l-2.59-13.91L820,417.2l-4.47,9.12.38,8.38C825.83,435.2,846.74,435.26,863.16,428.75Z" transform="translate(-299.78 -102.9)"/><path class="cls-19" d="M808.24,376s-10.28,10-12,13.88-5.26,31-2.17,35.22,9.84,11.46,40.53-10.3l3,8.51s30.19-1.42,36.63-10.17S865,381.25,862.06,376s-26.23-7.72-26.23-7.72-7.67,7.09-11.88,8.36S808.24,376,808.24,376Z" transform="translate(-299.78 -102.9)"/><path class="cls-23" d="M812.44,370.84l-4.2,5.2L820,389.92l4-13.24C821.47,377.46,812.44,370.84,812.44,370.84Z" transform="translate(-299.78 -102.9)"/><path class="cls-23" d="M828.6,366.42s-2.18,9.47-4.65,10.26L835.83,385V368.32Z" transform="translate(-299.78 -102.9)"/><polygon class="cls-18" points="537.78 320.45 522.71 319.79 534.81 311.94 537.78 320.45"/><polygon class="cls-11" points="521.67 282.13 525.9 287.02 530.84 285.68 531.34 278.82 524.16 273.77 521.67 282.13"/><polygon class="cls-11" points="527.63 306.05 525.9 287.02 530.84 285.68 542.48 306.05 527.63 306.05"/><path class="cls-24" d="M866,444.17c-20.54,6.15-49.5,4-49.5,4s2.31,55.43,4,72.46c0,0-6.1,7.26,5.2,72.86,0,0,7.34,1.58,13.28,0,0,0,1.32-55.82,1.82-70s4.45-54.88,4.45-54.88l15.34,50.47s-5.77,7.25-9.4,23.65-8.91,36.59-8.91,36.59,7.59,6.94,12.21,6c0,0,26.4-58.35,28.71-67.49S866,444.17,866,444.17Z" transform="translate(-299.78 -102.9)"/><path class="cls-10" d="M825.68,593.51s-13.12,14.11-12.13,17.43,23.76,2.13,25.49,0-.08-17.43-.08-17.43A63.22,63.22,0,0,1,825.68,593.51Z" transform="translate(-299.78 -102.9)"/><path class="cls-10" d="M842.26,579.32s-3.11,6.31-3.14,7.73.3,11.12.3,11.12,1.87,2.59,10.52,2.36,10.63.47,11.38-.95.24-5.44-4.46-7.09-2.39-7.18-2.39-7.18S849.93,585.78,842.26,579.32Z" transform="translate(-299.78 -102.9)"/><path class="cls-22" d="M825.61,362.83c-.33-1.47-.54-2.92-.54-2.92h0A9.35,9.35,0,0,1,819,363a14.48,14.48,0,0,1-7.59-1.72h0s.58,1.78,1.13,3.57C815.63,365.55,821.17,366.06,825.61,362.83Z" transform="translate(-299.78 -102.9)"/><path class="cls-23" d="M803.41,413.18a12.41,12.41,0,0,1,6.37-4.24,19.11,19.11,0,0,1,3.86-.51c1.27-.06,2.55-.08,3.81-.1a120.68,120.68,0,0,1,15.2.83c-5.07.37-10.14.39-15.19.43-1.26,0-2.52,0-3.78,0a22.21,22.21,0,0,0-3.68.28,13.32,13.32,0,0,0-3.46,1.21A15.3,15.3,0,0,0,803.41,413.18Z" transform="translate(-299.78 -102.9)"/><path class="cls-23" d="M803.41,399.05a26,26,0,0,1,3,5.19,25,25,0,0,1,1.84,5.7,25,25,0,0,1-3-5.19A25.47,25.47,0,0,1,803.41,399.05Z" transform="translate(-299.78 -102.9)"/><path class="cls-23" d="M845.23,409.16a16.51,16.51,0,0,1,3.41-2.28,23.34,23.34,0,0,1,3.8-1.56,21.27,21.27,0,0,1,4-.86,15.71,15.71,0,0,1,4.11,0c-1.34.34-2.65.58-3.94.93s-2.56.68-3.82,1.09C850.28,407.29,847.8,408.22,845.23,409.16Z" transform="translate(-299.78 -102.9)"/><path class="cls-23" d="M854.39,387.4a52.68,52.68,0,0,1,1.49,8.48,51.63,51.63,0,0,1,.24,8.62,50.51,50.51,0,0,1-1.49-8.49A51.48,51.48,0,0,1,854.39,387.4Z" transform="translate(-299.78 -102.9)"/><path class="cls-25" d="M833.27,464.35a86.22,86.22,0,0,0,25.66-3.15,29.6,29.6,0,0,1-13.7,7.41S837.26,468.57,833.27,464.35Z" transform="translate(-299.78 -102.9)"/><rect class="cls-8" x="224.2" y="217.13" width="174.35" height="99.07" rx="9.51"/><path class="cls-26" d="M524.16,327.62a8.7,8.7,0,0,0-.17,1.71V409.8a9.52,9.52,0,0,0,9.72,9.3h154.9a9.9,9.9,0,0,0,7.42-3.29Z" transform="translate(-299.78 -102.9)"/><rect class="cls-1" x="231.64" y="272.27" width="19.51" height="18.65" rx="4.51"/><text class="cls-27" transform="translate(262.58 303.25) scale(1.05 1)">123 456 789</text><text class="cls-28" transform="translate(360.33 234.86) scale(1.05 1)">789</text><rect class="cls-10" x="259.65" y="277.75" width="125.35" height="6.75"/><line class="cls-29" x1="718.03" y1="150.14" x2="728.77" y2="158.65"/><line class="cls-29" x1="728.77" y1="150.14" x2="718.03" y2="158.65"/><line class="cls-29" x1="180.74" y1="102.62" x2="191.48" y2="111.13"/><line class="cls-29" x1="191.48" y1="102.62" x2="180.74" y2="111.13"/><line class="cls-29" x1="691.06" y1="469.33" x2="701.8" y2="477.84"/><line class="cls-29" x1="701.8" y1="469.33" x2="691.06" y2="477.84"/><line class="cls-29" x1="41.11" y1="425.95" x2="51.85" y2="434.47"/><line class="cls-29" x1="51.85" y1="425.95" x2="41.11" y2="434.47"/><path class="cls-30" d="M497.26,391.66H485.89l20.55,186.39c1.37,12.38,12.28,21.77,25.3,21.77H608Z" transform="translate(-299.78 -102.9)"/></svg>