<svg xmlns="http://www.w3.org/2000/svg" xmlns:xlink="http://www.w3.org/1999/xlink" viewBox="0 0 561.51 674"><defs><style>.cls-1,.cls-15,.cls-24,.cls-26,.cls-27,.cls-28{fill:none;}.cls-2{isolation:isolate;}.cls-3,.cls-69{mix-blend-mode:multiply;}.cls-3{fill:url(#radial-gradient);}.cls-4{fill:url(#linear-gradient);}.cls-5{fill:url(#linear-gradient-2);}.cls-6{fill:url(#linear-gradient-3);}.cls-7{fill:url(#linear-gradient-4);}.cls-8{fill:url(#linear-gradient-5);}.cls-9{fill:#fcfcfc;}.cls-10{fill:url(#linear-gradient-6);}.cls-11{clip-path:url(#clip-path);}.cls-12,.cls-76{fill:#fff;}.cls-13{fill:url(#linear-gradient-7);}.cls-14{fill:#f2f2f2;}.cls-15,.cls-24{stroke-miterlimit:10;}.cls-15{stroke-width:0.65px;stroke:url(#linear-gradient-8);}.cls-16{fill:#9d9d9d;}.cls-17{font-size:10.6px;}.cls-17,.cls-23,.cls-31,.cls-45,.cls-59,.cls-74{fill:#333;}.cls-17,.cls-34,.cls-35,.cls-36,.cls-37,.cls-38,.cls-45,.cls-74{font-family:Aileron-Bold, Aileron Bold;font-weight:700;}.cls-18{letter-spacing:-0.01em;}.cls-19{letter-spacing:0em;}.cls-20{letter-spacing:0em;}.cls-21{fill:url(#linear-gradient-9);}.cls-22{fill:#cecccd;}.cls-24,.cls-26{stroke:#333;stroke-width:1.94px;}.cls-25{fill:url(#linear-gradient-10);}.cls-26,.cls-27,.cls-28{stroke-linejoin:round;}.cls-27,.cls-28{stroke:#fff;stroke-width:1.3px;}.cls-28{stroke-linecap:round;}.cls-29,.cls-40,.cls-56{fill:#999;}.cls-30,.cls-49{fill:#5fa8db;}.cls-31,.cls-40{font-size:8.45px;}.cls-31,.cls-40,.cls-46,.cls-47,.cls-48,.cls-49{font-family:Aileron-Regular, Aileron Regular;}.cls-32{letter-spacing:-0.01em;}.cls-33,.cls-39,.cls-56,.cls-59{font-family:Aileron-SemiBold, Aileron SemiBold;font-weight:600;}.cls-34{letter-spacing:-0.01em;}.cls-36{letter-spacing:0.03em;}.cls-37{letter-spacing:0em;}.cls-38{letter-spacing:0em;}.cls-39{letter-spacing:0em;}.cls-41{letter-spacing:-0.02em;}.cls-42{letter-spacing:0em;}.cls-43{letter-spacing:-0.01em;}.cls-44{letter-spacing:0em;}.cls-45{font-size:9.85px;}.cls-46,.cls-47,.cls-48,.cls-49{font-weight:400;}.cls-46,.cls-50{letter-spacing:-0.01em;}.cls-48{letter-spacing:-0.01em;}.cls-51{letter-spacing:0em;}.cls-52{letter-spacing:0em;}.cls-53{letter-spacing:-0.01em;}.cls-54{letter-spacing:0em;}.cls-55{letter-spacing:0em;}.cls-56,.cls-59{font-size:5.26px;}.cls-57{letter-spacing:-0.02em;}.cls-58{letter-spacing:0em;}.cls-60{letter-spacing:-0.04em;}.cls-61{letter-spacing:0.01em;}.cls-62{letter-spacing:-0.08em;}.cls-63{letter-spacing:0em;}.cls-64,.cls-65,.cls-73{mix-blend-mode:screen;}.cls-64{fill:url(#linear-gradient-11);}.cls-65{fill:url(#linear-gradient-12);}.cls-66{fill:#d82d05;}.cls-67{fill:url(#linear-gradient-13);}.cls-68{fill:url(#linear-gradient-14);}.cls-69{fill:url(#linear-gradient-15);}.cls-70{fill:url(#linear-gradient-16);}.cls-71{fill:url(#radial-gradient-2);}.cls-72{fill:url(#radial-gradient-3);}.cls-73{opacity:0.5;fill:url(#radial-gradient-4);}.cls-74{font-size:9.65px;}.cls-75{fill:#d35c37;}.cls-76{font-size:64.42px;}.cls-76,.cls-81{font-family:MyriadPro-Regular, Myriad Pro;}.cls-77{letter-spacing:0.01em;}.cls-78{letter-spacing:0em;}.cls-79{letter-spacing:-0.01em;}.cls-80{letter-spacing:-0.01em;}.cls-81{font-size:39.28px;fill:#110b00;}.cls-82{letter-spacing:0.01em;}.cls-83{letter-spacing:-0.01em;}.cls-84{letter-spacing:0em;}.cls-85{letter-spacing:-0.01em;}</style><radialGradient id="radial-gradient" cx="639.58" cy="-331.32" r="78" gradientTransform="translate(-2021.32 717.09) scale(3.6 0.17)" gradientUnits="userSpaceOnUse"><stop offset="0" stop-color="#6d6e70"/><stop offset="0.19" stop-color="#7f8082" stop-opacity="0.86"/><stop offset="0.56" stop-color="#afb0b1" stop-opacity="0.5"/><stop offset="1" stop-color="#f1f1f2" stop-opacity="0"/></radialGradient><linearGradient id="linear-gradient" x1="854.21" y1="180.22" x2="854.21" y2="260.37" gradientTransform="translate(1708.43 439.76) rotate(-180)" gradientUnits="userSpaceOnUse"><stop offset="0" stop-color="#231f20"/><stop offset="0.02" stop-color="#272324"/><stop offset="0.31" stop-color="#676769"/><stop offset="0.45" stop-color="#808184"/><stop offset="0.56" stop-color="#747477"/><stop offset="0.76" stop-color="#535153"/><stop offset="1" stop-color="#231f20"/></linearGradient><linearGradient id="linear-gradient-2" x1="122.79" y1="87.26" x2="122.79" y2="114.22" gradientTransform="matrix(1, 0, 0, 1, 0, 0)" xlink:href="#linear-gradient"/><linearGradient id="linear-gradient-3" x1="122.79" y1="132.97" x2="122.79" y2="183.17" gradientTransform="matrix(1, 0, 0, 1, 0, 0)" xlink:href="#linear-gradient"/><linearGradient id="linear-gradient-4" x1="122.79" y1="194.94" x2="122.79" y2="246.22" gradientTransform="matrix(1, 0, 0, 1, 0, 0)" xlink:href="#linear-gradient"/><linearGradient id="linear-gradient-5" x1="123.22" y1="329.41" x2="438.73" y2="329.41" gradientTransform="matrix(1, 0, 0, 1, 0, 0)" xlink:href="#linear-gradient"/><linearGradient id="linear-gradient-6" x1="696.46" y1="678.02" x2="696.46" y2="39.4" gradientTransform="translate(337.05 1055.87) rotate(-90)" gradientUnits="userSpaceOnUse"><stop offset="0" stop-color="#4d4d4d"/><stop offset="1"/></linearGradient><clipPath id="clip-path" transform="translate(-415.49 -30)"><rect class="cls-1" x="381.92" y="216.18" width="629.08" height="286.46" rx="30.84" transform="translate(1055.87 -337.05) rotate(90)"/></clipPath><linearGradient id="linear-gradient-7" x1="-801.74" y1="1544.49" x2="-801.74" y2="1551.78" gradientTransform="matrix(1, 0, 0, -1, 1498.2, 1668.27)" gradientUnits="userSpaceOnUse"><stop offset="0"/><stop offset="1" stop-color="#fff" stop-opacity="0"/></linearGradient><linearGradient id="linear-gradient-8" x1="156.78" y1="580.36" x2="185.42" y2="580.36" gradientUnits="userSpaceOnUse"><stop offset="0" stop-color="#ffb310"/><stop offset="0.44" stop-color="#ff3d05"/><stop offset="1" stop-color="#ff1784"/></linearGradient><linearGradient id="linear-gradient-9" x1="-801.74" y1="348.39" x2="-801.74" y2="355.68" gradientTransform="translate(1498.2 266.85)" xlink:href="#linear-gradient-7"/><linearGradient id="linear-gradient-10" x1="347.63" y1="54.24" x2="364.57" y2="72.93" xlink:href="#linear-gradient-8"/><linearGradient id="linear-gradient-11" x1="842.49" y1="359.41" x2="849.42" y2="359.41" gradientUnits="userSpaceOnUse"><stop offset="0" stop-opacity="0"/><stop offset="0.2" stop-color="#3d3d3d" stop-opacity="0.24"/><stop offset="0.49" stop-color="#8f8f8f" stop-opacity="0.56"/><stop offset="0.73" stop-color="#ccc" stop-opacity="0.8"/><stop offset="0.91" stop-color="#f1f1f1" stop-opacity="0.94"/><stop offset="1" stop-color="#fff"/></linearGradient><linearGradient id="linear-gradient-12" x1="8702.85" y1="359.41" x2="8709.78" y2="359.41" gradientTransform="matrix(-1, 0, 0, 1, 9253.29, 0)" xlink:href="#linear-gradient-11"/><linearGradient id="linear-gradient-13" x1="280.97" y1="26.45" x2="280.97" y2="21.33" gradientUnits="userSpaceOnUse"><stop offset="0" stop-color="#4d4d4d"/><stop offset="0.07" stop-color="#434343"/><stop offset="0.31" stop-color="#262626"/><stop offset="0.55" stop-color="#111"/><stop offset="0.78" stop-color="#040404"/><stop offset="1"/></linearGradient><linearGradient id="linear-gradient-14" x1="735.73" y1="59.35" x2="726.61" y2="50.22" gradientTransform="matrix(1, 0, 0, 1, 0, 0)" xlink:href="#linear-gradient-6"/><linearGradient id="linear-gradient-15" x1="319.37" y1="28.47" x2="311.91" y2="21.01" gradientUnits="userSpaceOnUse"><stop offset="0"/><stop offset="1" stop-color="#4d4d4d"/></linearGradient><linearGradient id="linear-gradient-16" x1="727.78" y1="51.4" x2="734.61" y2="58.23" gradientUnits="userSpaceOnUse"><stop offset="0" stop-color="#0058ee"/><stop offset="0.69" stop-opacity="0"/></linearGradient><radialGradient id="radial-gradient-2" cx="603.82" cy="147.37" r="2.59" gradientTransform="translate(-249.77 -186.42) scale(1.62 1.66)" gradientUnits="userSpaceOnUse"><stop offset="0" stop-color="#0058ee"/><stop offset="0.86" stop-opacity="0"/></radialGradient><radialGradient id="radial-gradient-3" cx="606.07" cy="143.97" r="1.7" gradientTransform="translate(-249.77 -186.42) scale(1.62 1.66)" gradientUnits="userSpaceOnUse"><stop offset="0" stop-color="#0058ee"/><stop offset="0.7" stop-opacity="0"/></radialGradient><radialGradient id="radial-gradient-4" cx="602.01" cy="145.66" r="2.58" gradientTransform="translate(-249.77 -186.42) scale(1.62 1.66)" gradientUnits="userSpaceOnUse"><stop offset="0" stop-color="#fff"/><stop offset="0.15" stop-color="#bdbdbd" stop-opacity="0.74"/><stop offset="0.29" stop-color="#838383" stop-opacity="0.52"/><stop offset="0.43" stop-color="#545454" stop-opacity="0.33"/><stop offset="0.57" stop-color="#303030" stop-opacity="0.19"/><stop offset="0.69" stop-color="#151515" stop-opacity="0.08"/><stop offset="0.8" stop-color="#060606" stop-opacity="0.02"/><stop offset="0.89" stop-opacity="0"/></radialGradient></defs><title>pho</title><g class="cls-2"><g id="Layer_1" data-name="Layer 1"><ellipse class="cls-3" cx="280.76" cy="660.73" rx="280.76" ry="13.27"/><path class="cls-4" d="M854.13,179.8h3.41a0,0,0,0,1,0,0V260a0,0,0,0,1,0,0h-3.41a3.24,3.24,0,0,1-3.24-3.24V183A3.24,3.24,0,0,1,854.13,179.8Z" transform="translate(1292.94 409.76) rotate(180)"/><path class="cls-5" d="M122.7,87.41h3.41a0,0,0,0,1,0,0v26.86a0,0,0,0,1,0,0H122.7a3.24,3.24,0,0,1-3.24-3.24V90.66A3.24,3.24,0,0,1,122.7,87.41Z"/><path class="cls-6" d="M122.7,132.66h3.41a0,0,0,0,1,0,0v50.61a0,0,0,0,1,0,0H122.7a3.24,3.24,0,0,1-3.24-3.24V135.9A3.24,3.24,0,0,1,122.7,132.66Z"/><path class="cls-7" d="M122.7,194.94h3.41a0,0,0,0,1,0,0v50.61a0,0,0,0,1,0,0H122.7a3.24,3.24,0,0,1-3.24-3.24V198.18A3.24,3.24,0,0,1,122.7,194.94Z"/><rect class="cls-8" x="123.22" width="315.5" height="658.83" rx="46.4"/><rect class="cls-9" x="373.25" y="207.71" width="646.43" height="303.4" rx="39.92" transform="translate(640.39 -367.05) rotate(90)"/><rect class="cls-10" x="379.44" y="213.76" width="634.04" height="291.3" rx="33.44" transform="translate(640.39 -367.05) rotate(90)"/><g class="cls-11"><rect class="cls-12" x="137.74" y="69.97" width="286.46" height="579.89"/><rect class="cls-13" x="553.23" y="112.7" width="286.46" height="6.9" transform="translate(977.44 202.3) rotate(180)"/><rect class="cls-14" x="137.74" y="12.15" width="286.46" height="71.5"/><rect class="cls-12" x="137.74" y="91.62" width="286.46" height="491.97"/><ellipse class="cls-15" cx="171.1" cy="580.36" rx="14" ry="14.34"/><path class="cls-16" d="M598.52,610.36a11.94,11.94,0,1,1-11.93-12.23A12.08,12.08,0,0,1,598.52,610.36Z" transform="translate(-415.49 -30)"/><text class="cls-17" transform="translate(192.72 583.42) scale(0.98 1)"><tspan class="cls-18">y</tspan><tspan x="4.88" y="0">ou</tspan><tspan class="cls-19" x="16.54" y="0">r</tspan><tspan class="cls-20" x="20.05" y="0">namehe</tspan><tspan class="cls-18" x="56.37" y="0">r</tspan><tspan class="cls-20" x="59.73" y="0">e</tspan></text><path class="cls-16" d="M818.27,605.7a1.26,1.26,0,1,1-1.26-1.29A1.27,1.27,0,0,1,818.27,605.7Z" transform="translate(-415.49 -30)"/><path class="cls-16" d="M818.27,610.36a1.26,1.26,0,1,1-1.26-1.29A1.27,1.27,0,0,1,818.27,610.36Z" transform="translate(-415.49 -30)"/><path class="cls-16" d="M818.27,615a1.26,1.26,0,1,1-1.26-1.29A1.27,1.27,0,0,1,818.27,615Z" transform="translate(-415.49 -30)"/><rect class="cls-21" x="553.23" y="619.43" width="286.46" height="6.9" transform="translate(977.44 1215.77) rotate(180)"/><rect class="cls-14" x="137.74" y="596.33" width="286.46" height="52.7"/><rect class="cls-22" x="137.74" y="132.43" width="286.46" height="290.78"/><path class="cls-23" d="M608.43,92.87c0,1.52,0,3,0,4.57a8.76,8.76,0,0,1-.21,2.1,3.28,3.28,0,0,1-1.34,2.07c-.2.14-.44.36-.67.19s-.06-.46,0-.68a8.26,8.26,0,0,0,.32-2.21c.05-3.42.06-6.83.05-10.25,0-.15.08-.37-.09-.44s-.28.13-.38.25a5.84,5.84,0,0,0-1.28,4.78,2.46,2.46,0,0,0,.33.85,3.24,3.24,0,0,1,.17.32.32.32,0,0,1,0,.37c-.1.11-.22.08-.34,0a2.49,2.49,0,0,1-1.36-1,2.68,2.68,0,0,1-.46-2,6.47,6.47,0,0,1,3.16-4.65,1.66,1.66,0,0,1,1.81.14.7.7,0,0,1,.31.69v4.91Z" transform="translate(-415.49 -30)"/><path class="cls-23" d="M670.86,97.21c-.12-.23-.34-.24-.47,0a1.52,1.52,0,0,0-.17.52,3.47,3.47,0,0,1-.36,1,.53.53,0,0,1-1,0,2.65,2.65,0,0,1-.34-1.13,33.85,33.85,0,0,1,0-4.39c0-1-.08-1.24-1-1.59l-.26-.09a.75.75,0,0,0-1.08.54,19.66,19.66,0,0,0-1.17,4c0,.06,0,.14-.1.19l-.06-.58c-.07-1-.12-1.94-.12-2.91a1.12,1.12,0,0,0-.7-1.11,2.52,2.52,0,0,0-.63-.19.67.67,0,0,0-.74.36,7.27,7.27,0,0,0-.32.69c-.25.7-.48,1.41-.72,2.11a.48.48,0,0,1-.18.32c0-.77,0-1.5,0-2.22,0-.93.11-1-1-1.21-.58-.11-.7,0-.71.6,0,1.55,0,3.11-.06,4.66a3.44,3.44,0,0,1-.74,2.07c-.38.49-.9.38-1.11-.2a3.51,3.51,0,0,1-.18-.9,45.76,45.76,0,0,1,0-5c0-.8-.07-1-.83-1.12a2,2,0,0,0-.48,0,.41.41,0,0,0-.44.33c0,.31-.14.17-.26,0a2,2,0,0,0-3.13.14,4.79,4.79,0,0,0-.65,1.06,8.36,8.36,0,0,0-.46,4.4,1.66,1.66,0,0,1-.38,1.28.62.62,0,0,1-1.08-.06,2.24,2.24,0,0,1-.35-.93,8.61,8.61,0,0,1,.12-3.2c.1-.52.25-1,.3-1.57a.82.82,0,0,0-.38-.84,1.14,1.14,0,0,0-.81-.12l-1.33.25c-.39.07-.41,0-.39-.35a.82.82,0,0,0-1-.94,1.39,1.39,0,0,0-.78,2.19.71.71,0,0,1,.15.72,13.61,13.61,0,0,1-1.63,3.55c-.06.1-.12.3-.25.26s-.07-.24-.07-.36l.06-5c0-.52-.06-.61-.54-.76a2,2,0,0,0-.35-.09c-.58-.09-.73,0-.93.59-.09-.11-.16-.21-.25-.3a1.93,1.93,0,0,0-2.64-.2,3.24,3.24,0,0,0-1,1.38,8.23,8.23,0,0,0-.56,4.36,1.83,1.83,0,0,1-.56,1.49.56.56,0,0,1-.94-.14,1.65,1.65,0,0,1-.19-.54,7.82,7.82,0,0,1-.13-1.28c0-1.44,0-2.89.06-4.33,0-.72-.12-.88-.82-1a2,2,0,0,0-.54,0,.33.33,0,0,0-.36.3c0,.29-.14.23-.29.07a1.89,1.89,0,0,0-1.36-.69,2.17,2.17,0,0,0-1.93,1,6.29,6.29,0,0,0-1,3.62,4.24,4.24,0,0,1-.56,2,2.19,2.19,0,0,1-.66.79.52.52,0,0,1-.86-.24,2.84,2.84,0,0,1-.26-1.15c-.05-2,0-3.91.1-5.86a.33.33,0,0,1,.35-.36c.53,0,1.06,0,1.59,0s.68-.21.71-.71c0-.32-.07-.44-.38-.46-.6,0-1.21-.1-1.82-.12-.28,0-.4-.12-.38-.41,0-.54,0-1.09.06-1.63a.5.5,0,0,0-.34-.54,5.65,5.65,0,0,0-.89-.26c-.53-.1-.71.05-.74.59s-.05,1.16-.06,1.74c0,.27-.11.4-.38.39s-.76,0-1.14,0a.52.52,0,0,0-.61.4,1.71,1.71,0,0,0-.1.54c0,.33.09.42.41.44s.87,0,1.31,0,.39.12.39.41c0,1.23,0,2.46,0,3.68a3.94,3.94,0,0,1-1.29,2.68h-.09a4.21,4.21,0,0,0,0-.71,2.81,2.81,0,0,0-1.17-1.82c-.44-.36-.88-.7-1.34-1-.25-.18-.26-.32-.08-.57a3.41,3.41,0,0,0,.68-1.42.73.73,0,0,0-.75-1,1.76,1.76,0,0,0-1.72,1,1.7,1.7,0,0,0,0,2,.48.48,0,0,1,0,.56c-.46.89-.94,1.76-1.45,2.62a4.35,4.35,0,0,1-.56.79c-.13.14-.26.32-.48.26s-.23-.3-.25-.48a7.72,7.72,0,0,1-.06-.83c0-1.34,0-2.68.1-4a1.11,1.11,0,0,0-.24-1c-1-.85-1.73-1-2.66,0a5,5,0,0,0-.77,1.2,19.85,19.85,0,0,0-.89,2.25c0,.08,0,.19-.16.26V92.67c0-.88-.08-1-.92-1.15l-.15,0c-.42-.07-.55,0-.55.48,0,2.2-.08,4.4-.05,6.6,0,.23,0,.47,0,.7.1.83.43,1,1.29,1,.28,0,.42-.17.46-.46a16.67,16.67,0,0,1,.92-3.68,9.39,9.39,0,0,1,1.55-2.89c.06-.08.13-.21.26-.16s.08.18.08.28c0,.61,0,1.22-.08,1.84a28.4,28.4,0,0,0,0,3.06,3.87,3.87,0,0,0,.25,1.26,1.07,1.07,0,0,0,1.47.66,2.5,2.5,0,0,0,.84-.57,7,7,0,0,0,1.11-1.44l1.57-2.69c.09-.14.17-.28.34-.11a7.43,7.43,0,0,1,1.4,1.51,1.69,1.69,0,0,1,.17,1.5.79.79,0,0,1-1.06.52,2.44,2.44,0,0,1-.75-.43c-.43-.32-.63-.29-1,.14a1.45,1.45,0,0,0-.2.34.61.61,0,0,0,.3.93,4,4,0,0,0,4.52-.65,6.56,6.56,0,0,0,1.2-1.78c0-.09.06-.21.19-.27,0,.2.06.39.09.57a4.05,4.05,0,0,0,.72,1.83,1.59,1.59,0,0,0,2.47.19,4.22,4.22,0,0,0,.91-1.36c0-.09.05-.22.2-.26.36,1.07.86,2,2.13,2.1A2.77,2.77,0,0,0,634,98.62a.41.41,0,0,1,.13.29,1.78,1.78,0,0,0,1.89,1.32,1.72,1.72,0,0,0,1.36-1c.22-.36.22-.44.49,0a2,2,0,0,0,1.43,1,2.48,2.48,0,0,0,2.27-.93c.07-.08.11-.19.23-.22a.7.7,0,0,1-.14.9c-.7.67-1.41,1.33-2.09,2a5.12,5.12,0,0,0-1.15,1.64,2,2,0,0,0,1.32,2.87,2.69,2.69,0,0,0,3.35-1.81,7.34,7.34,0,0,0,.37-1.67,29.92,29.92,0,0,0,.06-3.28.93.93,0,0,1,.22-.64,17.43,17.43,0,0,0,2.72-4.71c.34-.85.34-.85,1.26-.85.38,0,.43.06.34.43a11.55,11.55,0,0,0-.28,3.26,3.72,3.72,0,0,0,.63,2.08,1.8,1.8,0,0,0,3.19-.07c.14-.23.21-.23.36,0a2.1,2.1,0,0,0,3,.66,3.2,3.2,0,0,0,1-1c.05-.08.07-.2.22-.23a1.92,1.92,0,0,0,1.57,1.61c.93.16,1.46-.41,1.87-1.19a3.23,3.23,0,0,1,.08.5c.06.43.15.54.56.64a2.39,2.39,0,0,0,.92.06c.4-.06.51-.17.53-.57l.06-1.56A10.48,10.48,0,0,1,662.92,94c0-.09.08-.22.2-.2s.09.16.09.26c0,1,.09,1.9.19,2.84a9.42,9.42,0,0,0,.3,1.84,1.15,1.15,0,0,0,1.22.88c.44,0,.55-.16.58-.6A15,15,0,0,1,666.6,94c0-.12.07-.26.21-.33a.2.2,0,0,1,0,.08c0,.21,0,.41,0,.62A19.2,19.2,0,0,0,667,97.8a3.07,3.07,0,0,0,.91,2,1.57,1.57,0,0,0,2.55-.46,4.55,4.55,0,0,0,.47-1.73A.75.75,0,0,0,670.86,97.21Zm-37.1-1.78a7.8,7.8,0,0,1-.26,2,3.17,3.17,0,0,1-.57,1.2.86.86,0,0,1-1.59-.2,4.71,4.71,0,0,1-.37-2,9.18,9.18,0,0,1,.22-2.11,2.87,2.87,0,0,1,.48-1.12,1,1,0,0,1,1.74.14A4.32,4.32,0,0,1,633.76,95.43Zm7.58,2.62a2.08,2.08,0,0,1-.61.85.77.77,0,0,1-1.2-.17,2.28,2.28,0,0,1-.37-.93,7.46,7.46,0,0,1,.21-3.78,2.15,2.15,0,0,1,.54-1,1,1,0,0,1,1.65.35,5.23,5.23,0,0,1,.26,1.87A7.79,7.79,0,0,1,641.34,98.05Zm.66,4a11.18,11.18,0,0,1-.19,2.08,3,3,0,0,1-.33,1,1.09,1.09,0,0,1-.93.62.86.86,0,0,1-.95-.84,2.64,2.64,0,0,1,.44-1.57,11.26,11.26,0,0,1,1.72-2.11c0-.05.1-.13.18-.09s0,.13,0,.2C642,101.63,642,101.87,642,102.1Zm13.59-4.47a2.61,2.61,0,0,1-.64,1.16.81.81,0,0,1-1.41-.21,3.92,3.92,0,0,1-.39-1.69c0-.2,0-.41,0-.61a7.74,7.74,0,0,1,.31-2.39,2.37,2.37,0,0,1,.38-.72,1,1,0,0,1,1.75.22,3.24,3.24,0,0,1,.28,1.15A7.68,7.68,0,0,1,655.59,97.63Z" transform="translate(-415.49 -30)"/><path class="cls-24" d="M587.36,86.29l-.71-.79a2.35,2.35,0,0,0-1.76-.8h-2.67a2.35,2.35,0,0,0-1.76.8l-.71.79a2.39,2.39,0,0,1-1.76.79h-1a2.42,2.42,0,0,0-2.39,2.45V99a2.41,2.41,0,0,0,2.39,2.44h13.13A2.41,2.41,0,0,0,592.56,99V89.53a2.42,2.42,0,0,0-2.39-2.45h-1A2.39,2.39,0,0,1,587.36,86.29Z" transform="translate(-415.49 -30)"/><path class="cls-24" d="M587.67,94.28a4.07,4.07,0,1,1-4.07-4.16A4.11,4.11,0,0,1,587.67,94.28Z" transform="translate(-415.49 -30)"/><ellipse class="cls-25" cx="356.06" cy="63.54" rx="12" ry="12.29"/><polygon class="cls-26" points="384.74 55.4 402.78 55.38 392.71 71.7 391.25 62.08 384.74 55.4"/><line class="cls-26" x1="391.25" y1="62.08" x2="402.78" y2="55.38"/><rect class="cls-27" x="350.25" y="58.73" width="11.34" height="11.62" rx="3.89"/><polyline class="cls-28" points="352.21 64.53 355.82 63.54 355.82 65.4 359.64 64.21"/><line class="cls-28" x1="356.17" y1="58.58" x2="353.65" y2="56.03"/><line class="cls-28" x1="355.68" y1="58.58" x2="358.2" y2="56.03"/><ellipse class="cls-16" cx="280.97" cy="283.33" rx="15.94" ry="16.33"/><path class="cls-16" d="M740.89,277.36H724.61l-2.47-5.81a8.43,8.43,0,0,0-7.74-5.2H678.53a8.43,8.43,0,0,0-7.74,5.2l-2.48,5.81H652a9.44,9.44,0,0,0-9.32,9.55v52.84a9.43,9.43,0,0,0,9.32,9.54h88.85a9.43,9.43,0,0,0,9.31-9.54V286.91A9.44,9.44,0,0,0,740.89,277.36ZM696.46,337c-12.74,0-23.11-10.62-23.11-23.67s10.37-23.67,23.11-23.67,23.11,10.62,23.11,23.67S709.2,337,696.46,337Z" transform="translate(-415.49 -30)"/><path class="cls-23" d="M757.84,642c.27,0,.55,0,.86,0,1.86.19,4,1.94,4.28,5.29v1.11c-.23,3.11-2.46,6.92-8.88,11.67a1.07,1.07,0,0,1-1.27,0c-6.42-4.75-8.64-8.56-8.88-11.67v-1.11c.26-3.35,2.42-5.1,4.28-5.29.31,0,.59,0,.86,0,2.16,0,3.19,1,4.38,2.4,1.18-1.44,2.21-2.4,4.37-2.4" transform="translate(-415.49 -30)"/><path class="cls-23" d="M639.08,658.36a7.82,7.82,0,0,1-5.65-2.4,8.31,8.31,0,0,1,0-11.58,7.85,7.85,0,0,1,11.3,0,8.33,8.33,0,0,1,0,11.58A7.84,7.84,0,0,1,639.08,658.36Zm0-13.92a5.51,5.51,0,0,0-4,1.68,5.82,5.82,0,0,0,0,8.1,5.5,5.5,0,0,0,7.91,0,5.82,5.82,0,0,0,0-8.1A5.49,5.49,0,0,0,639.08,644.44Z" transform="translate(-415.49 -30)"/><path class="cls-23" d="M647.78,660.31a1.17,1.17,0,0,1-.85-.36l-3.9-4a1.25,1.25,0,0,1,0-1.74,1.18,1.18,0,0,1,1.7,0l3.89,4a1.25,1.25,0,0,1,0,1.74A1.17,1.17,0,0,1,647.78,660.31Z" transform="translate(-415.49 -30)"/><path class="cls-23" d="M701.05,642h-9.18a4.41,4.41,0,0,0-4.35,4.47v9.4a4.41,4.41,0,0,0,4.35,4.46h9.18a4.41,4.41,0,0,0,4.36-4.46v-9.4A4.41,4.41,0,0,0,701.05,642Zm.21,9.87h-4.11v4.21a.69.69,0,1,1-1.38,0v-4.21h-4.11a.71.71,0,0,1,0-1.41h4.11v-4.21a.69.69,0,1,1,1.38,0v4.21h4.11a.71.71,0,0,1,0,1.41Z" transform="translate(-415.49 -30)"/><path class="cls-23" d="M592.84,650.52l-8.05-8.17a1.2,1.2,0,0,0-1.73,0l-8,8.17a1.26,1.26,0,0,0-.37.89v7.64a1.24,1.24,0,0,0,1.23,1.26h4.72v-5.08a3.33,3.33,0,1,1,6.66,0v5.08H592a1.24,1.24,0,0,0,1.22-1.26v-7.64A1.29,1.29,0,0,0,592.84,650.52Z" transform="translate(-415.49 -30)"/><path class="cls-23" d="M818.27,651.15a8.95,8.95,0,1,1-8.94-9.17A9,9,0,0,1,818.27,651.15Z" transform="translate(-415.49 -30)"/><path class="cls-26" d="M619.67,480a8.3,8.3,0,0,0,1.24-4.34,7.94,7.94,0,1,0-7.94,8.13,7.73,7.73,0,0,0,5.08-1.93l2.86.77Z" transform="translate(-415.49 -30)"/><path class="cls-26" d="M587,467.52a7,7,0,0,1,.77,0c1.65.16,3.57,1.71,3.8,4.69v1c-.21,2.75-2.19,6.14-7.88,10.35a1,1,0,0,1-1.13,0c-5.69-4.21-7.67-7.6-7.88-10.35v-1c.24-3,2.15-4.53,3.8-4.69a7,7,0,0,1,.77,0,4.5,4.5,0,0,1,3.87,2.12c1.06-1.28,2-2.12,3.88-2.12" transform="translate(-415.49 -30)"/><polygon class="cls-26" points="217.83 437.54 235.81 437.52 225.78 453.77 224.32 444.19 217.83 437.54"/><line class="cls-26" x1="224.32" y1="444.19" x2="235.81" y2="437.52"/><polygon class="cls-26" points="402.78 453.77 396.28 448.02 389.78 453.77 389.78 445.64 389.78 437.52 396.28 437.52 402.78 437.52 402.78 445.64 402.78 453.77"/><path class="cls-29" d="M700.14,471.18a1.83,1.83,0,1,1,1.79-1.83A1.81,1.81,0,0,1,700.14,471.18Z" transform="translate(-415.49 -30)"/><ellipse class="cls-30" cx="277.3" cy="439.35" rx="1.79" ry="1.83"/><text class="cls-31" transform="translate(159.17 477.02) scale(0.98 1)">Liked <tspan class="cls-32" x="20.71" y="0">b</tspan><tspan x="25.45" y="0">y</tspan><tspan class="cls-33" x="29.43" y="0"> </tspan><tspan class="cls-34" x="31.22" y="0">y</tspan><tspan class="cls-35" x="35.12" y="0">ou</tspan><tspan class="cls-36" x="44.41" y="0">r</tspan><tspan class="cls-35" x="47.42" y="0">f</tspan><tspan class="cls-37" x="49.89" y="0">r</tspan><tspan class="cls-35" x="52.68" y="0">ien</tspan><tspan class="cls-34" x="63.58" y="0">d</tspan><tspan class="cls-35" x="68.25" y="0">, </tspan><tspan class="cls-34" x="71.79" y="0">y</tspan><tspan class="cls-35" x="75.69" y="0">ou</tspan><tspan class="cls-36" x="84.98" y="0">r</tspan><tspan class="cls-38" x="87.99" y="0">f</tspan><tspan class="cls-37" x="90.46" y="0">r</tspan><tspan class="cls-35" x="93.25" y="0">iend</tspan><tspan class="cls-39" x="108.91" y="0"> </tspan><tspan x="110.7" y="0">and</tspan><tspan class="cls-33" x="124.22" y="0"> </tspan><tspan class="cls-35" x="126.01" y="0">20 others</tspan></text><text class="cls-40" transform="translate(159.17 517.13) scale(0.98 1)"><tspan class="cls-41">V</tspan><tspan x="4.58" y="0">iew </tspan><tspan class="cls-42" x="18.79" y="0">A</tspan><tspan x="23.93" y="0">ll 10 </tspan><tspan class="cls-43" x="40.17" y="0">C</tspan><tspan x="44.97" y="0">omme</tspan><tspan class="cls-44" x="67.93" y="0">n</tspan><tspan x="72.58" y="0">ts</tspan></text><text class="cls-45" transform="translate(159.17 489.23) scale(0.98 1)">user_name<tspan class="cls-33" x="45.79" y="0" xml:space="preserve">  </tspan><tspan class="cls-46" x="49.96" y="0">y</tspan><tspan class="cls-47" x="54.5" y="0">our caption he</tspan><tspan class="cls-48" x="114.36" y="0">r</tspan><tspan class="cls-47" x="117.48" y="0">e </tspan><tspan class="cls-49"><tspan x="0" y="11.82">#</tspan><tspan class="cls-50" x="4.9" y="11.82">y</tspan><tspan x="9.44" y="11.82">ou</tspan><tspan class="cls-51" x="20.28" y="11.82">r</tspan><tspan x="23.54" y="11.82">has</tspan><tspan class="cls-52" x="37.66" y="11.82">h</tspan><tspan x="43.09" y="11.82">tag #</tspan><tspan class="cls-50" x="63.59" y="11.82">y</tspan><tspan x="68.13" y="11.82">ou</tspan><tspan class="cls-51" x="78.97" y="11.82">r</tspan><tspan x="82.23" y="11.82">has</tspan><tspan class="cls-52" x="96.35" y="11.82">h</tspan><tspan x="101.78" y="11.82">tag #</tspan><tspan class="cls-53" x="122.28" y="11.82">y</tspan><tspan x="126.82" y="11.82">ou</tspan><tspan class="cls-54" x="137.66" y="11.82">r</tspan><tspan x="140.92" y="11.82">has</tspan><tspan class="cls-55" x="155.04" y="11.82">h</tspan><tspan x="160.47" y="11.82">tag</tspan></tspan></text><path class="cls-16" d="M598.52,140a11.94,11.94,0,1,1-11.93-12.23A12.08,12.08,0,0,1,598.52,140Z" transform="translate(-415.49 -30)"/><text class="cls-17" transform="translate(192.72 113.03) scale(0.98 1)"><tspan class="cls-18">y</tspan><tspan x="4.88" y="0">ou</tspan><tspan class="cls-19" x="16.54" y="0">r</tspan><tspan class="cls-20" x="20.05" y="0">namehe</tspan><tspan class="cls-18" x="56.37" y="0">r</tspan><tspan class="cls-20" x="59.73" y="0">e</tspan></text><path class="cls-16" d="M818.27,135.31A1.26,1.26,0,1,1,817,134,1.27,1.27,0,0,1,818.27,135.31Z" transform="translate(-415.49 -30)"/><path class="cls-16" d="M818.27,140a1.26,1.26,0,1,1-1.26-1.29A1.27,1.27,0,0,1,818.27,140Z" transform="translate(-415.49 -30)"/><path class="cls-16" d="M818.27,144.63a1.26,1.26,0,1,1-1.26-1.29A1.27,1.27,0,0,1,818.27,144.63Z" transform="translate(-415.49 -30)"/><text class="cls-56" transform="translate(159.17 536.07) scale(0.98 1)">2 HOUR <tspan class="cls-57" x="18.22" y="0">A</tspan><tspan class="cls-58" x="21.36" y="0">GO</tspan></text><text class="cls-59" transform="translate(194.12 536.07) scale(0.98 1)">SEE<tspan class="cls-60" x="7.77" y="0"> </tspan><tspan x="8.67" y="0">T</tspan><tspan class="cls-61" x="11.29" y="0">R</tspan><tspan x="14.14" y="0">ANSL</tspan><tspan class="cls-62" x="25.91" y="0">A</tspan><tspan class="cls-63" x="28.72" y="0">TION</tspan></text><path class="cls-29" d="M607.69,564.28a.4.4,0,0,1-.4.4.41.41,0,0,1,0-.81A.4.4,0,0,1,607.69,564.28Z" transform="translate(-415.49 -30)"/></g><path class="cls-64" d="M843.7,647.56V71.26a38.42,38.42,0,0,0-14.12-29.9,38.36,38.36,0,0,1,18.58,33v570.1a38.36,38.36,0,0,1-18.58,33A38.44,38.44,0,0,0,843.7,647.56Z" transform="translate(-415.49 -30)"/><path class="cls-65" d="M549.22,647.56V71.26a38.42,38.42,0,0,1,14.12-29.9,38.36,38.36,0,0,0-18.58,33v570.1a38.36,38.36,0,0,0,18.58,33A38.44,38.44,0,0,1,549.22,647.56Z" transform="translate(-415.49 -30)"/><path class="cls-66" d="M612.81,43.25a13.23,13.23,0,0,1,5.81,9.5c.81,7.44,3.63,16.53,15.53,16.53H758.77c11.9,0,14.73-9.09,15.53-16.53a13.23,13.23,0,0,1,5.81-9.5Z" transform="translate(-415.49 -30)"/><rect class="cls-67" x="261.08" y="21.41" width="39.78" height="4.85" rx="1.88"/><path d="M735.13,54.54a4.22,4.22,0,1,1-4.21-4.32A4.26,4.26,0,0,1,735.13,54.54Z" transform="translate(-415.49 -30)"/><path class="cls-68" d="M737,54.54a6.05,6.05,0,1,1-6.05-6.2A6.12,6.12,0,0,1,737,54.54Z" transform="translate(-415.49 -30)"/><ellipse class="cls-69" cx="315.43" cy="24.54" rx="4.95" ry="5.07"/><path class="cls-70" d="M735.13,54.54a4.22,4.22,0,1,1-4.21-4.32A4.26,4.26,0,0,1,735.13,54.54Z" transform="translate(-415.49 -30)"/><path class="cls-71" d="M735.13,54.54a4.22,4.22,0,1,1-4.21-4.32A4.26,4.26,0,0,1,735.13,54.54Z" transform="translate(-415.49 -30)"/><path class="cls-72" d="M735.13,54.54a4.22,4.22,0,1,1-4.21-4.32A4.26,4.26,0,0,1,735.13,54.54Z" transform="translate(-415.49 -30)"/><path class="cls-73" d="M735.13,54.54a4.22,4.22,0,1,1-4.21-4.32A4.26,4.26,0,0,1,735.13,54.54Z" transform="translate(-415.49 -30)"/><text class="cls-74" transform="translate(172.82 37.15) scale(0.98 1)">8:30</text><rect class="cls-23" x="364.94" y="34.28" width="1.92" height="3.22"/><rect class="cls-23" x="367.69" y="32.99" width="1.92" height="4.51"/><rect class="cls-23" x="370.44" y="31.74" width="1.92" height="5.76"/><rect class="cls-23" x="373.19" y="30.31" width="1.92" height="7.19"/><path class="cls-23" d="M794.77,64a6,6,0,0,1,8.54,0l1.29-1.32a7.8,7.8,0,0,0-11.12,0Z" transform="translate(-415.49 -30)"/><path class="cls-23" d="M796.49,65.73a3.6,3.6,0,0,1,5.1,0l1.29-1.32a5.38,5.38,0,0,0-7.68,0Z" transform="translate(-415.49 -30)"/><path class="cls-23" d="M798.22,67.5a1.18,1.18,0,0,1,1.64,0l1.3-1.33a3,3,0,0,0-4.24,0Z" transform="translate(-415.49 -30)"/><rect class="cls-23" x="391.81" y="31.18" width="12.21" height="5.45" rx="0.36"/><rect class="cls-23" x="404.3" y="32.73" width="0.98" height="2.35" rx="0.36"/><rect class="cls-75" x="137.74" y="132.43" width="286.46" height="290.78"/><text class="cls-76" transform="translate(181.66 224.5) scale(0.72 1)"><tspan class="cls-77">I</tspan><tspan class="cls-78" x="16.04" y="0">nsta G</tspan><tspan class="cls-79" x="184.95" y="0">r</tspan><tspan class="cls-80" x="205.37" y="0">o</tspan><tspan x="240.29" y="0">w</tspan></text><text class="cls-81" transform="translate(163.82 300.93) scale(0.75 1)"><tspan class="cls-82">M</tspan><tspan x="31.81" y="0">ake </tspan><tspan class="cls-83" x="97.17" y="0">y</tspan><tspan x="115.28" y="0">our Business</tspan><tspan x="0" y="47.13" xml:space="preserve">           </tspan><tspan class="cls-84" x="91.59" y="47.13">B</tspan><tspan x="113.04" y="47.13">et</tspan><tspan class="cls-85" x="145.71" y="47.13">t</tspan><tspan x="158.48" y="47.13">er</tspan></text></g></g></svg>